<?xml version="1.0" encoding="utf-8"?>
<svg xmlns="http://www.w3.org/2000/svg" style="margin: auto; display: block; shape-rendering: auto;" width="230" height="34" preserveAspectRatio="xMidYMid">
<style type="text/css">
  text {
    text-anchor: middle; font-size: 32px; opacity: 0;
  }
</style>
<g style="transform-origin: 115px 17px; transform: scale(0.695652);">
<g transform="translate(115,17)">
  <g transform="translate(0,0)"><g class="path" style="transform: scale(1); transform-origin: -144.645px -3.63164px; animation: 1s linear -0.6s infinite normal forwards running beat-c9a283b9-2678-43a7-9eed-1c60fed36adf;"><path d="M17.94-0.46L17.94-0.46L17.94-0.46Q20.19-0.46 20.82-1.29L20.82-1.29L20.82-1.29Q21.44-2.12 21.44-4.09L21.44-4.09L21.44-13.02L18.49-13.02L18.49-14.03L31.74-14.03L31.74-13.02L29.95-13.02L29.95-0.05L29.26-0.05L29.26-0.05Q28.43-1.20 26.91-1.20L26.91-1.20L26.91-1.20Q26.27-1.20 23.07-0.37L23.07-0.37L23.07-0.37Q19.87 0.46 17.62 0.46L17.62 0.46L17.62 0.46Q10.12 0.46 6.00-3.59L6.00-3.59L6.00-3.59Q1.89-7.64 1.89-15.75L1.89-15.75L1.89-15.75Q1.89-23.87 6.19-28.29L6.19-28.29L6.19-28.29Q10.49-32.71 17.76-32.71L17.76-32.71L17.76-32.71Q20.56-32.71 23.39-31.99L23.39-31.99L23.39-31.99Q26.22-31.28 26.68-31.28L26.68-31.28L26.68-31.28Q27.14-31.28 27.37-31.49L27.37-31.49L27.37-31.49Q27.60-31.69 27.88-32.20L27.88-32.20L28.38-32.20L28.75-22.22L27.92-22.22L27.92-22.22Q25.67-26.68 23.39-29.23L23.39-29.23L23.39-29.23Q21.11-31.79 18.31-31.79L18.31-31.79L18.31-31.79Q11.27-31.79 11.27-18.03L11.27-18.03L11.27-14.40L11.27-14.40Q11.27-7.50 12.99-3.98L12.99-3.98L12.99-3.98Q14.72-0.46 17.94-0.46" fill="#066091" stroke="none" stroke-width="none" transform="translate(-161.45999145507812,12.493359208540483)" style="fill: rgb(6, 96, 145);"></path></g><g class="path" style="transform: scale(1); transform-origin: -114.425px -3.60664px; animation: 1s linear -0.54s infinite normal forwards running beat-c9a283b9-2678-43a7-9eed-1c60fed36adf;"><path d="M34.22-31.19L34.22-32.20L58.14-32.20L58.60-23.09L57.78-23.09L57.78-23.09Q55.84-27.74 53.73-29.46L53.73-29.46L53.73-29.46Q51.61-31.19 47.52-31.19L47.52-31.19L45.91-31.19L45.91-16.97L47.47-16.97L47.47-16.97Q49.63-16.97 51.11-18.61L51.11-18.61L51.11-18.61Q52.58-20.24 53.18-23L53.18-23L53.87-23L53.87-9.38L53.08-9.38L53.08-9.38Q52.26-12.83 50.85-14.31L50.85-14.31L50.85-14.31Q49.45-15.78 47.01-15.78L47.01-15.78L45.91-15.78L45.91-1.01L47.66-1.01L47.66-1.01Q51.89-1.01 54.86-3.54L54.86-3.54L54.86-3.54Q57.82-6.07 58.93-10.03L58.93-10.03L59.85-10.03L59.48 0L34.22 0L34.22-1.01L36.94-1.01L36.94-31.19L34.22-31.19" fill="#066091" stroke="none" stroke-width="none" transform="translate(-161.45999145507812,12.493359208540483)" style="fill: rgb(6, 96, 145);"></path></g><g class="path" style="transform: scale(1); transform-origin: -85.19px -3.60664px; animation: 1s linear -0.48s infinite normal forwards running beat-c9a283b9-2678-43a7-9eed-1c60fed36adf;"><path d="M62.70-32.20L89.84-32.20L90.30-20.65L89.42-20.65L89.42-20.65Q87.40-26.77 85.84-29.00L85.84-29.00L85.84-29.00Q84.27-31.23 81.33-31.23L81.33-31.23L80.78-31.23L80.78-0.97L84.69-0.97L84.69 0L67.90 0L67.90-0.97L71.81-0.97L71.81-31.23L71.21-31.23L71.21-31.23Q68.26-31.23 66.65-28.91L66.65-28.91L66.65-28.91Q65.04-26.59 63.11-20.65L63.11-20.65L62.24-20.65L62.70-32.20" fill="#066091" stroke="none" stroke-width="none" transform="translate(-161.45999145507812,12.493359208540483)" style="fill: rgb(6, 96, 145);"></path></g><g class="path" style="transform: scale(1); transform-origin: -47.15px -3.63164px; animation: 1s linear -0.42s infinite normal forwards running beat-c9a283b9-2678-43a7-9eed-1c60fed36adf;"><path d="M115.23-0.51L115.23-0.51L115.23-0.51Q117.53-0.51 119.30-1.75L119.30-1.75L119.30-1.75Q121.07-2.99 121.07-5.50L121.07-5.50L121.07-5.50Q121.07-8.00 119.16-9.34L119.16-9.34L119.16-9.34Q117.25-10.67 113.73-11.66L113.73-11.66L113.73-11.66Q110.22-12.65 108.63-13.39L108.63-13.39L108.63-13.39Q107.04-14.12 105.62-15.32L105.62-15.32L105.62-15.32Q102.76-17.71 102.76-22.72L102.76-22.72L102.76-22.72Q102.76-26.82 105.69-29.76L105.69-29.76L105.69-29.76Q108.61-32.71 113.67-32.71L113.67-32.71L113.67-32.71Q116.10-32.71 118.75-31.99L118.75-31.99L118.75-31.99Q121.39-31.28 122.04-31.28L122.04-31.28L122.04-31.28Q122.68-31.28 123.19-32.20L123.19-32.20L123.69-32.20L124.02-22.91L123.28-22.91L123.28-22.91Q121.07-26.91 118.66-29.32L118.66-29.32L118.66-29.32Q116.24-31.74 113.41-31.74L113.41-31.74L113.41-31.74Q110.58-31.74 109.02-30.43L109.02-30.43L109.02-30.43Q107.46-29.12 107.46-26.93L107.46-26.93L107.46-26.93Q107.46-24.75 109.32-23.57L109.32-23.57L109.32-23.57Q111.18-22.40 113.90-21.67L113.90-21.67L113.90-21.67Q116.61-20.93 117.46-20.65L117.46-20.65L117.46-20.65Q118.31-20.38 119.58-19.89L119.58-19.89L119.58-19.89Q120.84-19.41 121.65-18.88L121.65-18.88L121.65-18.88Q122.45-18.35 123.35-17.55L123.35-17.55L123.35-17.55Q124.25-16.74 124.75-15.78L124.75-15.78L124.75-15.78Q125.99-13.57 125.99-10.53L125.99-10.53L125.99-10.53Q125.99-5.57 122.89-2.55L122.89-2.55L122.89-2.55Q119.78 0.46 114.72 0.46L114.72 0.46L114.72 0.46Q112.10 0.46 108.72-0.23L108.72-0.23L108.72-0.23Q105.34-0.92 104.97-0.92L104.97-0.92L104.97-0.92Q104.33-0.92 103.73 0.46L103.73 0.46L103.09 0.46L102.63-10.49L103.41-10.49L103.41-10.49Q105.43-6.49 108.58-3.50L108.58-3.50L108.58-3.50Q111.73-0.51 115.23-0.51" fill="#066091" stroke="none" stroke-width="none" transform="translate(-161.45999145507812,12.493359208540483)" style="fill: rgb(6, 96, 145);"></path></g><g class="path" style="transform: scale(1); transform-origin: -19.96px -3.60664px; animation: 1s linear -0.36s infinite normal forwards running beat-c9a283b9-2678-43a7-9eed-1c60fed36adf;"><path d="M127.93-32.20L155.07-32.20L155.53-20.65L154.65-20.65L154.65-20.65Q152.63-26.77 151.06-29.00L151.06-29.00L151.06-29.00Q149.50-31.23 146.56-31.23L146.56-31.23L146.00-31.23L146.00-0.97L149.91-0.97L149.91 0L133.12 0L133.12-0.97L137.03-0.97L137.03-31.23L136.44-31.23L136.44-31.23Q133.49-31.23 131.88-28.91L131.88-28.91L131.88-28.91Q130.27-26.59 128.34-20.65L128.34-20.65L127.47-20.65L127.93-32.20" fill="#066091" stroke="none" stroke-width="none" transform="translate(-161.45999145507812,12.493359208540483)" style="fill: rgb(6, 96, 145);"></path></g><g class="path" style="transform: scale(1); transform-origin: 6.90001px -3.74664px; animation: 1s linear -0.3s infinite normal forwards running beat-c9a283b9-2678-43a7-9eed-1c60fed36adf;"><path d="M169.00-0.87L172.27-0.87L168.91-10.81L159.80-10.81L156.26-0.87L159.71-0.87L159.71 0L152.67 0L152.67-0.87L154.84-0.87L166.57-32.48L170.34-32.48L181.93-0.87L184.05-0.87L184.05 0L169.00 0L169.00-0.87zM168.54-11.82L164.54-23.87L160.22-11.82L168.54-11.82" fill="#066091" stroke="none" stroke-width="none" transform="translate(-161.45999145507812,12.493359208540483)" style="fill: rgb(6, 96, 145);"></path></g><g class="path" style="transform: scale(1); transform-origin: 39.19px -3.37664px; animation: 1s linear -0.24s infinite normal forwards running beat-c9a283b9-2678-43a7-9eed-1c60fed36adf;"><path d="M199.41-16.28L199.41-16.28L196.97-16.28L196.97-0.87L199.96-0.87L199.96 0L185.01 0L185.01-0.87L188.00-0.87L188.00-31.33L185.01-31.33L185.01-32.20L198.90-32.20L198.90-32.20Q204.88-32.20 207.39-31.58L207.39-31.58L207.39-31.58Q209.90-30.96 210.91-30.08L210.91-30.08L210.91-30.08Q213.12-28.29 213.12-24.38L213.12-24.38L213.12-24.38Q213.12-20.47 211.19-18.79L211.19-18.79L211.19-18.79Q209.25-17.11 205.30-16.79L205.30-16.79L205.30-16.65L205.30-16.65Q209.02-16.15 210.50-14.44L210.50-14.44L210.50-14.44Q211.97-12.74 211.97-8.74L211.97-8.74L211.97-6.30L211.97-6.30Q211.97-3.91 212.22-3.08L212.22-3.08L212.22-3.08Q212.47-2.25 213.30-2.25L213.30-2.25L213.30-2.25Q214.13-2.25 214.61-3.01L214.61-3.01L214.61-3.01Q215.10-3.77 215.51-6.21L215.51-6.21L216.29-6.12L216.29-6.12Q215.79-2.21 214.52-0.87L214.52-0.87L214.52-0.87Q213.26 0.46 209.48 0.46L209.48 0.46L209.48 0.46Q205.71 0.46 204.13-1.31L204.13-1.31L204.13-1.31Q202.54-3.08 202.54-7.96L202.54-7.96L202.54-11.32L202.54-11.32Q202.54-13.89 201.87-15.09L201.87-15.09L201.87-15.09Q201.20-16.28 199.41-16.28zM198.49-31.33L196.97-31.33L196.97-17.16L198.44-17.16L198.44-17.16Q201.07-17.16 202.33-18.77L202.33-18.77L202.33-18.77Q203.60-20.38 203.60-24.01L203.60-24.01L203.60-25.35L203.60-25.35Q203.60-28.98 202.38-30.15L202.38-30.15L202.38-30.15Q201.16-31.33 198.49-31.33L198.49-31.33" fill="#066091" stroke="none" stroke-width="none" transform="translate(-161.45999145507812,12.493359208540483)" style="fill: rgb(6, 96, 145);"></path></g><g class="path" style="transform: scale(1); transform-origin: 69.18px -3.60664px; animation: 1s linear -0.18s infinite normal forwards running beat-c9a283b9-2678-43a7-9eed-1c60fed36adf;"><path d="M217.07-32.20L244.21-32.20L244.67-20.65L243.80-20.65L243.80-20.65Q241.78-26.77 240.21-29.00L240.21-29.00L240.21-29.00Q238.65-31.23 235.70-31.23L235.70-31.23L235.15-31.23L235.15-0.97L239.06-0.97L239.06 0L222.27 0L222.27-0.97L226.18-0.97L226.18-31.23L225.58-31.23L225.58-31.23Q222.64-31.23 221.03-28.91L221.03-28.91L221.03-28.91Q219.42-26.59 217.49-20.65L217.49-20.65L216.61-20.65L217.07-32.20" fill="#066091" stroke="none" stroke-width="none" transform="translate(-161.45999145507812,12.493359208540483)" style="fill: rgb(6, 96, 145);"></path></g><g class="path" style="transform: scale(1); transform-origin: 93.085px -3.60664px; animation: 1s linear -0.12s infinite normal forwards running beat-c9a283b9-2678-43a7-9eed-1c60fed36adf;"><path d="M247.53-31.33L247.53-32.20L261.56-32.20L261.56-31.33L259.03-31.33L259.03-0.87L261.56-0.87L261.56 0L247.53 0L247.53-0.87L250.06-0.87L250.06-31.33L247.53-31.33" fill="#066091" stroke="none" stroke-width="none" transform="translate(-161.45999145507812,12.493359208540483)" style="fill: rgb(6, 96, 145);"></path></g><g class="path" style="transform: scale(1); transform-origin: 116.66px -3.60664px; animation: 1s linear -0.06s infinite normal forwards running beat-c9a283b9-2678-43a7-9eed-1c60fed36adf;"><path d="M292.38-31.33L289.85-31.33L289.85 0L283.41 0L267.63-29.76L267.63-0.87L270.16-0.87L270.16 0L263.86 0L263.86-0.87L266.39-0.87L266.39-31.33L263.86-31.33L263.86-32.20L276.55-32.20L288.60-9.11L288.60-31.33L286.07-31.33L286.07-32.20L292.38-32.20L292.38-31.33" fill="#066091" stroke="none" stroke-width="none" transform="translate(-161.45999145507812,12.493359208540483)" style="fill: rgb(6, 96, 145);"></path></g><g class="path" style="transform: scale(1); transform-origin: 148.42px -3.63164px; animation: 1s linear 0s infinite normal forwards running beat-c9a283b9-2678-43a7-9eed-1c60fed36adf;"><path d="M311.01-0.46L311.01-0.46L311.01-0.46Q313.26-0.46 313.88-1.29L313.88-1.29L313.88-1.29Q314.50-2.12 314.50-4.09L314.50-4.09L314.50-13.02L311.56-13.02L311.56-14.03L324.81-14.03L324.81-13.02L323.01-13.02L323.01-0.05L322.32-0.05L322.32-0.05Q321.49-1.20 319.98-1.20L319.98-1.20L319.98-1.20Q319.33-1.20 316.14-0.37L316.14-0.37L316.14-0.37Q312.94 0.46 310.68 0.46L310.68 0.46L310.68 0.46Q303.19 0.46 299.07-3.59L299.07-3.59L299.07-3.59Q294.95-7.64 294.95-15.75L294.95-15.75L294.95-15.75Q294.95-23.87 299.25-28.29L299.25-28.29L299.25-28.29Q303.55-32.71 310.82-32.71L310.82-32.71L310.82-32.71Q313.63-32.71 316.46-31.99L316.46-31.99L316.46-31.99Q319.29-31.28 319.75-31.28L319.75-31.28L319.75-31.28Q320.21-31.28 320.44-31.49L320.44-31.49L320.44-31.49Q320.67-31.69 320.94-32.20L320.94-32.20L321.45-32.20L321.82-22.22L320.99-22.22L320.99-22.22Q318.73-26.68 316.46-29.23L316.46-29.23L316.46-29.23Q314.18-31.79 311.37-31.79L311.37-31.79L311.37-31.79Q304.34-31.79 304.34-18.03L304.34-18.03L304.34-14.40L304.34-14.40Q304.34-7.50 306.06-3.98L306.06-3.98L306.06-3.98Q307.79-0.46 311.01-0.46" fill="#066091" stroke="none" stroke-width="none" transform="translate(-161.45999145507812,12.493359208540483)" style="fill: rgb(6, 96, 145);"></path></g></g>
</g>
</g>
<style id="beat-c9a283b9-2678-43a7-9eed-1c60fed36adf" data-anikit="">@keyframes beat-c9a283b9-2678-43a7-9eed-1c60fed36adf
{
  0% {
    animation-timing-function: cubic-bezier(0.1028,0.2484,0.1372,0.849);
    transform: scale(1);
  }
  34% {
    animation-timing-function: cubic-bezier(0.7116,0.2095,0.8159,0.6876);
    transform: scale(1.2);
  }
  68% {
    animation-timing-function: cubic-bezier(0.1475,0.2888,0.294,0.883);
    transform: scale(1.0268);
  }
  84% {
    animation-timing-function: cubic-bezier(0.8176,0.2193,0.867,0.6889);
    transform: scale(1.0932);
  }
  100% {
    transform: scale(1);
  }
}</style></svg>