<?xml version="1.0" standalone="no"?>
<!DOCTYPE svg PUBLIC "-//W3C//DTD SVG 1.1//EN" "http://www.w3.org/Graphics/SVG/1.1/DTD/svg11.dtd" >
<svg>
<metadata>
Created by FontForge 20090914 at Wed Feb 19 10:25:30 2020
 By www-data
Copyright (c) 2010, Sebastian Kosch (sebastian@aldusleaf.org),
with Reserved Font Name "Crimson Text".
This Font Software is licensed under the SIL Open Font License, Version 1.1.
This license is available with a FAQ at: http://scripts.sil.org/OFL
</metadata>
<defs>
<font id="CrimsonText-Bold" horiz-adv-x="462" >
  <font-face 
    font-family="Crimson Text"
    font-weight="700"
    font-stretch="normal"
    units-per-em="1024"
    panose-1="2 0 8 3 0 0 0 0 0 0"
    ascent="717"
    descent="-307"
    x-height="432.001"
    cap-height="662.001"
    bbox="-296.001 -738.999 1240 1106"
    underline-thickness="51"
    underline-position="-102"
    unicode-range="U+0020-U+FFC4"
  />
<missing-glyph horiz-adv-x="374" 
d="M34 0v682h272v-682h-272zM68 34h204v614h-204v-614z" />
    <glyph glyph-name=".notdef" horiz-adv-x="374" 
d="M34 0v682h272v-682h-272zM68 34h204v614h-204v-614z" />
    <glyph glyph-name="space" unicode=" " horiz-adv-x="209" 
 />
    <glyph glyph-name="exclam" unicode="!" horiz-adv-x="193" 
d="M100 642c16.667 0 31.167 -6.16602 43.5 -18.499s18.5 -28.833 18.5 -49.5c0 -13.333 -5.33301 -63.833 -16 -151.5s-19.334 -154.834 -26.001 -201.501c-3.33301 -20.667 -14.333 -31 -33 -31c-5.33301 0 -9.33301 7.33301 -12 22c-6 38.667 -14.333 103 -25 193
s-16 146.667 -16 170c0 20.667 6.33301 37 19 49s28.334 18 47.001 18zM23 66.001c0 20.667 7.16895 38 21.502 52s31.166 21 50.499 21c21.333 0 39.166 -7 53.499 -21s21.5 -31.333 21.5 -52s-6.83301 -38.667 -20.5 -54s-30.5 -23 -50.5 -23
c-19.333 0 -36.833 7.33301 -52.5 22s-23.5 33 -23.5 55z" />
    <glyph glyph-name="quotedbl" unicode="&#x22;" horiz-adv-x="323" 
d="M83 698l18 -0.000976562c10 0 17.5 -4.16699 22.5 -12.5s7.5 -25.833 7.5 -52.5c0 -20 -4.66699 -50.667 -14 -92s-15 -72 -17 -92c-1.33301 -10 -8 -15 -20 -15c-10.667 0 -16.667 4.33301 -18 13c-3.33301 31.333 -9.83301 67.333 -19.5 108s-14.5 67.334 -14.5 80.001
c0 10 6.16699 23 18.5 39s24.5 24 36.5 24zM246 697.999l19 -0.000976562c9.33301 0 16.5 -4.16699 21.5 -12.5s7.5 -25.833 7.5 -52.5c0 -20 -5 -50.5 -15 -91.5s-16 -71.833 -18 -92.5c-0.666992 -4.66699 -3.16699 -8.33398 -7.5 -11.001s-8.5 -4 -12.5 -4
c-8.66699 0 -13.667 4.33301 -15 13c-3.33301 31.333 -9.83301 67.333 -19.5 108s-14.5 67.334 -14.5 80.001c0 10.667 6 23.834 18 39.501s24 23.5 36 23.5z" />
    <glyph glyph-name="numbersign" unicode="#" horiz-adv-x="473" 
d="M307 24l-3.00195 -4c-4 -3.33301 -13 -5 -27 -5h-23c-4 0 -7.16699 0.833008 -9.5 2.5s-3.5 3.16699 -3.5 4.5v2l22 147h-82l-22 -147c0 -1.33301 -0.166992 -2.33301 -0.5 -3s-3 -1.83398 -8 -3.50098s-12.5 -2.5 -22.5 -2.5h-23c-4 0 -7.16699 0.833008 -9.5 2.5
s-3.5 3.16699 -3.5 4.5l-1 2l23 147h-82c-4 0 -6 3.33301 -6 10c0 16 2.66699 33 8 51c0.666992 2 1.5 3.33301 2.5 4s2.16699 1 3.5 1h1h82l12 74h-103c-4 0.666992 -6 4.33398 -6 11.001c0 16 2.66699 33 8 51c0.666992 2 1.5 3.33301 2.5 4s2.16699 1 3.5 1h1h103l24 152
c0 6 19 9 57 9c4 0 6.83301 -0.833008 8.5 -2.5s2.5 -3.16699 2.5 -4.5l-1 -2l-23 -152h82l24 152c0 6 19 9 57 9c4 0 6.83301 -0.833008 8.5 -2.5s2.5 -3.16699 2.5 -4.5l-1 -2l-24 -152h78c0.666992 0 1.33398 0.166992 2.00098 0.5s1.66699 -0.166992 3 -1.5
s2 -3.33301 2 -6c0 -16 -3 -33.667 -9 -53l-6 -7h-79l-13 -74h100c0.666992 0 1.33398 0.166992 2.00098 0.5s1.66699 -0.166992 3 -1.5s2 -3.33301 2 -6c0 -16 -3 -33.667 -9 -53c-0.666992 -2 -1.5 -3.5 -2.5 -4.5s-1.83301 -1.5 -2.5 -1.5h-1h-100zM272.998 237l12 74
h-82l-13 -74h83z" />
    <glyph glyph-name="dollar" unicode="$" horiz-adv-x="464" 
d="M267 668c26 0 39 -2.66699 39 -8l-114 -700c-26 0 -39 3 -39 9zM235 643c22 0 43.5039 -1.66992 64.5039 -5.00293s40.167 -7.33301 57.5 -12s27.666 -7.33398 30.999 -8.00098c14.667 -57.333 22 -110.666 22 -159.999c-4.66699 -6.66699 -14.667 -10 -30 -10
c-12 0 -18 2.33301 -18 7c0 6.66699 -4 19.834 -12 39.501s-22.5 40.334 -43.5 62.001s-44.5 32.5 -70.5 32.5c-24.667 0 -43.834 -7.33301 -57.501 -22s-20.5 -34.667 -20.5 -60c0 -38 39.667 -82.333 119 -133c55.333 -34.667 90.666 -59.334 105.999 -74.001
c36.667 -35.333 55 -78.333 55 -129c0 -51.333 -22.833 -94.166 -68.5 -128.499s-96.834 -51.5 -153.501 -51.5c-40 0 -96.333 8.33301 -169 25c-11.333 43.333 -18.666 96.333 -21.999 159c-0.666992 6.66699 5 10 17 10c14.667 0 24.667 -1.33301 30 -4
c2.66699 -11.333 7.66699 -24.166 15 -38.499s16.833 -29 28.5 -44s26.667 -27.5 45 -37.5s38.166 -15 59.499 -15c23.333 0 43.333 9.16699 60 27.5s25 42.166 25 71.499c0 20.667 -9.33301 40.334 -28 59.001s-45.334 39.334 -80.001 62.001c-4 2.66699 -15.667 10 -35 22
s-32.666 20.5 -39.999 25.5s-18.333 14 -33 27s-25.167 24.667 -31.5 35s-12.333 23.666 -18 39.999s-8.5 33.5 -8.5 51.5c0 50 21.5 91.833 64.5 125.5s89.5 50.5 139.5 50.5z" />
    <glyph glyph-name="percent" unicode="%" horiz-adv-x="660" 
d="M170 605c-34.667 0 -52.001 -31.667 -52.001 -95c0 -90 23 -135 69 -135c18.667 0 32.334 9.16699 41.001 27.5s13 39.5 13 63.5c0 92.667 -23.667 139 -71 139zM179.999 642c44 0 81.333 -15 112 -45s46 -66 46 -108s-15.333 -77.833 -46 -107.5s-68 -44.5 -112 -44.5
s-81.167 14.833 -111.5 44.5s-45.5 65.5 -45.5 107.5s15.167 78 45.5 108s67.5 45 111.5 45zM467.999 268c-19.333 0 -33.001 -9.33301 -41.001 -28s-12 -40.667 -12 -66c0 -90.667 23 -136 69 -136c18.667 0 32.334 9.16699 41.001 27.5s13 39.833 13 64.5
c0 92 -23.333 138 -70 138zM476.998 306c44 0 81.333 -15 112 -45s46 -66 46 -108s-15.333 -77.833 -46 -107.5s-68 -44.5 -112 -44.5s-81.167 14.833 -111.5 44.5s-45.5 65.5 -45.5 107.5s15.167 78 45.5 108s67.5 45 111.5 45zM604.998 629l-481 -622
c-6 -7.33301 -17 -11 -33 -11c-24 0 -37 4.66699 -39 14l481 622c8 9.33301 14.333 14 19 14c21.333 0 39 -5.66699 53 -17z" />
    <glyph glyph-name="ampersand" unicode="&#x26;" horiz-adv-x="701" 
d="M339 101c-8.66699 10 -23.667 30.667 -45 62l-58 86l-25 39c-30.667 -22 -46 -63.667 -46 -125c0 -35.333 9 -62 27 -80s40 -27 66 -27c31.333 0 58.333 15 81 45zM289 603c-20 0 -34.3311 -7.66797 -42.998 -23.001s-13 -34 -13 -56c0 -8 1.16699 -16.667 3.5 -26
s5.66602 -18.666 9.99902 -27.999s8.16602 -17 11.499 -23s8 -13.833 14 -23.5s9.33301 -15.167 10 -16.5c24.667 17.333 42.667 34.333 54 51s17 38.667 17 66c0 18.667 -5.5 36.5 -16.5 53.5s-26.833 25.5 -47.5 25.5zM292.002 655.999
c50.667 0.666992 91.3311 -10.499 121.998 -33.499s46 -52.833 46 -89.5c0 -40.667 -12 -75 -36 -103s-58.667 -56 -104 -84c26.667 -42.667 63.667 -94.334 111 -155.001c35.333 41.333 53 65 53 71c0 6.66699 -3.16699 11.334 -9.5 14.001s-13.833 4 -22.5 4h-14
c-1.33301 5.33301 -2 11.833 -2 19.5s1 11.834 3 12.501l103 -1c29.333 0 66.333 1 111 3c3.33301 -1.33301 5 -7 5 -17c0 -12.667 -2.66699 -19.667 -8 -21c-33.333 -4.66699 -55.666 -11 -66.999 -19c-4 -2.66699 -13.167 -12.334 -27.5 -29.001l-46 -55.5
c-16.333 -20.333 -28.166 -34.166 -35.499 -41.499l5 -6l9 -10.5c2.66699 -3 6.33398 -6.66699 11.001 -11s9 -8 13 -11s8.83301 -5.5 14.5 -7.5s11.167 -3 16.5 -3c13.333 0 26 5.83301 38 17.5s21.333 23.167 28 34.5c4.66699 0 10.5 -2.83301 17.5 -8.5
s10.5 -10.834 10.5 -15.501c-5.33301 -15.333 -21.5 -38 -48.5 -68s-55.5 -45 -85.5 -45c-22 0 -42.833 4.5 -62.5 13.5s-33.834 18.167 -42.501 27.5l-13 14c-42.667 -37.333 -96.667 -56 -162 -56c-53.333 0 -99.666 13.667 -138.999 41s-59 69 -59 125
c0 24 4.5 46.167 13.5 66.5s22.667 39 41 56s33.166 29.667 44.499 38s27 18.833 47 31.5c-2 2.66699 -6 9.16699 -12 19.5s-10.333 18 -13 23s-6.5 12.667 -11.5 23s-8.83301 19.166 -11.5 26.499s-5 15.833 -7 25.5s-3 19.167 -3 28.5c0 50.667 17.167 89.167 51.5 115.5
s76.833 39.833 127.5 40.5z" />
    <glyph glyph-name="quotesingle" unicode="'" horiz-adv-x="200" 
d="M104 698l19 -0.000976562c9.33301 0 16.5 -4.16699 21.5 -12.5s7.5 -25.833 7.5 -52.5c0 -20 -5 -50.5 -15 -91.5s-16 -71.833 -18 -92.5c-0.666992 -4.66699 -3.16699 -8.33398 -7.5 -11.001s-8.5 -4 -12.5 -4c-8.66699 0 -13.667 4.33301 -15 13
c-3.33301 31.333 -9.83301 67.333 -19.5 108s-14.5 67.334 -14.5 80.001c0 10.667 6 23.834 18 39.501s24 23.5 36 23.5z" />
    <glyph glyph-name="parenleft" unicode="(" horiz-adv-x="309" 
d="M152 305c0 -102 16.0039 -192.662 48.0039 -271.995s60.333 -125.666 85 -138.999c1.33301 -0.666992 2 -2.33398 2 -5.00098c0 -4.66699 -1.16699 -10.167 -3.5 -16.5s-5.16602 -9.5 -8.49902 -9.5c-8.66699 0 -22.334 6.5 -41.001 19.5s-39.834 32.667 -63.501 59
s-46.167 56.666 -67.5 90.999s-39.333 75.666 -54 123.999s-22 97.833 -22 148.5c0 49.333 7.16699 98.166 21.5 146.499s32.166 89.666 53.499 123.999s43.666 65 66.999 92s44.5 47.167 63.5 60.5s33.167 20 42.5 20c3.33301 0 6.16602 -3.33301 8.49902 -10
s3.5 -12.334 3.5 -17.001c0 -1.33301 -0.333008 -2.33301 -1 -3c-31.333 -22 -61.5 -72.833 -90.5 -152.5s-43.5 -166.5 -43.5 -260.5z" />
    <glyph glyph-name="parenright" unicode=")" horiz-adv-x="309" 
d="M157 305c0 94 -14.499 180.998 -43.499 260.998s-59.167 130.667 -90.5 152c-0.666992 0.666992 -1 1.66699 -1 3c0 4.66699 1.16699 10.334 3.5 17.001s5.16602 10 8.49902 10c13.333 0 33.166 -11.5 59.499 -34.5s53.833 -53.167 82.5 -90.5s53.5 -84.833 74.5 -142.5
s31.5 -116.167 31.5 -175.5s-10.5 -117.833 -31.5 -175.5s-45.667 -105 -74 -142s-55.833 -67 -82.5 -90s-46.667 -34.5 -60 -34.5c-3.33301 0 -6.16602 3 -8.49902 9s-3.5 11.333 -3.5 16c0 3.33301 0.666992 5.33301 2 6c25.333 12 53.833 58.833 85.5 140.5
s47.5 171.834 47.5 270.501z" />
    <glyph glyph-name="asterisk" unicode="*" horiz-adv-x="416" 
d="M297 623c8.66699 8 18.9961 11.9971 30.9961 11.9971s21.333 -4 28 -12c7.33301 -8 10.5 -17.667 9.5 -29s-5.83301 -21.333 -14.5 -30c-9.33301 -8.66699 -25.666 -19.5 -48.999 -32.5s-39.666 -23.833 -48.999 -32.5c-2 -1.33301 -3 -3.66602 -3 -6.99902l6 -6
c11.333 -5.33301 30 -10.333 56 -15s45 -10.334 57 -17.001c10.667 -6 17.667 -14.667 21 -26s2.33301 -21.333 -3 -30c-5.33301 -9.33301 -13.5 -15.333 -24.5 -18s-21.833 -1.33398 -32.5 3.99902c-11.333 6 -26.666 18 -45.999 36s-34.666 30.333 -45.999 37
c-3.33301 2 -6.33301 2.33301 -9 1l-5 -7c-1.33301 -12 -0.333008 -31.167 3 -57.5s3.66602 -46.166 0.999023 -59.499c-2.66699 -11.333 -8.66699 -20.5 -18 -27.5s-19 -9.16699 -29 -6.5s-18.167 8.66699 -24.5 18s-8.5 19.666 -6.5 30.999c2 12.667 8.66699 31 20 55
s18.333 42.667 21 56c0.666992 2.66699 0.333984 5 -0.999023 7l-9 1c-12 -2 -29.833 -8.83301 -53.5 -20.5s-42.167 -18.167 -55.5 -19.5c-12 -1.33301 -22.667 1.5 -32 8.5s-14.666 15.833 -15.999 26.5s1.66699 20.334 9 29.001s17 13.667 29 15s31.167 0.333008 57.5 -3
s46.166 -4 59.499 -2c4.66699 0 7.66699 1.33301 9 4l-2 8c-6 10.667 -18.167 25.667 -36.5 45s-30.166 35 -35.499 47c-4.66699 11.333 -5 22.5 -1 33.5s10.667 18.5 20 22.5c10 4 20.167 4 30.5 0s17.833 -11.333 22.5 -22c5.33301 -11.333 10.666 -30.166 15.999 -56.499
s11 -45.5 17 -57.5c1.33301 -4 3.33301 -6 6 -6l7 6c8.66699 8.66699 19.167 24.834 31.5 48.501s23.5 39.834 33.5 48.501z" />
    <glyph glyph-name="plus" unicode="+" horiz-adv-x="532" 
d="M301 207v-183.998c-10 -6.66699 -30 -12 -60 -16c-1.33301 0 -2.5 -0.166992 -3.5 -0.5s-1.83301 -0.5 -2.5 -0.5c-4 0 -6 2.66699 -6 8v191c0 3.33301 -2 5 -6 5h-191c-4 0 -6 3.33301 -6 10c0 20 2.66699 39 8 57c0.666992 2 1.5 3.33301 2.5 4s2.16699 1 3.5 1h1h183
c3.33301 0 5 2 5 6v182c-0.666992 3.33301 1 5.66602 5 6.99902c18 5.33301 37 8 57 8l10 -6v-192c0 -3.33301 1.33301 -5 4 -5h192c5.33301 0 8 -2.33301 8 -7c0 -14.667 -3.33301 -34.334 -10 -59.001c-0.666992 -2 -1.5 -3.5 -2.5 -4.5s-1.83301 -1.5 -2.5 -1.5h-2h-183
c-2.66699 0 -4 -1 -4 -3z" />
    <glyph glyph-name="comma" unicode="," horiz-adv-x="219" 
d="M94 -31c0 8.66699 -6.33398 20.332 -19.001 34.999s-19 34 -19 58c0 13.333 6.66699 28.666 20 45.999s33.333 26 60 26c16.667 0 30 -3.66699 40 -11c9.33301 -20.667 14 -45 14 -73c0 -14 -4.66699 -37.333 -14 -70c-12 -32.667 -30 -62.667 -54 -90
s-48.667 -46.666 -74 -57.999h-2c-4 0 -8.66699 4.5 -14 13.5s-8 15.833 -8 20.5c0 0.666992 5.83301 4.33398 17.5 11.001s23.334 18 35.001 34s17.5 35.333 17.5 58z" />
    <glyph glyph-name="hyphen" unicode="-" horiz-adv-x="325" 
d="M31 204c0 14.667 0.832031 27.168 2.49902 37.501s3.33398 17.166 5.00098 20.499s3.16699 5 4.5 5h1l241 12h1c4 0 6 -3 6 -9c0 -14.667 -1 -27.5 -3 -38.5s-4.33301 -18.167 -7 -21.5l-3 -6l-241 -11h-2c-0.666992 0 -1.66699 1 -3 3s-2 4.66699 -2 8z" />
    <glyph glyph-name="period" unicode="." horiz-adv-x="204" 
d="M176 66c0 -20.667 -6.83301 -38.667 -20.5 -54s-30.5 -23 -50.5 -23c-20.667 0 -38.5 7.83301 -53.5 23.5s-22.5 33.5 -22.5 53.5s7.16699 37.167 21.5 51.5s31.833 21.5 52.5 21.5c20 0 37.167 -7.16699 51.5 -21.5s21.5 -31.5 21.5 -51.5z" />
    <glyph glyph-name="slash" unicode="/" horiz-adv-x="425" 
d="M404 755l-296 -767c-1.33301 -4 -9 -8.83301 -23 -14.5s-29 -8.5 -45 -8.5c-4.66699 0 -8.5 0.5 -11.5 1.5s-4.83301 2.16699 -5.5 3.5l-1 2l296 767c6.66699 14.667 23 22 49 22c16.667 0 29 -2 37 -6z" />
    <glyph glyph-name="zero" unicode="0" horiz-adv-x="515" 
d="M167 312c0 -76.667 9.16699 -139.666 27.5 -188.999s40.5 -74 66.5 -74c29.333 0 51.166 24 65.499 72s21.5 113.333 21.5 196c0 79.333 -7.66699 142.166 -23 188.499s-36.666 69.5 -63.999 69.5c-29.333 0 -52.333 -24 -69 -72s-25 -111.667 -25 -191zM27 311.001
c0 85.333 23.5 159 70.5 221s101.167 93 162.5 93c60.667 0 113.834 -30.833 159.501 -92.5s68.5 -135.5 68.5 -221.5s-22.833 -159.833 -68.5 -221.5s-98.834 -92.5 -159.501 -92.5c-61.333 0 -115.5 31 -162.5 93s-70.5 135.667 -70.5 221z" />
    <glyph glyph-name="one" unicode="1" horiz-adv-x="346" 
d="M36 469c-4 2 -7.50293 5.66797 -10.5029 11.001s-4.5 9.66602 -4.5 12.999c0 6.66699 0.666992 10.667 2 12l106 67c36.667 22.667 65.834 40.167 87.501 52.5s33.167 18.5 34.5 18.5h2c5.33301 0 9.33301 -6.33301 12 -19c-6 -19.333 -9 -50.666 -9 -93.999v-401
c0 -27.333 2.66699 -51.333 8 -72c1.33301 -4.66699 9.83301 -9.83398 25.5 -15.501s26.167 -8.5 31.5 -8.5c2 0 3 -7 3 -21c0 -8 -0.666992 -13.333 -2 -16c-7.33301 0.666992 -27.166 2.16699 -59.499 4.5s-56.166 3.5 -71.499 3.5s-39.5 -1.16699 -72.5 -3.5
s-52.833 -3.83301 -59.5 -4.5c-2.66699 2.66699 -4 9.5 -4 20.5s1.33301 16.5 4 16.5c7.33301 0 19 3 35 9s24.667 11.667 26 17c4 16 6 35 6 57v336c0 33.333 -6.66699 50 -20 50c-10 0 -33.333 -11 -70 -33z" />
    <glyph glyph-name="two" unicode="2" horiz-adv-x="475" 
d="M232 642c49.333 0 90.5 -15.502 123.5 -46.502s49.5 -72.833 49.5 -125.5c0 -21.333 -2.66699 -42.333 -8 -63s-15.5 -42.5 -30.5 -65.5l-37.5 -56c-10 -14.333 -28.333 -34.833 -55 -61.5s-44.834 -44.5 -54.501 -53.5l-64.5 -59.5
c-1.33301 -1.33301 -1.66602 -3.16602 -0.999023 -5.49902s2.33398 -3.5 5.00098 -3.5h171c14 0 26 2.5 36 7.5s18 12.833 24 23.5s10.333 19.667 13 27s5.66699 17.666 9 30.999c1.33301 4.66699 7 7 17 7s17.667 -2 23 -6c-13.333 -56.667 -26.333 -116 -39 -178
c-1.33301 -9.33301 -5.33301 -14 -12 -14h-366c-7.33301 8 -11.333 19 -12 33c64 70.667 120.333 145.834 169 225.501s73 143.834 73 192.501c0 28.667 -7.66699 53.834 -23 75.501s-36 32.5 -62 32.5c-16.667 0 -32.167 -3.5 -46.5 -10.5s-24.833 -14.167 -31.5 -21.5
s-13.334 -15.666 -20.001 -24.999l-10 -14c-5.33301 0 -11.5 2.5 -18.5 7.5s-10.5 10.833 -10.5 17.5c5.33301 12 12.333 24.167 21 36.5s20.5 26.166 35.5 41.499s34 27.666 57 36.999s48.167 14 75.5 14z" />
    <glyph glyph-name="three" unicode="3" horiz-adv-x="456" 
d="M254 642c27.333 0 53.5039 -9.83398 78.5039 -29.501s37.5 -48.167 37.5 -85.5c0 -32 -9.33301 -61.833 -28 -89.5s-37.667 -47.5 -57 -59.5c26 0 56.667 -15.667 92 -47s53 -70.333 53 -117c0 -66 -28.667 -118.833 -86 -158.5s-121 -59.5 -191 -59.5
c-42.667 0 -81.667 11.333 -117 34c-4 10.667 -6 20.334 -6 29.001c0 15.333 3.16699 29.166 9.5 41.499s17.166 18.5 32.499 18.5c19.333 0 38 -12 56 -36c17.333 -23.333 40.666 -35 69.999 -35c31.333 0 55.333 12.167 72 36.5s25 58.833 25 103.5
c0 38.667 -9.33301 70.167 -28 94.5s-44.334 36.5 -77.001 36.5c-15.333 0 -33.666 -1.66699 -54.999 -5c-4.66699 6 -7 16 -7 30c0 5.33301 1 10.333 3 15c38 6 67.833 20.833 89.5 44.5s32.5 53.5 32.5 89.5c0 27.333 -6.16699 47.333 -18.5 60s-26.5 19 -42.5 19
c-38 0 -69.333 -14 -94 -42c-4.66699 0 -9.66699 3.33301 -15 10s-8 12.334 -8 17.001c19.333 25.333 44.666 45.833 75.999 61.5s65.666 23.5 102.999 23.5z" />
    <glyph glyph-name="four" unicode="4" horiz-adv-x="492" 
d="M394 644c12 0 17.999 -3.33203 17.999 -9.99902v-390h41c10 0 15 -20 15 -60c0 -2 -0.666992 -3.83301 -2 -5.5s-2.66602 -2.83398 -3.99902 -3.50098l-3 -1h-47v-170c-16 -6 -38 -9 -66 -9c-38.667 0 -58 4.33301 -58 13v166h-249c-10 10 -15 26 -15 48l343 408
c8 9.33301 17 14 27 14zM287.999 244.001v201.001c0 6 -1 9 -3 9c-1.33301 -0.666992 -2.33301 -1.33398 -3 -2.00098l-164 -196c-0.666992 -0.666992 -1 -1.66699 -1 -3c0 -6 2.33301 -9 7 -9h164z" />
    <glyph glyph-name="five" unicode="5" horiz-adv-x="448" 
d="M112 638c154.667 0 239.337 1.66504 254.004 4.99805c5.33301 -8 8 -19.333 8 -34c0 -36 -3.66699 -60.667 -11 -74c-38.667 -1.33301 -73.334 -2.16602 -104.001 -2.49902s-53.667 -0.5 -69 -0.5h-31c-8 -0.666992 -12.333 -3.66699 -13 -9l-19 -111
c28 6.66699 55 10 81 10c51.333 0 99.666 -18.5 144.999 -55.5s68 -80.833 68 -131.5c0 -68 -26.833 -124.667 -80.5 -170s-119.167 -68 -196.5 -68c-42.667 0 -81.667 11.333 -117 34c-4 10.667 -6 20.334 -6 29.001c0 15.333 3.16699 29.166 9.5 41.499
s17.166 18.5 32.499 18.5c19.333 0 38 -12 56 -36c17.333 -23.333 40.666 -35 69.999 -35c34 0 58.667 13.667 74 41s23 58.333 23 93c0 43.333 -11.167 78.333 -33.5 105s-48.5 40 -78.5 40c-14.667 0 -28.5 -0.666992 -41.5 -2s-22.667 -2.66602 -29 -3.99902
s-12.833 -3 -19.5 -5l-11 -3c-7.33301 4 -13 8.66699 -17 14c0.666992 1.33301 5 24 13 68l25.5 142.5z" />
    <glyph glyph-name="six" unicode="6" horiz-adv-x="460" 
d="M162 190c0 -96 25.333 -144 76 -144c22.667 0 38.667 10.333 48 31s14 54 14 100c0 45.333 -6.66699 79.666 -20 102.999s-35.666 35 -66.999 35c-24.667 0 -39.334 -9.33301 -44.001 -28c-4 -15.333 -6.33301 -47.666 -7 -96.999zM237 -6
c-55.333 0 -104.168 19.168 -146.501 57.501s-63.5 88.5 -63.5 150.5c0 53.333 10.833 104.166 32.5 152.499s50.834 90.833 87.501 127.5s75.667 68.334 117 95.001s84.666 49.334 129.999 68.001c3.33301 -0.666992 6.16602 -2.5 8.49902 -5.5s4 -5.83301 5 -8.5
s1.83301 -6.33398 2.5 -11.001s1.33398 -7.66699 2.00098 -9c-56 -24 -104.333 -57.167 -145 -99.5s-68.667 -87.5 -84 -135.5c-2 -9.33301 -1.33301 -16.333 2 -21c19.333 8 38.333 12 57 12c52.667 0 97.834 -17.833 135.501 -53.5s56.5 -78.167 56.5 -127.5
c0 -50.667 -19.667 -95.334 -59 -134.001s-85.333 -58 -138 -58z" />
    <glyph glyph-name="seven" unicode="7" horiz-adv-x="470" 
d="M145 536c-6 0 -11.668 -0.831055 -17.001 -2.49805s-9.83301 -3.5 -13.5 -5.5s-7.33398 -5.33301 -11.001 -10s-6.66699 -8.33398 -9 -11.001s-4.83301 -7.33398 -7.5 -14.001l-5.5 -14c-1 -2.66699 -2.66699 -7.83398 -5 -15.501s-3.83301 -12.5 -4.5 -14.5
c-1.33301 -3.33301 -8.16602 -5.5 -20.499 -6.5s-20.5 0.5 -24.5 4.5c16 60.667 30.667 120.334 44 179.001c2 8 8.33301 12 19 12h295c10 0 23.667 0.666992 41 2l26 1c4.66699 0 7 -3 7 -9c0 -10.667 -9 -33 -27 -67l-274 -575c-2 -0.666992 -4.33301 -1 -7 -1
c-9.33301 0 -17.666 3.33301 -24.999 10s-11 14.667 -11 24l254 513h-224z" />
    <glyph glyph-name="eight" unicode="8" horiz-adv-x="464" 
d="M234 46c21.333 0 38.6689 8.50098 52.002 25.501s20 37.833 20 62.5c0 14.667 -3.33301 29.167 -10 43.5s-16.834 28.166 -30.501 41.499s-24 22.833 -31 28.5s-16.833 13.167 -29.5 22.5c-4.66699 4 -9.33398 6 -14.001 6c-2 0 -3.66699 -0.333008 -5 -1
c-18.667 -10 -28 -48.667 -28 -116c0 -30 6.5 -56.333 19.5 -79s31.833 -34 56.5 -34zM231.003 580.001c-38.667 0 -57.999 -28.667 -57.999 -86c0 -18 4.33301 -34.5 13 -49.5s16 -25 22 -30s17.667 -13.833 35 -26.5c3.33301 -2.66699 7.66602 -4 12.999 -4
c2.66699 0 4.66699 0.666992 6 2c21.333 20.667 32 53 32 97c0 64.667 -21 97 -63 97zM228.004 633.001c52 0 97.665 -12.832 136.998 -38.499s59 -60.834 59 -105.501c0 -54 -36.667 -103.333 -110 -148c-1.33301 -0.666992 -2 -1.83398 -2 -3.50098
s0.666992 -2.83398 2 -3.50098c0.666992 -0.666992 5.5 -4.16699 14.5 -10.5s16.333 -11.833 22 -16.5l23.5 -20c10 -8.66699 18.333 -17 25 -25s13.334 -17 20.001 -27s11.834 -20.5 15.501 -31.5s5.5 -22.167 5.5 -33.5c0 -52 -21.5 -94.333 -64.5 -127
s-92.833 -49 -149.5 -49s-104.5 13.5 -143.5 40.5s-58.5 68.5 -58.5 124.5c0 62.667 39 114.667 117 156c4 2 3.66699 4.66699 -1 8c-2 1.33301 -7.33301 5.66602 -16 12.999s-15 12.833 -19 16.5s-9.83301 9.5 -17.5 17.5s-13.5 15.5 -17.5 22.5s-8.5 15.333 -13.5 25
s-8.5 20.334 -10.5 32.001s-3 23.834 -3 36.501c0 42.667 18.833 77.834 56.5 105.501s80.5 41.5 128.5 41.5z" />
    <glyph glyph-name="nine" unicode="9" horiz-adv-x="453" 
d="M295 449c0 96 -25.333 144 -76 144c-22.667 0 -38.667 -10.333 -48 -31s-14 -54 -14 -100c0 -45.333 6.66699 -79.666 20 -102.999s35.666 -35 66.999 -35c24.667 0 39.334 9.33301 44.001 28c4 15.333 6.33301 47.666 7 96.999zM220 645
c55.333 0 104.168 -19.167 146.501 -57.5s63.5 -88.5 63.5 -150.5c0 -53.333 -10.833 -104.166 -32.5 -152.499s-50.834 -90.833 -87.501 -127.5s-75.667 -68.334 -117 -95.001s-84.666 -49.334 -129.999 -68.001c-12 2.66699 -18 14 -18 34c56 24 104.333 57.167 145 99.5
s68.667 87.5 84 135.5c2 9.33301 1.33301 16.333 -2 21c-19.333 -8 -38.333 -12 -57 -12c-52.667 0 -97.834 17.833 -135.501 53.5s-56.5 78.167 -56.5 127.5c0 50.667 19.667 95.334 59 134.001s85.333 58 138 58z" />
    <glyph glyph-name="colon" unicode=":" horiz-adv-x="202" 
d="M175 359c0 -20.667 -6.83301 -38.834 -20.5 -54.501s-30.5 -23.5 -50.5 -23.5c-20.667 0 -38.5 7.83301 -53.5 23.5s-22.5 33.834 -22.5 54.501c0 20 7.5 37.167 22.5 51.5s32.833 21.5 53.5 21.5c20 0 36.833 -7.16699 50.5 -21.5s20.5 -31.5 20.5 -51.5zM175 67
c0 -20.667 -6.83301 -38.834 -20.5 -54.501s-30.5 -23.5 -50.5 -23.5c-20.667 0 -38.5 7.83301 -53.5 23.5s-22.5 33.834 -22.5 54.501c0 20 7.5 37.167 22.5 51.5s32.833 21.5 53.5 21.5c20 0 36.833 -7.16699 50.5 -21.5s20.5 -31.5 20.5 -51.5z" />
    <glyph glyph-name="semicolon" unicode=";" horiz-adv-x="215" 
d="M40 359c0 20 7.5 37.167 22.5 51.5s32.833 21.5 53.5 21.5c20 0 36.833 -7.16699 50.5 -21.5s20.5 -31.5 20.5 -51.5c0 -20.667 -6.83301 -38.834 -20.5 -54.501s-30.5 -23.5 -50.5 -23.5c-20.667 0 -38.5 7.83301 -53.5 23.5s-22.5 33.834 -22.5 54.501zM85 -18
c0 10 -5.16602 21.502 -15.499 34.502s-15.5 28.167 -15.5 45.5c0 13.333 6.66699 28.666 20 45.999s33.333 26 60 26c19.333 0 32.666 -2.66699 39.999 -8c9.33301 -24.667 14 -49.334 14 -74.001c0 -10 -1.66699 -24.333 -5 -43s-6 -30 -8 -34
c-11.333 -28.667 -31.333 -58 -60 -88s-51.667 -48.333 -69 -55h-2c-4 0 -8.66699 4.5 -14 13.5s-8 15.833 -8 20.5c0 0.666992 5.16699 5.5 15.5 14.5s20.833 22.5 31.5 40.5s16 38.333 16 61z" />
    <glyph glyph-name="less" unicode="&#x3c;" horiz-adv-x="464" 
d="M439 45c0 -5.33301 -2 -16.667 -6 -34s-7.33301 -26 -10 -26c-0.666992 0 -2.33398 0.666992 -5.00098 2l-375 190c-12 6.66699 -18 20 -18 40c0 10 6 18 18 24l373 187c2.66699 1.33301 4.33398 2 5.00098 2c4 0 9.66699 -19 17 -57l-3 -9l-318 -155l319 -158
c2 -0.666992 3 -2.66699 3 -6z" />
    <glyph glyph-name="equal" unicode="=" horiz-adv-x="530" 
d="M499 176c0 -16 -3.33301 -36.333 -10 -61c-0.666992 -2 -1.5 -3.5 -2.5 -4.5s-1.83301 -1.5 -2.5 -1.5h-1h-445c-4.66699 0 -7 3.33301 -7 10c0 17.333 3 36.333 9 57c0.666992 2 1.5 3.33301 2.5 4s2.16699 1 3.5 1h1h444c5.33301 0 8 -1.66699 8 -5zM31 261
c3.33301 41.333 8.33301 62 15 62h449c2.66699 0 4 -1.66699 4 -5c0 -16 -3.33301 -36.333 -10 -61c-0.666992 -2 -1.5 -3.5 -2.5 -4.5s-1.83301 -1.5 -2.5 -1.5h-1h-445c-4.66699 0 -7 3.33301 -7 10z" />
    <glyph glyph-name="greater" unicode="&#x3e;" horiz-adv-x="467" 
d="M27 45l3 6.00098l319 158l-318 155l-3 9c7.33301 38 13 57 17 57c0.666992 0 2.33398 -0.666992 5.00098 -2l373 -187c12 -6 18 -14 18 -24c0 -20 -6 -33.333 -18 -40l-375 -190c-2.66699 -1.33301 -4.33398 -2 -5.00098 -2c-2.66699 0 -6 8.66699 -10 26
s-6 28.666 -6 33.999z" />
    <glyph glyph-name="question" unicode="?" horiz-adv-x="350" 
d="M31 66c0 20.667 7.16895 38 21.502 52s31.166 21 50.499 21c21.333 0 39.166 -7 53.499 -21s21.5 -31.333 21.5 -52s-6.83301 -38.667 -20.5 -54s-30.5 -23 -50.5 -23c-19.333 0 -36.833 7.33301 -52.5 22s-23.5 33 -23.5 55zM96.002 522
c-21.333 0 -38.835 6.99902 -52.502 20.999s-20.5 29.667 -20.5 47c0 20 3 34.333 9 43c17.333 8.66699 37 13 59 13c58.667 -2.66699 112.667 -19.167 162 -49.5s74 -72.833 74 -127.5c0 -48 -10 -84.833 -30 -110.5s-50.333 -47.5 -91 -65.5l-28 -11.5
c-10.667 -4.33301 -18.667 -7.83301 -24 -10.5s-9.66602 -5.33398 -12.999 -8.00098c-8.66699 -6.66699 -13 -20.667 -13 -42c0 -8.66699 -3.5 -16 -10.5 -22s-14.5 -9 -22.5 -9c-2.66699 0 -5.16699 2.33301 -7.5 7s-3.83301 9.66699 -4.5 15c-0.666992 10 -2 28.667 -4 56
c-1.33301 32 1.16699 56.167 7.5 72.5s19.5 29.5 39.5 39.5c45.333 22.667 75.833 40.834 91.5 54.501s23.5 30.834 23.5 51.501c0 33.333 -19 50 -57 50c-11.333 0 -25.166 -2.33301 -41.499 -7s-31.833 -7 -46.5 -7z" />
    <glyph glyph-name="at" unicode="@" horiz-adv-x="781" 
d="M691 214c0 86.667 -24.333 159.165 -73 217.498s-114.334 87.5 -197.001 87.5c-91.333 0 -167.333 -27.5 -228 -82.5s-91 -126.167 -91 -213.5c0 -106 27.333 -190.667 82 -254s141.334 -95 260.001 -95c23.333 0 46.666 4.33301 69.999 13
c1.33301 -5.33301 2 -8.33301 2 -9c0 -12.667 -11.167 -24 -33.5 -34s-53.5 -15 -93.5 -15c-52 0 -101 11 -147 33s-84.5 50.167 -115.5 84.5s-55.333 72.5 -73 114.5s-26.5 83.333 -26.5 124c0 120 38.667 215.333 116 286s173.666 106 288.999 106
c48 0 92.667 -10.5 134 -31.5s75.5 -48.167 102.5 -81.5s48 -70.166 63 -110.499s22.5 -80.5 22.5 -120.5c0 -46 -5.66699 -85.833 -17 -119.5s-26.333 -59.167 -45 -76.5s-38 -30 -58 -38s-40.667 -12 -62 -12c-34 0 -62.5 8.33301 -85.5 25s-34.5 35.667 -34.5 57
c0 0.666992 -0.666992 0.666992 -2 0s-2.33301 -1.33398 -3 -2.00098c-8 -17.333 -25 -34 -51 -50s-54.667 -24 -86 -24c-35.333 0 -63.833 15.333 -85.5 46s-32.5 64.667 -32.5 102c0 70.667 26.167 133.167 78.5 187.5s120.833 81.5 205.5 81.5
c12 0 26.333 -0.666992 43 -2s30.334 -2.66602 41.001 -3.99902l17 -3c-3.33301 -22 -5.66602 -39.667 -6.99902 -53l-21 -205c-1.33301 -13.333 -2 -22.666 -2 -27.999c-1.33301 -54 11 -81 37 -81c71.333 0 107 60 107 180zM462 333.998c0 8 -2 14.168 -6 18.501
s-12.667 6.5 -26 6.5c-29.333 0 -58 -19.833 -86 -59.5s-42 -91.834 -42 -156.501c0 -34 2.83301 -57.5 8.5 -70.5s14.834 -19.5 27.501 -19.5c22 0 45.167 17.5 69.5 52.5s37.166 60.5 38.499 76.5l15 140c0.666992 4 1 8 1 12z" />
    <glyph glyph-name="A" unicode="A" horiz-adv-x="720" 
d="M423 33c14.667 0 29.666 3.16895 44.999 9.50195s23 14.833 23 25.5c0 1.33301 -8.33301 23.666 -25 66.999l-30 73c-2.66699 2.66699 -5 4 -7 4c-12.667 0.666992 -44.667 1 -96 1c-44 0 -77.667 -0.333008 -101 -1c-2.66699 0 -5 -1.66699 -7 -5l-33 -76
c-13.333 -30 -20 -50.333 -20 -61s6 -19 18 -25s22.5 -9.5 31.5 -10.5s16.833 -1.5 23.5 -1.5c2 -0.666992 3 -6 3 -16s-0.666992 -17 -2 -21c-8.66699 0.666992 -26.167 2.16699 -52.5 4.5s-47.833 3.5 -64.5 3.5s-36.667 -1.16699 -60 -3.5s-41.333 -3.83301 -54 -4.5
c-2.66699 2.66699 -4 7.66699 -4 15c0 14 0.666992 21 2 21c8 0 21.333 3.5 40 10.5s30.334 14.167 35.001 21.5c5.33301 8 10.833 17.833 16.5 29.5l13.5 28.5l5 12l221 508c7.33301 17.333 19.666 26 36.999 26c10 0 18 -4.33301 24 -13l205 -507l33 -82
c4 -10.667 15 -18.834 33 -24.501s31.667 -8.5 41 -8.5c2.66699 0 4 -5.66699 4 -17s-0.666992 -18 -2 -20c-2.66699 0 -23.167 1.33301 -61.5 4s-66.166 4 -83.499 4c-4.66699 0 -55 -2.66699 -151 -8c-2.66699 2.66699 -4 9.5 -4 20.5s1.33301 16.5 4 16.5z
M258.999 276.002c20 -2 44.666 -3 73.999 -3c26.667 0 50.334 0.666992 71.001 2l3 5l-72 179l-78 -179c0 -2.66699 0.666992 -4 2 -4z" />
    <glyph glyph-name="B" unicode="B" horiz-adv-x="605" 
d="M428 176c0 92.667 -41 139 -123 139c-22 0 -39 -1.66699 -51 -5c-7.33301 -2.66699 -11 -5.66699 -11 -9v-225c0 -6 2.33301 -10.667 7 -14c6.66699 -4.66699 31.667 -7 75 -7c68.667 0 103 40.333 103 121zM103 143v377.999c0 36.667 -2 62.667 -6 78
c-2 5.33301 -11.833 11.333 -29.5 18s-30.167 10 -37.5 10c-2.66699 0 -4 6 -4 18c0 10.667 1 17 3 19c53.333 -3.33301 102.333 -5 147 -5c22 0 72.333 0.666992 151 2c24.667 0 49.667 -3.16699 75 -9.5s49.833 -16.166 73.5 -29.499s42.834 -32 57.501 -56
s22 -51.667 22 -83c0 -34.667 -10 -63.334 -30 -86.001s-37.667 -37 -53 -43c-5.33301 -2 -7 -4 -5 -6c23.333 -4 47.666 -20.5 72.999 -49.5s38 -66.167 38 -111.5c0 -57.333 -23.333 -103.166 -70 -137.499s-108 -50.833 -184 -49.5l-147 2c-20 0 -42.167 -0.5 -66.5 -1.5
s-43.833 -1.83301 -58.5 -2.5l-21 -2c-2.66699 2.66699 -4 8.33398 -4 17.001c0 13.333 1.33301 20 4 20c8 0 20.5 2.33301 37.5 7s26.5 9.66699 28.5 15c4 15.333 6 44.666 6 87.999zM352 379.999c10 5.33301 17.667 10.333 23 15s11.166 14.5 17.499 29.5
s9.5 34.167 9.5 57.5c0 82.667 -30.667 124 -92 124c-29.333 0 -48.666 -1.33301 -57.999 -4c-6 -1.33301 -9 -5.33301 -9 -12v-91v-114c0 -9.33301 17.333 -14 52 -14c26 0 45 3 57 9z" />
    <glyph glyph-name="C" unicode="C" horiz-adv-x="638" 
d="M611 180c0 -9.33301 -5.16797 -35.332 -15.501 -77.999s-18.833 -65.334 -25.5 -68.001c-74.667 -27.333 -149.667 -41 -225 -41c-88 0 -163.333 32.5 -226 97.5s-94 142.167 -94 231.5c0 94.667 31.5 175.834 94.5 243.501s141.5 101.5 235.5 101.5
c72.667 0 149 -9.66699 229 -29c3.33301 -0.666992 7.5 -23 12.5 -67s7.5 -71 7.5 -81s-9 -15 -27 -15c-0.666992 0 -6 1 -16 3c-3.33301 12 -8.83301 24.667 -16.5 38s-19 27.666 -34 42.999s-35.667 27.833 -62 37.5s-55.833 14.5 -88.5 14.5
c-119.333 0 -179 -89.333 -179 -268c0 -83.333 18.333 -153.5 55 -210.5s88.667 -85.5 156 -85.5c49.333 0 92 18 128 54c8.66699 8.66699 16.5 20.5 23.5 35.5s12.333 27.667 16 38s5.83398 15.5 6.50098 15.5c27.333 0 42.333 -3.33301 45 -10z" />
    <glyph glyph-name="D" unicode="D" horiz-adv-x="724" 
d="M176 659h173.999c108.667 0 193.667 -32.167 255 -96.5s92 -139.833 92 -226.5c0 -96 -31 -176.5 -93 -241.5s-147 -97.5 -255 -97.5c-12.667 0 -38.667 0.833008 -78 2.5s-70.666 2.5 -93.999 2.5l-146 -6c-2.66699 2.66699 -4 8.33398 -4 17.001
c0 13.333 1.33301 20 4 20c8 0 20.5 2.33301 37.5 7s26.5 9.66699 28.5 15c4 15.333 6 44.666 6 87.999v378c0 36.667 -2 62.667 -6 78c-2 5.33301 -11.833 11.333 -29.5 18s-30.167 10 -37.5 10c-2.66699 0 -4 6 -4 18c0 10.667 1 17 3 19
c53.333 -3.33301 102.333 -5 147 -5zM242.999 524l-0.00195312 -388.001c0 -43.333 3 -66.666 9 -69.999c14.667 -8.66699 52.334 -13 113.001 -13c56 0 99.333 24 130 72s46 119.667 46 215c0 73.333 -16.167 135.5 -48.5 186.5s-77.166 76.5 -134.499 76.5h-5
c-56.667 0 -89 -5.33301 -97 -16c-8.66699 -12 -13 -33 -13 -63z" />
    <glyph glyph-name="E" unicode="E" horiz-adv-x="598" 
d="M176 659c29.333 0 81.002 0.830078 155.002 2.49707s130 2.5 168 2.5c0.666992 -6.66699 10.334 -56 29.001 -148c-3.33301 -3.33301 -11 -5 -23 -5c-7.33301 0 -12 2.33301 -14 7c-12.667 25.333 -32.667 47 -60 65s-54 27 -80 27h-38c-42 0 -63.667 -4.33301 -65 -13
c-3.33301 -16 -5 -42 -5 -78v-154c0 -4 14.333 -6 43 -6h53c41.333 0 64 1.33301 68 4c3.33301 2.66699 6 12.334 8 29.001c1.33301 10 3.33301 19.667 6 29c0.666992 4.66699 5.66699 7 15 7c11.333 0 18.666 -1.66699 21.999 -5v-189
c-2.66699 -2.66699 -9.66699 -4 -21 -4c-8.66699 0 -14 2.66699 -16 8l-7 24c-2 6.66699 -3.66699 11.667 -5 15s-2.83301 6.33301 -4.5 9s-2.83398 4.33398 -3.50098 5.00098s-2 1.5 -4 2.5s-3.33301 1.83301 -4 2.5c-8.66699 5.33301 -34.667 8 -78 8c-48 0 -72 -3 -72 -9
v-154c0 -32 2.66699 -55.667 8 -71c3.33301 -10.667 26 -16 68 -16h26c41.333 0 78.666 8.66699 111.999 26c11.333 6 24.166 17.333 38.499 34s25.5 35.334 33.5 56.001c0.666992 4 5.33398 6 14.001 6c16 0 26 -2 30 -6c-32.667 -92 -50.667 -149.333 -54 -172
c-34 0 -88 0.666992 -162 2s-134 2 -180 2l-146 -6c-2.66699 2.66699 -4 8.33398 -4 17.001c0 13.333 1.33301 20 4 20c8 0 20.5 2.33301 37.5 7s26.5 9.66699 28.5 15c4 15.333 6 44.666 6 87.999v378c0 36.667 -2 62.667 -6 78c-2 5.33301 -11.833 11.333 -29.5 18
s-30.167 10 -37.5 10c-2.66699 0 -4 6 -4 18c0 10.667 1 17 3 19c53.333 -3.33301 102.333 -5 147 -5z" />
    <glyph glyph-name="F" unicode="F" horiz-adv-x="553" 
d="M176 659c43.333 0 99.333 0.831055 168 2.49805s120.334 2.5 155.001 2.5c0.666992 -6.66699 10.334 -56 29.001 -148c-3.33301 -3.33301 -11 -5 -23 -5c-7.33301 0 -12 2.33301 -14 7c-12.667 25.333 -32.667 47 -60 65s-54 27 -80 27h-38
c-42 0 -63.667 -4.33301 -65 -13c-3.33301 -16 -5 -42 -5 -78v-154c0 -4 14.333 -6 43 -6h53c41.333 0 64 1.33301 68 4c3.33301 2.66699 6 12.334 8 29.001c1.33301 10 3.33301 19.667 6 29c0.666992 4.66699 5.66699 7 15 7c11.333 0 18.666 -1.66699 21.999 -5v-189
c-2.66699 -2.66699 -9.66699 -4 -21 -4c-8.66699 0 -14 2.66699 -16 8l-7 24c-2 6.66699 -3.66699 11.667 -5 15s-2.83301 6.33301 -4.5 9s-2.83398 4.33398 -3.50098 5.00098s-2 1.5 -4 2.5s-3.33301 1.83301 -4 2.5c-8.66699 5.33301 -34.667 8 -78 8c-48 0 -72 -3 -72 -9
v-154c0 -34 2.33301 -61.333 7 -82c2 -8 13 -14.333 33 -19s35 -7 45 -7c2.66699 0 4 -6.33301 4 -19c0 -8 -0.666992 -14 -2 -18c-80 4 -131 6 -153 6l-146 -6c-2.66699 2.66699 -4 8.33398 -4 17.001c0 13.333 1.33301 20 4 20c8 0 20.5 2.33301 37.5 7
s26.5 9.66699 28.5 15c4 15.333 6 44.666 6 87.999v378c0 36.667 -2 62.667 -6 78c-2 5.33301 -11.833 11.333 -29.5 18s-30.167 10 -37.5 10c-2.66699 0 -4 6 -4 18c0 10.667 1 17 3 19c60 -3.33301 109 -5 147 -5z" />
    <glyph glyph-name="G" unicode="G" horiz-adv-x="705" 
d="M25 322c0 94 32.001 175 96.001 243s141.667 102 233 102c72.667 0 149 -9.66699 229 -29c3.33301 -0.666992 8 -25.834 14 -75.501s9 -79.167 9 -88.5c0 -5.33301 -6 -8 -18 -8c-14 0 -24.333 1.66699 -31 5c-3.33301 12.667 -8.66602 25.667 -15.999 39
s-18.333 28.333 -33 45s-35 30.167 -61 40.5s-55.333 15.5 -88 15.5c-120 0 -180 -88.667 -180 -266c0 -50 6.5 -96.5 19.5 -139.5s36 -80.167 69 -111.5s74.167 -47 123.5 -47c29.333 0 50.666 5.33301 63.999 16c7.33301 6 11 16 11 30v63v7c0 34 -2.33301 59.667 -7 77
c-5.33301 18 -27.333 27 -66 27c-2.66699 0 -4.16699 5.5 -4.5 16.5s0.833984 17.833 3.50098 20.5c12 -0.666992 27.833 -1.5 47.5 -2.5s37.667 -1.83301 54 -2.5s32.166 -1 47.499 -1c10 0 55 2 135 6c2 -6 3 -12.667 3 -20c0 -12 -1.33301 -18 -4 -18
c-15.333 0 -33 -5 -53 -15c-10.667 -5.33301 -16 -31.666 -16 -78.999v-58c0 -12 1 -21 3 -27s3 -9.66699 3 -11c0 -11.333 -7 -20.666 -21 -27.999c-24.667 -12.667 -43.834 -21.834 -57.501 -27.501s-38 -12 -73 -19s-74.167 -10.5 -117.5 -10.5
c-88 0 -163 32.833 -225 98.5s-93 143.167 -93 232.5z" />
    <glyph glyph-name="H" unicode="H" horiz-adv-x="727" 
d="M483 138l-0.00292969 167.005l-2 4c-62.667 1.33301 -101.667 2 -117 2c-82.667 -0.666992 -124 -1.66699 -124 -3l2 -2v-164c0 -35.333 2.66699 -63.333 8 -84c1.33301 -4.66699 10.5 -10 27.5 -16s28.5 -9 34.5 -9c2.66699 0 4.16699 -5 4.5 -15s-0.5 -17.333 -2.5 -22
c-3.33301 0 -23.833 1.33301 -61.5 4s-65.167 4 -82.5 4s-42.5 -1.16699 -75.5 -3.5l-64.5 -4.5c-2.66699 2.66699 -4 8.33398 -4 17.001c0 13.333 0.666992 20 2 20c8 0 20.667 2.66699 38 8s27 10.666 29 15.999c4.66699 18 7 45 7 81v382c0 40.667 -2.33301 66.667 -7 78
c-3.33301 7.33301 -12.666 13.666 -27.999 18.999s-27 8 -35 8c-2.66699 0 -4 6.66699 -4 20c0 10 0.666992 15.667 2 17c92 -4 138.333 -6 139 -6c17.333 0 66 2 146 6c2 -3.33301 3 -10.333 3 -21s-1.33301 -16 -4 -16c-6 0 -17.667 -2.83301 -35 -8.5
s-27 -10.834 -29 -15.501c-5.33301 -14 -8 -42.333 -8 -85v-142l2 -3c65.333 -1.33301 105.333 -2 120 -2c18 0 57 0.666992 117 2c1.33301 1.33301 2 2.66602 2 3.99902v145c0 34.667 -2.33301 61 -7 79c-2 5.33301 -11.167 11 -27.5 17s-28.166 9 -35.499 9
c-2.66699 0 -4.16699 5.5 -4.5 16.5s0.833984 17.833 3.50098 20.5c92 -4 141.667 -6 149 -6c10 0 55 2 135 6c2 -6 3 -12 3 -18c0 -12.667 -1.66699 -19 -5 -19c-6 0 -17.667 -2.83301 -35 -8.5s-26.666 -10.834 -27.999 -15.501c-5.33301 -20 -8 -48.333 -8 -85v-374
c0 -36 2.66699 -64.333 8 -85c1.33301 -4.66699 10.5 -9.66699 27.5 -15s28.5 -8 34.5 -8c2.66699 0 4 -7 4 -21c0 -5.33301 -1 -11 -3 -17c-6 0 -25.667 1.33301 -59 4s-58.666 4 -75.999 4c-18 0 -45.167 -1.16699 -81.5 -3.5s-58.833 -3.83301 -67.5 -4.5
c-2.66699 2.66699 -3.83398 9.5 -3.50098 20.5s1.83301 16.5 4.5 16.5c7.33301 0 19.666 3 36.999 9s27 11.667 29 17c4 15.333 6 41.666 6 78.999z" />
    <glyph glyph-name="I" unicode="I" horiz-adv-x="346" 
d="M102 522c0 42.667 -2.66895 68.668 -8.00195 78.001c-3.33301 5.33301 -12.666 10.833 -27.999 16.5s-26.666 8.5 -33.999 8.5c-2.66699 0 -4 5.66699 -4 17c0 12 0.666992 18.667 2 20c10 -0.666992 26 -1.83398 48 -3.50098s38.5 -2.66699 49.5 -3
s26.833 -0.166016 47.5 0.500977c13.333 0 60 2 140 6c2 -6 3 -12 3 -18c0 -12.667 -1.33301 -19 -4 -19c-6 0 -18 -2.83301 -36 -8.5s-27.667 -10.834 -29 -15.501c-2 -8 -3.66699 -19.167 -5 -33.5s-2 -26.5 -2 -36.5v-15v-370c0 -38 2.66699 -67.333 8 -88
c1.33301 -4.66699 10.5 -10 27.5 -16s28.5 -9 34.5 -9c2.66699 0 4 -6.33301 4 -19c0 -8 -0.666992 -14 -2 -18c-4.66699 0 -24.667 1.33301 -60 4s-61.666 4 -78.999 4c-18 0 -44.333 -1.16699 -79 -3.5l-66 -4.5c-2.66699 2.66699 -4 8 -4 16c0 14 1 21 3 21
c7.33301 0 19.666 2.83301 36.999 8.5s27 11.167 29 16.5c4.66699 18 7 44.667 7 80v384z" />
    <glyph glyph-name="J" unicode="J" horiz-adv-x="493" 
d="M324 656c13.333 0 59.999 2.00098 139.999 6.00098c2 -6 3 -12 3 -18c0 -12.667 -1.33301 -19 -4 -19c-6 0 -18 -2.83301 -36 -8.5s-27.667 -10.834 -29 -15.501c-4.66699 -18 -7 -46.333 -7 -85v-373c0 -113.333 -26.5 -201.833 -79.5 -265.5
s-125.167 -95.5 -216.5 -95.5c-22.667 0 -41.667 6 -57 18c-10 16 -15 33.333 -15 52c0 16.667 6.33301 31 19 43s27.334 18 44.001 18c16 0 33.167 -10.167 51.5 -30.5s32.166 -30.5 41.499 -30.5c29.333 0 48.666 23.333 57.999 70s14 117.667 14 213v387
c0 42.667 -2.66699 68.667 -8 78c-3.33301 5.33301 -12.666 10.833 -27.999 16.5s-26.666 8.5 -33.999 8.5c-2.66699 0 -4 5.66699 -4 17c0 12 0.666992 18.667 2 20c92 -4 140.333 -6 145 -6z" />
    <glyph glyph-name="K" unicode="K" horiz-adv-x="741" 
d="M175 656c13.333 0 60.001 2.00098 140.001 6.00098c2 -6 3 -12 3 -18c0 -12.667 -1.33301 -19 -4 -19c-6 0 -18 -2.83301 -36 -8.5s-27.667 -10.834 -29 -15.501c-4.66699 -18 -7 -46.333 -7 -85v-158c0 -2.66699 0.666992 -4.66699 2 -6s2.66602 -2 3.99902 -2h1h7
c4.66699 0 19.334 12.667 44.001 38c57.333 58.667 118 124.667 182 198c5.33301 6.66699 8 14.334 8 23.001c0 6.66699 -7.33301 11.334 -22 14.001s-27.334 4 -38.001 4c-2.66699 0 -4.66699 4.66699 -6 14s-1.33301 16.333 0 21c74 -4 118.667 -6 134 -6c8 0 52 2 132 6
c1.33301 -2.66699 1.83301 -9.16699 1.5 -19.5s-1.5 -15.5 -3.5 -15.5l-6 -1c-4 0 -7.83301 -0.166992 -11.5 -0.5s-8.5 -1 -14.5 -2s-11.667 -2 -17 -3s-11.333 -2.66699 -18 -5s-12.667 -4.83301 -18 -7.5s-10.833 -5.83398 -16.5 -9.50098s-10.5 -7.83398 -14.5 -12.501
l-172 -190c-8.66699 -10 -9 -19.667 -1 -29l237 -309c7.33301 -8.66699 18.833 -15 34.5 -19s27.5 -6 35.5 -6c2.66699 0 4 -6.33301 4 -19c0 -6.66699 -1.33301 -12.667 -4 -18c-0.666992 0 -21.834 1.33301 -63.501 4s-70.834 4 -87.501 4c-36 0 -83.333 -2.66699 -142 -8
c-2.66699 2.66699 -4 9.5 -4 20.5s1.33301 16.5 4 16.5c7.33301 0 17 2 29 6s18 8.66699 18 14c0 21.333 -59.333 99 -178 233c-2 2 -6.66699 3 -14 3c-17.333 0 -26 -5.66699 -26 -17v-126c0 -38 2.66699 -67.333 8 -88c1.33301 -4.66699 10.5 -10 27.5 -16
s28.5 -9 34.5 -9c2.66699 0 4 -6.33301 4 -19c0 -8 -0.666992 -14 -2 -18c-4.66699 0 -24.667 1.33301 -60 4s-61.666 4 -78.999 4c-18 0 -44.333 -1.16699 -79 -3.5l-66 -4.5c-2.66699 2.66699 -4 8 -4 16c0 14 1 21 3 21c7.33301 0 19.666 2.83301 36.999 8.5
s27 11.167 29 16.5c4.66699 18 7 44.667 7 80v384c0 42.667 -2.66699 68.667 -8 78c-3.33301 5.33301 -12.666 10.833 -27.999 16.5s-26.666 8.5 -33.999 8.5c-2.66699 0 -4 5.66699 -4 17c0 12 0.666992 18.667 2 20c92 -4 140.333 -6 145 -6z" />
    <glyph glyph-name="L" unicode="L" horiz-adv-x="598" 
d="M175 656c13.333 0 60.001 2 140.001 6c2 -6 3 -12 3 -18c0 -12.667 -1.33301 -19 -4 -19c-6 0 -18 -2.83301 -36 -8.5s-27.667 -10.834 -29 -15.501c-4.66699 -18 -7 -44.667 -7 -80v-379c0 -32.667 2.66699 -56.667 8 -72c3.33301 -10.667 26 -16 68 -16h26
c41.333 0 78.666 8.66699 111.999 26c11.333 6 24.166 17.333 38.499 34s25.5 35.334 33.5 56.001c1.33301 4 6 6 14 6c16 0 26 -2 30 -6c-32.667 -92 -50.667 -149.333 -54 -172c-38 0 -97.333 0.666992 -178 2s-135.334 2 -164.001 2l-146 -6
c-2.66699 2.66699 -4 8.33398 -4 17.001c0 13.333 1.33301 20 4 20c8 0 20.5 2.33301 37.5 7s26.5 9.66699 28.5 15c4 15.333 6 44.666 6 87.999v382c0 40.667 -2.66699 65.667 -8 75c-3.33301 5.33301 -12.666 10.833 -27.999 16.5s-26.666 8.5 -33.999 8.5
c-2.66699 0 -4 5.66699 -4 17c0 12 0.666992 18.667 2 20c92 -4 140.333 -6 145 -6z" />
    <glyph glyph-name="M" unicode="M" horiz-adv-x="918" 
d="M190 656c13.333 0 32.1719 0.832031 56.5049 2.49902s40.5 2.83398 48.5 3.50098c6.66699 -21.333 34 -84.166 82 -188.499s83.667 -185.5 107 -243.5h2c1.33301 0 2 0.333008 2 1c51.333 127.333 92 232.333 122 315l33 112c12 -1.33301 39 -2 81 -2c4 0 46 2 126 6
c2.66699 -4 4 -9.33301 4 -16c0 -14 -1.66699 -21 -5 -21h-1c-16.667 0 -30.667 -4 -42 -12c-10 -7.33301 -14.667 -21 -14 -41l10 -207c5.33301 -111.333 8.66602 -182.333 9.99902 -213c2 -40.667 7 -71.334 15 -92.001c2.66699 -6 11.5 -12 26.5 -18s25.5 -9 31.5 -9
c2.66699 0 4 -6.66699 4 -20c0 -7.33301 -0.666992 -13 -2 -17c-7.33301 0.666992 -26 2.16699 -56 4.5s-53.667 3.5 -71 3.5c-18 0 -44.333 -1.16699 -79 -3.5l-66 -4.5c-3.33301 3.33301 -5 8.66602 -5 15.999c0 14 1 21 3 21c7.33301 0 18.666 3 33.999 9
s24.666 12.333 27.999 19c5.33301 10 8 19.333 8 28c0 15.333 -0.666992 35 -2 59l-8 254c-2.66699 44.667 -5.33398 67 -8.00098 67c-1.33301 0 -3 -2.33301 -5 -7l-173 -431c-2.66699 -6.66699 -8 -13.834 -16 -21.501s-16 -11.5 -24 -11.5c-2 0 -5 0.666992 -9 2
l-220 494l-17 -385c0 -19.333 0.333008 -31.333 1 -36c2 -8.66699 16.667 -17.5 44 -26.5s45.333 -13.5 54 -13.5c2.66699 0 4 -6.66699 4 -20c0 -7.33301 -0.666992 -13 -2 -17c-5.33301 0 -25.333 1.33301 -60 4s-60.667 4 -78 4s-41.333 -1.16699 -72 -3.5
s-51.334 -3.83301 -62.001 -4.5c-2.66699 2.66699 -4 8.33398 -4 17.001c0 12.667 1 19 3 19c12 0 31.5 5 58.5 15s41.167 22 42.5 36l4 48c2 34.667 4.33301 85.834 7 153.501s5 132.834 7 195.501s3.33301 98.334 4 107.001c0 7.33301 -1 13.333 -3 18
c-2 5.33301 -12.667 10.166 -32 14.499s-33.333 6.5 -42 6.5c-2.66699 0 -4 7 -4 21c0 7.33301 1.33301 12.333 4 15c9.33301 -0.666992 26.5 -1.83398 51.5 -3.50098s46.167 -2.5 63.5 -2.5z" />
    <glyph glyph-name="N" unicode="N" horiz-adv-x="777" 
d="M585 524c0 38 -4.33398 61.998 -13.001 71.998c-6 7.33301 -18.5 14 -37.5 20s-32.5 9 -40.5 9c-2.66699 0 -4.33398 5.5 -5.00098 16.5s0 17.833 2 20.5c61.333 -5.33301 105.333 -8 132 -8c16.667 0 39.5 1.16699 68.5 3.5l55.5 4.5c2.66699 -5.33301 4 -11.333 4 -18
c0 -12.667 -1.66699 -19 -5 -19c-36.667 0 -64.334 -11 -83.001 -33c-9.33301 -11.333 -14 -35.666 -14 -72.999v-380c0 -24 1.33301 -70.667 4 -140c-2.66699 -2.66699 -11 -4 -25 -4c-8 0 -18.333 7.66699 -31 23l-407 506v-383c0 -36.667 2.66699 -60.334 8 -71.001
c6 -11.333 20 -20.166 42 -26.499s38 -9.5 48 -9.5c2 0 3.16699 -5.66699 3.5 -17s-0.166992 -18.333 -1.5 -21c-6 0 -25.667 1.33301 -59 4s-58.666 4 -75.999 4s-39.333 -1.16699 -66 -3.5s-46 -3.83301 -58 -4.5c-2 2 -3 8 -3 18c0 12.667 1 19 3 19
c6.66699 0 14.334 0.666992 23.001 2s19.667 5.16602 33 11.499s23 14.5 29 24.5c6.66699 10.667 10 35 10 73v393c0 34.667 -5 58.334 -15 71.001c-3.33301 4.66699 -15 8.66699 -35 12s-34.667 5 -44 5c-2.66699 0 -4.33398 5.5 -5.00098 16.5s0.333008 17.833 3 20.5
c10.667 -0.666992 31.834 -2.16699 63.501 -4.5s56.167 -3.5 73.5 -3.5c22.667 0 55.334 2.66699 98.001 8c11.333 -22.667 33.5 -55.5 66.5 -98.5l127.5 -159.5c52 -63.333 93.333 -115.333 124 -156c1.33301 4.66699 2 18.334 2 41.001v235z" />
    <glyph glyph-name="O" unicode="O" horiz-adv-x="695" 
d="M331 611c-35.333 0 -64.665 -12.832 -87.998 -38.499s-39.5 -57.167 -48.5 -94.5s-13.5 -80 -13.5 -128c0 -34 3.16699 -67.5 9.5 -100.5s16 -65.333 29 -97s31.833 -57.334 56.5 -77.001s53.334 -29.5 86.001 -29.5c50 0 87.5 25.333 112.5 76s37.5 113 37.5 187
c0 36.667 -2.83301 71.5 -8.5 104.5s-14.834 65 -27.501 96s-31.334 55.667 -56.001 74s-54.334 27.5 -89.001 27.5zM25.001 328.001c0 93.333 31.5 173.166 94.5 239.499s138.5 99.5 226.5 99.5s163.667 -33.167 227 -99.5s95 -146.166 95 -239.499s-31.667 -173 -95 -239
s-139 -99 -227 -99s-163.5 33 -226.5 99s-94.5 145.667 -94.5 239z" />
    <glyph glyph-name="P" unicode="P" horiz-adv-x="572" 
d="M176 659c19.333 0 40.501 0.5 63.501 1.5s44.5 1.5 64.5 1.5c39.333 0 76.333 -5.33301 111 -16s65 -30.5 91 -59.5s39 -64.833 39 -107.5c0 -54 -20.833 -100.667 -62.5 -140s-92.167 -59 -151.5 -59c-10.667 0 -21.334 1.66699 -32.001 5s-18.667 6.5 -24 9.5
s-8.66602 5.5 -9.99902 7.5c-2.66699 4 -4.33398 11.333 -5.00098 22s0.666016 16 3.99902 16c8.66699 -5.33301 23.667 -8 45 -8c56 0 84 45.333 84 136c0 91.333 -30.667 137 -92 137c-23.333 0 -38.666 -2.66699 -45.999 -8c-8 -6 -12 -38.667 -12 -98v-358
c0 -34 2.33301 -61.333 7 -82c2 -8 13 -14.333 33 -19s35 -7 45 -7c2.66699 0 4 -6.33301 4 -19c0 -8 -0.666992 -14 -2 -18c-80 4 -131 6 -153 6l-146 -6c-2.66699 2.66699 -4 8.33398 -4 17.001c0 13.333 1.33301 20 4 20c8 0 20.5 2.33301 37.5 7s26.5 9.66699 28.5 15
c4 15.333 6 44.666 6 87.999v378c0 36.667 -2 62.667 -6 78c-2 5.33301 -11.833 11.333 -29.5 18s-30.167 10 -37.5 10c-2.66699 0 -4 6 -4 18c0 10.667 1 17 3 19c60 -3.33301 109 -5 147 -5z" />
    <glyph glyph-name="Q" unicode="Q" horiz-adv-x="775" 
d="M329 603c-52 0 -89.998 -23.667 -113.998 -71s-36 -108 -36 -182c0 -33.333 3.16699 -66.5 9.5 -99.5s16 -65 29 -96s31.833 -56 56.5 -75s53.334 -28.5 86.001 -28.5c50 0 87.5 24.5 112.5 73.5s37.5 110.5 37.5 184.5c0 36.667 -2.83301 71 -8.5 103
s-14.834 63 -27.501 93s-31.334 53.833 -56.001 71.5s-54.334 26.5 -89.001 26.5zM662.002 -74c12 0 23.6719 0.828125 35.0049 2.49512s20.666 3.33398 27.999 5.00098s11.666 2.5 12.999 2.5c8 0 12 -6.66699 12 -20v-5c-28.667 -15.333 -61.334 -28.166 -98.001 -38.499
s-69.667 -15.5 -99 -15.5c-32 0 -64.333 9.33301 -97 28s-66.834 40.334 -102.501 65.001s-67.5 41.334 -95.5 50.001c-24 7.33301 -48.667 19.666 -74 36.999s-50.333 39.333 -75 66s-44.834 59.834 -60.501 99.501s-23.5 81.5 -23.5 125.5
c0 93.333 31.167 173.166 93.5 239.499s137.5 99.5 225.5 99.5s163.333 -33.167 226 -99.5s94 -146.166 94 -239.499c0 -85.333 -24.5 -158 -73.5 -218s-99.167 -95 -150.5 -105c17.333 -8 37.166 -18.333 59.499 -31s39 -21.667 50 -27s26.333 -10.166 46 -14.499
s41.834 -6.5 66.501 -6.5z" />
    <glyph glyph-name="R" unicode="R" horiz-adv-x="709" 
d="M301 605c-23.333 0 -38.667 -2.66602 -46 -7.99902s-11.333 -38 -12 -98v-108c0 -10 1.16699 -18 3.5 -24s5.83301 -10.333 10.5 -13s9 -4.33398 13 -5.00098s9 -1 15 -1h27c26 0 46.167 11.333 60.5 34s21.5 52.667 21.5 90c0 88.667 -31 133 -93 133zM315.999 660.001
c22.667 0 46.332 -2.83203 70.999 -8.49902s49.334 -14.5 74.001 -26.5s45 -29.5 61 -52.5s24 -49.833 24 -80.5c0 -44.667 -13 -83.667 -39 -117s-54 -55 -84 -65c-5.33301 -2 -6.33301 -5.66699 -3 -11l37.5 -61.5c10.333 -16.333 22.666 -34.333 36.999 -54l34.5 -48.5
c16.667 -24.667 38.5 -47.834 65.5 -69.501s53.167 -32.5 78.5 -32.5c2.66699 -3.33301 4 -9.33301 4 -18c0 -7.33301 -1.33301 -14 -4 -20c-9.33301 -1.33301 -21 -2 -35 -2c-32.667 0 -62.5 3.16699 -89.5 9.5s-48.667 13.5 -65 21.5s-32.666 20 -48.999 36
s-28.5 29.333 -36.5 40s-18.667 26.334 -32 47.001l-26 41l-25.5 39.5l-20.5 30.5c-7.33301 10.667 -13.5 18.667 -18.5 24s-9.16699 8.66602 -12.5 9.99902c-2 0.666992 -5.66699 1 -11 1c-6 0 -9 -5.33301 -9 -16v-136c0 -34 2.33301 -61.333 7 -82
c2 -8 13 -14.333 33 -19s35 -7 45 -7c2.66699 0 4 -6.33301 4 -19c0 -8 -0.666992 -14 -2 -18c-80 4 -131 6 -153 6l-146 -6c-2.66699 2.66699 -4 8.33398 -4 17.001c0 13.333 1.33301 20 4 20c8 0 20.5 2.33301 37.5 7s26.5 9.66699 28.5 15c4 15.333 6 44.666 6 87.999
v378c0 36.667 -2 62.667 -6 78c-2 5.33301 -11.833 11.333 -29.5 18s-30.167 10 -37.5 10c-2.66699 0 -4 6 -4 18c0 10.667 1 17 3 19c61.333 -3.33301 110.333 -5 147 -5c18 0 40.833 0.166992 68.5 0.5s51.5 0.5 71.5 0.5z" />
    <glyph glyph-name="S" unicode="S" horiz-adv-x="483" 
d="M31 489c0 50 22.166 92.667 66.499 128s93.166 53 146.499 53c14 0 28.5 -1 43.5 -3s27.667 -4 38 -6s24.666 -5.16699 42.999 -9.5s32.833 -7.5 43.5 -9.5c7.33301 -64.667 11 -120 11 -166c-2.66699 -6.66699 -7.66699 -10 -15 -10
c-19.333 0 -29.666 2.33301 -30.999 7c-4.66699 33.333 -19 65.166 -43 95.499s-53.667 45.5 -89 45.5c-22.667 0 -41.834 -7 -57.501 -21s-23.5 -36.333 -23.5 -67c0 -13.333 3.33301 -26.333 10 -39s17.834 -25.667 33.501 -39s28.5 -23.333 38.5 -30l49 -32
c6 -4 10.667 -7 14 -9l33 -20c16.667 -10 28.5 -17.5 35.5 -22.5s16.667 -13.167 29 -24.5s21.333 -22.5 27 -33.5s10.834 -25.333 15.501 -43s7 -37.167 7 -58.5c0 -53.333 -22 -97.5 -66 -132.5s-94.667 -52.5 -152 -52.5c-52.667 0 -116 8.66699 -190 26
c-5.33301 21.333 -10.5 50.5 -15.5 87.5s-7.5 63.167 -7.5 78.5c2 6.66699 8 10 18 10c20.667 0 31.334 -2 32.001 -6c5.33301 -30.667 22 -61.5 50 -92.5s59 -46.5 93 -46.5c66 0 99 36.333 99 109c0 11.333 -3 22.5 -9 33.5s-15 21.833 -27 32.5
s-22.667 19.334 -32 26.001s-22.5 15.334 -39.5 26.001s-27.833 17.667 -32.5 21c-3.33301 2 -8.33301 5.33301 -15 10c-22 14.667 -38.667 26.334 -50 35.001s-24.5 20.667 -39.5 36s-25.667 32.166 -32 50.499s-9.5 39.166 -9.5 62.499z" />
    <glyph glyph-name="T" unicode="T" horiz-adv-x="665" 
d="M331 657c28 0 64.6689 1.00098 110.002 3.00098s82 3 110 3c16.667 0 39.667 3.66699 69 11l19 -164c-4.66699 -4.66699 -14.334 -7 -29.001 -7c-6 0 -9.33301 1.66699 -10 5c-16.667 66 -52.334 99 -107.001 99c-54 0 -82.333 -6 -85 -18
c-5.33301 -18.667 -8 -48.334 -8 -89.001v-361c0 -33.333 2.66699 -60.333 8 -81c1.33301 -4.66699 10.5 -10 27.5 -16s28.5 -9 34.5 -9c2.66699 0 4 -6.33301 4 -19c0 -8 -0.666992 -14 -2 -18c-4.66699 0 -24.667 1.33301 -60 4s-61.666 4 -78.999 4
c-18 0 -44.333 -1.16699 -79 -3.5l-66 -4.5c-2.66699 2.66699 -4 8 -4 16c0 14 1 21 3 21c7.33301 0 19.666 2.83301 36.999 8.5s27 11.167 29 16.5c4.66699 18 7 43.667 7 77v362c0 52 -2.66699 82.667 -8 92c-2 4 -3.83301 6.83301 -5.5 8.5s-8.83398 3.66699 -21.501 6
s-31 3.5 -55 3.5c-27.333 0 -49.666 -7.5 -66.999 -22.5s-30.666 -40.167 -39.999 -75.5c-0.666992 -3.33301 -4 -5 -10 -5c-14.667 0 -24.334 2.33301 -29.001 7l19 163c29.333 -7.33301 52.333 -11 69 -11c28 0 64.5 -1 109.5 -3s81.5 -3 109.5 -3z" />
    <glyph glyph-name="U" unicode="U" horiz-adv-x="753" 
d="M171 656c13.333 0 59.999 1.99902 139.999 5.99902c2 -6 3 -12 3 -18c0 -12.667 -1.33301 -19 -4 -19c-6 0 -18 -2.83301 -36 -8.5s-27.667 -10.834 -29 -15.501c-4.66699 -18 -7 -46.333 -7 -85v-237c0 -61.333 13.833 -110.666 41.5 -147.999s65.167 -56 112.5 -56
c49.333 0 89.833 16.167 121.5 48.5s47.5 86.5 47.5 162.5v238c0 38 -4.33301 62 -13 72c-6 7.33301 -18.5 14 -37.5 20s-32.5 9 -40.5 9c-2.66699 0 -4.33398 5.5 -5.00098 16.5s0 17.833 2 20.5c61.333 -5.33301 105.333 -8 132 -8c16.667 0 39.5 1.16699 68.5 3.5
l55.5 4.5c2.66699 -5.33301 4 -11.333 4 -18c0 -12.667 -1.66699 -19 -5 -19c-36.667 0 -64.334 -11 -83.001 -33c-9.33301 -11.333 -14 -35.666 -14 -72.999v-228c0 -97.333 -23.833 -171 -71.5 -221s-109.5 -75 -185.5 -75c-81.333 0 -146.666 25.333 -195.999 76
s-74 130.667 -74 240v211c0 42.667 -2.66699 68.667 -8 78c-3.33301 5.33301 -12.666 10.833 -27.999 16.5s-26.666 8.5 -33.999 8.5c-2.66699 0 -4 5.66699 -4 17c0 12 0.666992 18.667 2 20c92 -4 140.333 -6 145 -6z" />
    <glyph glyph-name="V" unicode="V" horiz-adv-x="729" 
d="M162 654c4.66699 0 54.998 2.66602 150.998 7.99902c2.66699 -2.66699 4 -9.5 4 -20.5s-1.33301 -16.5 -4 -16.5c-11.333 0 -25.166 -3 -41.499 -9s-24.5 -15 -24.5 -27c0 -6 7.66699 -28 23 -66l134 -330l141 329c13.333 30 20 52.667 20 68
c0 10 -6.83301 18.333 -20.5 25s-30.5 10 -50.5 10c-2 0.666992 -3 6 -3 16s0.666992 17 2 21c9.33301 -0.666992 26.5 -2.16699 51.5 -4.5s45.833 -3.5 62.5 -3.5s37 1.16699 61 3.5s42.333 3.83301 55 4.5c2.66699 -2.66699 4 -7.66699 4 -15c0 -14 -0.666992 -21 -2 -21
c-7.33301 0 -19 -2.83301 -35 -8.5s-29 -12.5 -39 -20.5c-5.33301 -4.66699 -18 -29 -38 -73l-216 -497c-5.33301 -11.333 -12.166 -20.333 -20.499 -27s-15.833 -10 -22.5 -10c-9.33301 0 -17 4.33301 -23 13l-205 507c-20 50 -31 77.333 -33 82
c-4 10.667 -14.833 18.834 -32.5 24.501s-31.167 8.5 -40.5 8.5c-2.66699 0 -4 5.66699 -4 17s0.666992 18 2 20c3.33301 0 23.833 -1.33301 61.5 -4s65.167 -4 82.5 -4z" />
    <glyph glyph-name="W" unicode="W" horiz-adv-x="1094" 
d="M146 656c10.667 0 56.0039 1.99707 136.004 5.99707c1.33301 -4 2.16602 -11 2.49902 -21s-0.5 -15.333 -2.5 -16c-30.667 0 -46 -11.333 -46 -34l12 -31l184 -365c3.33301 -7.33301 8.33301 -5.66602 15 5.00098l62 110l-110 217c-20.667 40.667 -35 65 -43 73
c-16.667 16.667 -36 25 -58 25c-2.66699 0 -4 6.33301 -4 19c0 10.667 0.666992 16.667 2 18c92 -4 138.333 -6 139 -6c8 0 52 2 132 6c1.33301 -4 2.16602 -11 2.49902 -21s-0.5 -15.333 -2.5 -16c-10.667 0 -21 -2.5 -31 -7.5s-15 -13.167 -15 -24.5l12 -31l58 -115l48 95
c13.333 27.333 20 44.666 20 51.999c0 8.66699 -5.83301 15.5 -17.5 20.5s-22.334 8.16699 -32.001 9.5s-17.834 2 -24.501 2c-2.66699 0 -4.16699 5.33301 -4.5 16s0.833984 17.334 3.50098 20.001c64 -4 103.667 -6 119 -6c3.33301 0 45 2 125 6
c1.33301 -4 2.16602 -10.833 2.49902 -20.5s-0.5 -14.834 -2.5 -15.501c-10 0 -23 -3.16699 -39 -9.5s-27.333 -13.166 -34 -20.499c-18 -19.333 -36.667 -48 -56 -86l-70 -138l87 -171c3.33301 -6.66699 7.66602 -5.33398 12.999 3.99902l171 339c12 24 18 40.667 18 50
c0 11.333 -8.83301 19.5 -26.5 24.5s-32.5 7.5 -44.5 7.5c-2.66699 0 -4.16699 5.33301 -4.5 16s0.833984 17.334 3.50098 20.001c64 -4 103.667 -6 119 -6c3.33301 0 45 2 125 6c2 -5.33301 3 -13.666 3 -24.999c0 -7.33301 -1 -11 -3 -11c-10 0 -22.667 -3 -38 -9
s-26.333 -12.333 -33 -19c-18.667 -20 -38 -49.333 -58 -88l-247 -491c-10.667 -21.333 -22 -32 -34 -32c-5.33301 0 -9 1.66699 -11 5l-123 241l-120 -214c-12 -21.333 -23.333 -32 -34 -32c-4 0 -7 1.66699 -9 5l-271 535c-18 35.333 -33.333 61 -46 77
c-5.33301 6.66699 -14.5 11.834 -27.5 15.501s-23.833 5.5 -32.5 5.5c-2.66699 0 -4 6.33301 -4 19c0 10.667 0.666992 16.667 2 18c92 -4 139.333 -6 142 -6z" />
    <glyph glyph-name="X" unicode="X" horiz-adv-x="768" 
d="M212 656c16 0 63.9951 2.00098 143.995 6.00098c1.33301 -2.66699 1.83301 -9.5 1.5 -20.5s-1.5 -16.5 -3.5 -16.5c-10 0 -21.167 -1.83301 -33.5 -5.5s-18.833 -8.83398 -19.5 -15.501c0 -6.66699 2.66699 -14 8 -22l111 -168l33 40.5l36 44.5l31 39.5
c10.667 13.667 18.834 25.334 24.501 35.001s8.5 16.5 8.5 20.5c0 8 -7.83301 15.167 -23.5 21.5s-32.5 9.5 -50.5 9.5c-2.66699 0 -4.16699 5.5 -4.5 16.5s0.833984 17.833 3.50098 20.5c74 -4 115.333 -6 124 -6s53 2 133 6c2 -3.33301 3 -10.333 3 -21
s-1.33301 -16 -4 -16c-9.33301 0 -23.666 -3 -42.999 -9s-34.666 -16 -45.999 -30l-187 -230c114.667 -172.667 178 -266 190 -280c12.667 -14.667 27.834 -25.5 45.501 -32.5s30.834 -10.5 39.501 -10.5c2 0 3 -7.33301 3 -22c0 -6 -1 -11 -3 -15c-80 4 -128.667 6 -146 6
c-22 0 -52.333 -1 -91 -3s-61 -3 -67 -3c-2.66699 2.66699 -3.66699 9.5 -3 20.5s2.33398 16.5 5.00098 16.5c8.66699 0 20.167 2.66699 34.5 8s21.5 12 21.5 20c0 4 -1 7.66699 -3 11l-130 197c-93.333 -124 -140 -191.667 -140 -203c0 -10 8 -18 24 -24s32.667 -9 50 -9
c3.33301 0 5 -7 5 -21c0 -8 -0.666992 -13.333 -2 -16c-66 4 -110 6 -132 6c-5.33301 0 -48 -2 -128 -6c-2.66699 8 -4 12.667 -4 14c0 15.333 1.33301 23 4 23c8.66699 0 23.667 3.16699 45 9.5s35.666 14.5 42.999 24.5l193 265l-134 205
c-28 43.333 -46 67.666 -54 72.999c-14 10 -31.667 15 -53 15c-2.66699 0 -4 5.5 -4 16.5s1.33301 17.833 4 20.5c4 0 23.667 -1 59 -3s62.666 -3 81.999 -3z" />
    <glyph glyph-name="Y" unicode="Y" horiz-adv-x="669" 
d="M177 656c15.333 0 62.998 1.99805 142.998 5.99805c1.33301 -2.66699 1.83301 -9.5 1.5 -20.5s-1.5 -16.5 -3.5 -16.5c-10 0 -21.167 -1.83301 -33.5 -5.5s-18.833 -8.83398 -19.5 -15.501c0 -5.33301 2.66699 -12.666 8 -21.999l100 -177
c3.33301 -3.33301 6.66602 -2.66602 9.99902 2.00098c19.333 28 42.333 65 69 111s40 74.333 40 85c0 14.667 -21.333 22 -64 22c-2.66699 0 -4.16699 5.5 -4.5 16.5s0.833984 17.833 3.50098 20.5c60 -4 100.333 -6 121 -6c17.333 0 55 2 113 6c2 -6 3 -12 3 -18
c0 -12 -1.33301 -18 -4 -18c-12 0 -25.667 -3 -41 -9s-27.666 -15 -36.999 -27c-17.333 -23.333 -50.833 -74.666 -100.5 -153.999s-74.5 -123.333 -74.5 -132v-159c0 -37.333 2.66699 -66.333 8 -87c1.33301 -4.66699 10.5 -10 27.5 -16s28.5 -9 34.5 -9
c2.66699 0 4 -6.33301 4 -19c0 -8 -0.666992 -14 -2 -18c-4.66699 0 -24.667 1.33301 -60 4s-61.666 4 -78.999 4c-18 0 -44.333 -1.16699 -79 -3.5l-66 -4.5c-2.66699 2.66699 -4 8 -4 16c0 14 1 21 3 21c7.33301 0 19.666 2.83301 36.999 8.5s27 11.167 29 16.5
c4.66699 18 7 45 7 81v170c0 4.66699 -10.5 26 -31.5 64l-62.5 111l-31 53c-22 40.667 -40 65 -54 73c-16.667 10 -34.334 15 -53.001 15c-2.66699 0 -4 5.5 -4 16.5s1.33301 17.833 4 20.5c11.333 -0.666992 26.333 -1.5 45 -2.5s35.834 -1.83301 51.501 -2.5
s30.834 -1 45.501 -1z" />
    <glyph glyph-name="Z" unicode="Z" horiz-adv-x="635" 
d="M237 656l108.998 0.000976562c61.333 0 138.666 3.33301 231.999 10c2 -0.666992 4.16699 -5 6.5 -13s3.5 -14.667 3.5 -20l-365 -551c-4.66699 -6.66699 -7 -11.667 -7 -15c0 -6.66699 4.66699 -10 14 -10h159c46.667 0 84.834 11.167 114.501 33.5
s50.167 50.166 61.5 83.499c2 4 6.33301 6 13 6c16 0 26.333 -2 31 -6l-16.5 -47l-16.5 -48c-4 -12 -8.16699 -25.5 -12.5 -40.5s-7.16602 -27.833 -8.49902 -38.5h-517c-5.33301 6 -8 14.667 -8 26c0 8 1.33301 13.667 4 17l368 556h-171c-24 0 -43.833 -2.33301 -59.5 -7
s-28.5 -13 -38.5 -25s-16.833 -21.833 -20.5 -29.5s-9.16699 -21.167 -16.5 -40.5c-2 -6 -3.66699 -10.333 -5 -13c-1.33301 -4 -5.66602 -6 -12.999 -6c-19.333 0 -30.333 1.33301 -33 4c16 84.667 26 144.667 30 180c16 -4 70 -6 162 -6z" />
    <glyph glyph-name="bracketleft" unicode="[" horiz-adv-x="310" 
d="M53 770c74 0 150.334 7.66504 229.001 22.998c4 0 6 -5 6 -15c0 -14 -3.33301 -22.667 -10 -26c-15.333 -8 -34.666 -15.333 -57.999 -22s-41.333 -10 -54 -10c-6 0 -9 -3 -9 -9v-763c0 -5.33301 2.66699 -8 8 -8c11.333 0 28.666 -3.16699 51.999 -9.5
s43.666 -13.833 60.999 -22.5c6.66699 -3.33301 10 -11.666 10 -24.999c0 -9.33301 -2 -14.666 -6 -15.999c-90.667 15.333 -167 23 -229 23c-12.667 0 -19 7.66699 -19 23v834c0 15.333 6.33301 23 19 23z" />
    <glyph glyph-name="backslash" unicode="\" horiz-adv-x="413" 
d="M391 -6c0 -12 -3.83301 -20.5 -11.5 -25.5s-14.834 -7.5 -21.501 -7.5l-24 2l-313 792c4.66699 4 11.667 6 21 6c32.667 0 52.334 -7.33301 59.001 -22l287 -726c2 -4 3 -10.333 3 -19z" />
    <glyph glyph-name="bracketright" unicode="]" horiz-adv-x="310" 
d="M21 -117c0 13.333 3.33398 21.668 10.001 25.001c17.333 8.66699 37.666 16.167 60.999 22.5s40.666 9.5 51.999 9.5c5.33301 0 8 2.66699 8 8v763c0 6 -3 9 -9 9c-12.667 0 -30.667 3.33301 -54 10s-42.666 14 -57.999 22c-6.66699 3.33301 -10 12 -10 26
c0 10 2 15 6 15c78.667 -15.333 155 -23 229 -23c12.667 0 19 -7.66699 19 -23v-834c0 -15.333 -6.33301 -23 -19 -23c-62 0 -138.333 -7.66699 -229 -23c-4 1.33301 -6 6.66602 -6 15.999z" />
    <glyph glyph-name="asciicircum" unicode="^" horiz-adv-x="388" 
d="M347 469c-8.66699 0 -28.502 12.1641 -59.502 36.4971s-57.833 49.833 -80.5 76.5c-20.667 -26.667 -46.5 -52.167 -77.5 -76.5s-51.167 -36.5 -60.5 -36.5c-2.66699 0 -5.16699 2.5 -7.5 7.5s-3.83301 10.167 -4.5 15.5l-1 7c0.666992 2 9 10.5 25 25.5
s35 36.167 57 63.5s40.333 57 55 89c0.666992 1.33301 1.33398 3.16602 2.00098 5.49902s1.16699 3.83301 1.5 4.5s1 1.33398 2 2.00098s2.5 1 4.5 1c6 0 10.833 -1.83301 14.5 -5.5s6.83398 -8.66699 9.50098 -15s8.66699 -17.166 18 -32.499s20.333 -31.666 33 -48.999
c6.66699 -8.66699 16.667 -20 30 -34l35.5 -36.5c10.333 -10.333 15.833 -16.166 16.5 -17.499c0 -4 -1.33301 -10.167 -4 -18.5s-5.66699 -12.5 -9 -12.5z" />
    <glyph glyph-name="underscore" unicode="_" horiz-adv-x="529" 
d="M30 -33c3.33301 30.667 8.33301 46 15 46h449c2.66699 0 4 -1.66699 4 -5c0 -5.33301 -3.33301 -20.333 -10 -45c-0.666992 -2 -1.5 -3.5 -2.5 -4.5s-1.83301 -1.5 -2.5 -1.5h-1h-445c-4.66699 0 -7 3.33301 -7 10z" />
    <glyph glyph-name="grave" unicode="`" horiz-adv-x="247" 
d="M42 658c0 6 3.83496 12.332 11.502 18.999s19.167 10 34.5 10c16.667 0 28 -3 34 -9c11.333 -13.333 24.666 -31 39.999 -53s28 -41.167 38 -57.5s15 -25.5 15 -27.5c0 -3.33301 -2 -7.16602 -6 -11.499s-7.66699 -6.5 -11 -6.5c-8.66699 0 -36.834 18.5 -84.501 55.5
s-71.5 63.833 -71.5 80.5z" />
    <glyph glyph-name="a" unicode="a" horiz-adv-x="486" 
d="M211 65c17.333 0 30.833 4.16797 40.5 12.501s14.5 18.5 14.5 30.5v101c-1.33301 -0.666992 -7.83301 -2.83398 -19.5 -6.50098s-19.167 -6.16699 -22.5 -7.5l-19 -7.5c-9.33301 -3.66699 -15.833 -7 -19.5 -10l-13.5 -11.5c-5.33301 -4.66699 -9 -9.66699 -11 -15
s-3 -11.333 -3 -18c0 -24 5.16699 -41.333 15.5 -52s22.833 -16 37.5 -16zM251 449.001c46.667 0 82.5029 -12.8311 107.503 -38.498s37.5 -72.167 37.5 -139.5v-162c0 -22.667 8 -34 24 -34c11.333 0 22.666 4.33301 33.999 13c4.66699 -2.66699 7 -7.66699 7 -15
c0 -16.667 -2.33301 -29 -7 -37c-9.33301 -8.66699 -24.5 -17.834 -45.5 -27.501s-40.833 -14.5 -59.5 -14.5c-16 0 -31.333 4.83301 -46 14.5s-24.334 20.834 -29.001 33.501c-0.666992 0 -3.33398 -1.83301 -8.00098 -5.5s-10.667 -7.83398 -18 -12.501
s-15.833 -9.33398 -25.5 -14.001s-21.167 -8.66699 -34.5 -12s-26.666 -5 -39.999 -5c-36.667 0 -65.834 10.167 -87.501 30.5s-32.5 45.833 -32.5 76.5c0 18 4.16699 34.5 12.5 49.5s18 27.333 29 37s25.833 18.667 44.5 27s34.667 14.666 48 18.999s30.5 9.33301 51.5 15
s35.5 9.83398 43.5 12.501c6 2 9 7 9 15v36c0 54.667 -16.667 82 -50 82c-38.667 0 -58 -22.333 -58 -67c0 -14.667 -6 -25.5 -18 -32.5s-25.333 -10.5 -40 -10.5c-30.667 0 -51.667 10 -63 30c0 34 22.5 65.167 67.5 93.5s93.833 42.5 146.5 42.5z" />
    <glyph glyph-name="b" unicode="b" horiz-adv-x="564" 
d="M320 447c60 0 111.664 -21.4971 154.997 -64.4971s65 -95.167 65 -156.5c0 -66.667 -22.833 -122.334 -68.5 -167.001s-101.167 -67 -166.5 -67c-31.333 0 -56.333 3 -75 9s-36.667 9 -54 9c-6.66699 0 -17 -3.16699 -31 -9.5s-22 -9.5 -24 -9.5
s-7.83301 3.16699 -17.5 9.5s-14.5 11.166 -14.5 14.499c0 2 0.666992 8 2 18s2.66602 23.5 3.99902 40.5s2 35.167 2 54.5v403c0 28 -2 52 -6 72c-3.33301 10.667 -20.666 16 -51.999 16h-9c-4 0 -6 6.66699 -6 20c0 11.333 2 17 6 17c20.667 2 41.5 4.66699 62.5 8
s38.833 6.66602 53.5 9.99902s27.834 6.66602 39.501 9.99902l27.5 8l10 3h2c2.66699 0 5.33398 -2 8.00098 -6s4.33398 -7.66699 5.00098 -11c-7.33301 -30 -11 -63.667 -11 -101v-146v-5c0 -1.33301 0.166992 -3.16602 0.5 -5.49902s1 -3.5 2 -3.5s2.16699 0.333008 3.5 1
c24 19.333 53 29 87 29zM308.997 386.003c-26 0 -46.166 -7.33301 -60.499 -22s-21.5 -30 -21.5 -46v-189c0 -26.667 7.66699 -47.167 23 -61.5s34.666 -21.5 57.999 -21.5c30 0 52.167 13.5 66.5 40.5s21.5 62.5 21.5 106.5c0 128.667 -29 193 -87 193z" />
    <glyph glyph-name="c" unicode="c" 
d="M265 447c28.667 0 55.5 -4.33008 80.5 -12.9971s42.5 -16.834 52.5 -24.501s17.667 -14.834 23 -21.501c0 -61.333 -18 -92 -54 -92c-26 0 -45.667 16.667 -59 50c-6 15.333 -13.5 26.833 -22.5 34.5s-21.5 11.5 -37.5 11.5c-53.333 0 -80 -50 -80 -150
c0 -112.667 37.667 -169 113 -169c22 0 43 3.16699 63 9.5s34 12 42 17s18.667 12.5 32 22.5c6 -2.66699 9 -9 9 -19c0 -8 -1.33301 -14.667 -4 -20c-6.66699 -16.667 -26.5 -35.834 -59.5 -57.501s-70.167 -32.5 -111.5 -32.5c-64 0 -117.667 22.5 -161 67.5
s-65 100.167 -65 165.5c0 61.333 23.167 113.5 69.5 156.5s102.833 64.5 169.5 64.5z" />
    <glyph glyph-name="d" unicode="d" horiz-adv-x="554" 
d="M252 393c-31.333 0 -54.166 -12.499 -68.499 -37.499s-21.5 -64.833 -21.5 -119.5c0 -120.667 30 -181 90 -181c22.667 0 41.5 6.5 56.5 19.5s22.5 28.833 22.5 47.5v182c0 8 -0.666992 15.667 -2 23s-4.33301 16.666 -9 27.999s-12.834 20.5 -24.501 27.5
s-26.167 10.5 -43.5 10.5zM258 447.001c27.333 0 50.6611 -2.99902 69.9941 -8.99902c2 0 3 4.66699 3 14v79c0 28 -2 52 -6 72c-3.33301 10.667 -20.666 16 -51.999 16h-9c-4 0 -6 6.66699 -6 20c0 11.333 2 17 6 17c20.667 2 41.5 4.66699 62.5 8
s38.833 6.66602 53.5 9.99902s27.834 6.66602 39.501 9.99902l27.5 8l10 3h2c2.66699 0 5.33398 -2 8.00098 -6s4.33398 -7.66699 5.00098 -11c-7.33301 -30 -11 -63.667 -11 -101v-430c0 -28.667 2 -52.667 6 -72c1.33301 -4.66699 5 -8.33398 11 -11.001
s12.333 -4.33398 19 -5.00098s13 -1 19 -1l10 -1c2 -0.666992 3 -4.66699 3 -12c0 -16.667 -2 -25 -6 -25c-10 -0.666992 -23.167 -2 -39.5 -4s-32.666 -4.16699 -48.999 -6.5s-31.833 -4.66602 -46.5 -6.99902s-26.667 -4.5 -36 -6.5l-15 -2c-4 0 -6 5.66699 -6 17v21
c0 2.66699 -0.333008 4.33398 -1 5.00098s-1.66699 0.333984 -3 -0.999023c-28 -28 -61.667 -42 -101 -42c-54 0 -102.167 20.167 -144.5 60.5s-63.5 92.833 -63.5 157.5c0 66.667 22.833 122.5 68.5 167.5s102.834 67.5 171.501 67.5z" />
    <glyph glyph-name="e" unicode="e" 
d="M238 392c-26 0 -45 -12.5 -57 -37.5s-18 -49.5 -18 -73.5c0 -4 2.33301 -6 7 -6h127c9.33301 0 14 6.33301 14 19c0 25.333 -6.83301 48 -20.5 68s-31.167 30 -52.5 30zM243 447c60 0 108.165 -20.834 144.498 -62.501s54.5 -84.167 54.5 -127.5
c0 -15.333 -3.16699 -25.333 -9.5 -30s-18.833 -7 -37.5 -7h-226c-4 0 -6 -2.33301 -6 -7c0 -36 10.167 -68.333 30.5 -97s49.5 -43 87.5 -43c22 0 43 3.16699 63 9.5s34 12 42 17s18.667 12.5 32 22.5c6 -2.66699 9 -9 9 -19c0 -8 -1.33301 -14.667 -4 -20
c-6.66699 -16 -26.667 -35 -60 -57s-70.666 -33 -111.999 -33c-61.333 0 -114.166 22.333 -158.499 67s-66.5 98.334 -66.5 161.001c0 64 20 117.667 60 161s92.333 65 157 65z" />
    <glyph glyph-name="f" unicode="f" horiz-adv-x="380" 
d="M336 696c29.333 0 54.8369 -3.33203 76.5039 -9.99902s35.167 -14.667 40.5 -24c2 -12.667 3 -26.167 3 -40.5s-4.33301 -27.333 -13 -39s-21 -17.5 -37 -17.5c-14 0 -26.167 5.83301 -36.5 17.5l-30 34.5c-9.66699 11.333 -20.834 17 -33.501 17
c-21.333 0 -37 -15.333 -47 -46s-15 -68.334 -15 -113.001v-41c0 -3.33301 1.66699 -5 5 -5h111c3.33301 0 5 -2.33301 5 -7c0 -18.667 -4 -36 -12 -52h-103c-4 0 -6 -2 -6 -6v-215c0 -42.667 2.33301 -73 7 -91c1.33301 -4.66699 10.666 -10 27.999 -16s29 -9 35 -9
c2 0 3.16699 -5.5 3.5 -16.5s-0.166992 -17.833 -1.5 -20.5c-7.33301 0.666992 -28.166 2.16699 -62.499 4.5s-59.166 3.5 -74.499 3.5c-16 0 -41 -1.16699 -75 -3.5s-54.667 -3.83301 -62 -4.5c-2.66699 2.66699 -4 9.5 -4 20.5s1.33301 16.5 4 16.5
c7.33301 0 19.666 3 36.999 9s26.666 11.333 27.999 16c4.66699 20 7 45.333 7 76v229c0 4.66699 -1.66699 7 -5 7h-67c-2 0 -3 2 -3 6c0 8.66699 4.16699 19.834 12.5 33.501s18.166 20.5 29.499 20.5h28c3.33301 0 5 2 5 6v7c0 69.333 21.167 128.666 63.5 177.999
s95.166 74.333 158.499 75z" />
    <glyph glyph-name="g" unicode="g" horiz-adv-x="485" 
d="M337 -81c0 30 -56.001 44.999 -168.001 44.999c-2 -0.666992 -3.33301 -1 -4 -1c-22 -7.33301 -35.333 -14.666 -40 -21.999c-4.66699 -6 -7 -15 -7 -27c0 -20 10.5 -36.833 31.5 -50.5s44.5 -20.5 70.5 -20.5c34.667 0 62.834 6.33301 84.501 19s32.5 31.667 32.5 57z
M164.999 293.999c0 -17.333 0.668945 -32.167 2.00195 -44.5s3.66602 -25 6.99902 -38s9 -22.833 17 -29.5s18.333 -10 31 -10s22.834 2.5 30.501 7.5s13 12.833 16 23.5s5 20.5 6 29.5s1.5 20.833 1.5 35.5c0 42.667 -4 74.667 -12 96s-24 32 -48 32
c-12 0 -21.833 -3 -29.5 -9s-12.834 -15 -15.501 -27s-4.33398 -21.833 -5.00098 -29.5s-1 -18.167 -1 -31.5v-5zM223.001 448.998c24 0 52.1699 -4.33301 84.5029 -13s58.166 -13 77.499 -13h55c2 -0.666992 5.66699 -6.66699 11 -18s8 -19.333 8 -24
c0 -9.33301 -2 -14 -6 -14h-59c-2.66699 -0.666992 -4 -1.66699 -4 -3c0 -0.666992 2.5 -9.83398 7.5 -27.501s7.5 -34.167 7.5 -49.5c0 -42 -17 -80.333 -51 -115s-76.667 -52 -128 -52c-26.667 0 -49.334 1.66699 -68.001 5c-8 -2.66699 -14 -7.16699 -18 -13.5
s-6 -11.833 -6 -16.5s3.33301 -8.5 10 -11.5s16.834 -5.33301 30.501 -7s25.667 -3 36 -4s25.166 -1.83301 44.499 -2.5s31.666 -1 36.999 -1c106.667 -5.33301 160.334 -40.333 161.001 -105c0.666992 -48.667 -25.666 -91.167 -78.999 -127.5s-110.333 -54.5 -171 -54.5
c-50.667 0 -93.334 10 -128.001 30s-52 46.667 -52 80c0 14.667 7.83301 30.334 23.5 47.001s35.167 28.667 58.5 36c-17.333 7.33301 -33 19.166 -47 35.499s-21 34.166 -21 53.499c0 8.66699 2.33301 17 7 25s12.167 15.833 22.5 23.5s17.666 12.834 21.999 15.501
s12.5 7.33398 24.5 14.001c-19.333 10.667 -37 29.5 -53 56.5s-24 54.833 -24 83.5c0 54.667 18.167 96.167 54.5 124.5s80.5 42.5 132.5 42.5z" />
    <glyph glyph-name="h" unicode="h" horiz-adv-x="622" 
d="M386 446c38.667 0 70.1631 -16.3301 94.4961 -48.9971s36.5 -82.334 36.5 -149.001v-99c0 -42.667 2.33301 -73 7 -91c1.33301 -4.66699 10.666 -10 27.999 -16s29 -9 35 -9c2 0 3.16699 -5.5 3.5 -16.5s-0.166992 -17.833 -1.5 -20.5
c-7.33301 0.666992 -28.166 2.16699 -62.499 4.5s-59.166 3.5 -74.499 3.5c-16 0 -40.167 -1.16699 -72.5 -3.5s-52.5 -3.83301 -60.5 -4.5c-2.66699 2.66699 -4 9.5 -4 20.5s1.33301 16.5 4 16.5c7.33301 0 19 3 35 9s24.667 11.333 26 16c4.66699 20 7 45.333 7 76v90
c0 49.333 -6.66699 84.5 -20 105.5s-35 31.5 -65 31.5c-46.667 0 -70 -14.667 -70 -44v-168c0 -42.667 2.33301 -73 7 -91c1.33301 -4.66699 10.166 -10 26.499 -16s27.166 -9 32.499 -9c2 0 3.16699 -5.5 3.5 -16.5s-0.166992 -17.833 -1.5 -20.5
c-8 0.666992 -28.333 2.16699 -61 4.5s-56.667 3.5 -72 3.5c-16 0 -41 -1.16699 -75 -3.5s-54.667 -3.83301 -62 -4.5c-2.66699 2.66699 -4 9.5 -4 20.5s1.33301 16.5 4 16.5c7.33301 0 19.666 3 36.999 9s26.666 11.333 27.999 16c4.66699 20 7 45.333 7 76v397
c0 31.333 -1.66699 55.333 -5 72c-3.33301 10.667 -20.666 16 -51.999 16h-9c-4 0 -6 6.66699 -6 20c0 11.333 2 17 6 17c20.667 2 41.5 4.66699 62.5 8s38.833 6.66602 53.5 9.99902s27.834 6.66602 39.501 9.99902l27.5 8l10 3h2c2.66699 0 5.33398 -2 8.00098 -6
s4.33398 -7.66699 5.00098 -11c-8 -30 -12 -63.667 -12 -101v-186c0 -4.66699 1.33301 -7 4 -7c0.666992 0 2.33398 1.33301 5.00098 4c14.667 16.667 35.334 30.5 62.001 41.5s54.334 16.5 83.001 16.5z" />
    <glyph glyph-name="i" unicode="i" horiz-adv-x="326" 
d="M84 616c0 20.667 7.33301 38.167 22 52.5s32.167 21.5 52.5 21.5s37.666 -7.16699 51.999 -21.5s21.5 -31.833 21.5 -52.5s-7.16699 -38.167 -21.5 -52.5s-31.666 -21.5 -51.999 -21.5s-37.833 7.16699 -52.5 21.5s-22 31.833 -22 52.5zM232 149
c0 -42.667 2.33398 -72.998 7.00098 -90.998c1.33301 -4.66699 10.833 -10 28.5 -16s29.167 -9 34.5 -9c2.66699 0 4 -5.5 4 -16.5s-0.666992 -17.833 -2 -20.5c-6.66699 0.666992 -27.334 2.16699 -62.001 4.5s-59.667 3.5 -75 3.5c-16 0 -40.833 -1.16699 -74.5 -3.5
s-54.5 -3.83301 -62.5 -4.5c-2 2.66699 -3 9.5 -3 20.5s1 16.5 3 16.5c8 0 20.5 3 37.5 9s26.167 11.333 27.5 16c4.66699 20 7 45.333 7 76v137c0 37.333 -6 62.333 -18 75c-4.66699 5.33301 -11.5 9.66602 -20.5 12.999s-17 5.66602 -24 6.99902s-10.5 2.33301 -10.5 3
c0 23.333 1.66699 35 5 35c13.333 0 42.5 4.5 87.5 13.5s76.833 16.5 95.5 22.5c0.666992 0 2.66699 0.5 6 1.5l5 1.5c4 0 7.5 -2.16699 10.5 -6.5s4.5 -7.83301 4.5 -10.5c-0.666992 -5.33301 -2 -15.333 -4 -30s-3.66699 -27.5 -5 -38.5s-2 -21.5 -2 -31.5v-177z" />
    <glyph glyph-name="j" unicode="j" horiz-adv-x="294" 
d="M126 271c0 37.333 -6.00293 62.3369 -18.0029 75.0039c-4.66699 5.33301 -11.5 9.66602 -20.5 12.999s-16.833 5.66602 -23.5 6.99902s-10 2.33301 -10 3c0 23.333 1.33301 35 4 35c12.667 0 41.834 4.5 87.501 13.5s77.834 16.5 96.501 22.5l5 2l5 1
c4 0 7.66699 -2.16699 11 -6.5s5 -7.83301 5 -10.5c-0.666992 -6.66699 -2.16699 -16.834 -4.5 -30.501s-4.16602 -26.167 -5.49902 -37.5s-2 -22 -2 -32v-206c0 -98 -16 -172 -48 -222c-16 -25.333 -44.167 -51 -84.5 -77s-68.5 -39 -84.5 -39c-10.667 6 -16 14 -16 24
c0 6 0.333008 9.33301 1 10l13 6.5c3.33301 1.66699 11.333 9.5 24 23.5s23 30.167 31 48.5s15.667 45.666 23 81.999s11 77.5 11 123.5v171zM108.997 616.004c0 20.667 7.16699 38.167 21.5 52.5s31.833 21.5 52.5 21.5s38.167 -7.16699 52.5 -21.5
s21.5 -31.833 21.5 -52.5s-7.16699 -38.167 -21.5 -52.5s-31.833 -21.5 -52.5 -21.5s-38.167 7.16699 -52.5 21.5s-21.5 31.833 -21.5 52.5z" />
    <glyph glyph-name="k" unicode="k" horiz-adv-x="646" 
d="M489 382c-47.333 -27.333 -93.0029 -63.666 -137.003 -108.999l75 -84l76.5 -87c20.333 -22.667 34.5 -37 42.5 -43c8.66699 -7.33301 20 -13.5 34 -18.5s24 -7.5 30 -7.5c3.33301 0 5 -6.33301 5 -19c0 -8.66699 -0.666992 -14.334 -2 -17.001c-80 4 -122 6 -126 6
c-16 0 -41.333 -1.16699 -76 -3.5s-53.667 -3.5 -57 -3.5c-2.66699 2.66699 -4 9.5 -4 20.5s1.33301 16.5 4 16.5c6.66699 0 14.334 1.33301 23.001 4s13 5.66699 13 9c0 1.33301 -0.333008 2.33301 -1 3l-146 167l-11 -3v-64c0 -42.667 2.33301 -73 7 -91
c1.33301 -4.66699 10.666 -10 27.999 -16s29 -9 35 -9c2 0 3.16699 -5.5 3.5 -16.5s-0.166992 -17.833 -1.5 -20.5c-7.33301 0.666992 -28.166 2.16699 -62.499 4.5s-59.166 3.5 -74.499 3.5c-16 0 -41 -1.16699 -75 -3.5s-54.667 -3.83301 -62 -4.5
c-2.66699 2.66699 -4 9.5 -4 20.5s1.33301 16.5 4 16.5c7.33301 0 19.666 3 36.999 9s26.666 11.333 27.999 16c4.66699 20 7 45.333 7 76v397c0 31.333 -1.66699 55.333 -5 72c-3.33301 10.667 -20.666 16 -51.999 16h-9c-4 0 -6 6.66699 -6 20c0 11.333 2 17 6 17
c20.667 2 41.5 4.66699 62.5 8s38.833 6.66602 53.5 9.99902s27.834 6.66602 39.501 9.99902l27.5 8l10 3h2c2.66699 0 5.33398 -2 8.00098 -6s4.33398 -7.66699 5.00098 -11c-8 -30 -12 -63.667 -12 -101v-318c18 4.66699 29.333 9 34 13l34.5 29.5l28 24l21 18
c7.66699 6.33301 13.167 11.333 16.5 15l10 11c3.33301 3.66699 5.5 7 6.5 10s1.5 5.83301 1.5 8.5c0 6 -3.33301 10 -10 12s-14 3.16699 -22 3.5s-12.667 0.833008 -14 1.5c-1.33301 4.66699 -2 11.667 -2 21s1.33301 14.333 4 15c48 -0.666992 86 -1 114 -1
c39.333 0 74 0.666992 104 2c2.66699 -1.33301 4.16699 -5.16602 4.5 -11.499s0.166016 -12.166 -0.500977 -17.499s-1.66699 -8 -3 -8c-20.667 0 -44 -7.66699 -70 -23z" />
    <glyph glyph-name="l" unicode="l" horiz-adv-x="334" 
d="M102 531c0 31.333 -1.66992 55.335 -5.00293 72.002c-3.33301 10.667 -20.666 16 -51.999 16h-9c-4 0 -6 6.66699 -6 20c0 11.333 2 17 6 17c20.667 2 41.5 4.66699 62.5 8s38.833 6.66602 53.5 9.99902s27.834 6.66602 39.501 9.99902l27.5 8l10 3h2
c2.66699 0 5.33398 -2 8.00098 -6s4.33398 -7.66699 5.00098 -11c-7.33301 -30 -11 -63.667 -11 -101l-1 -428c0 -42.667 2.33301 -73 7 -91c1.33301 -4.66699 10.666 -10 27.999 -16s29 -9 35 -9c2 0 3.16699 -5.5 3.5 -16.5s-0.166992 -17.833 -1.5 -20.5
c-7.33301 0.666992 -28.166 2.16699 -62.499 4.5s-59.166 3.5 -74.499 3.5c-16 0 -41 -1.16699 -75 -3.5s-54.667 -3.83301 -62 -4.5c-2.66699 2.66699 -4 9.5 -4 20.5s1.33301 16.5 4 16.5c7.33301 0 19.666 3 36.999 9s26.666 11.333 27.999 16c4.66699 20 7 45.333 7 76
v397z" />
    <glyph glyph-name="m" unicode="m" horiz-adv-x="888" 
d="M387 446c48 0 83.3398 -22.998 106.007 -68.998c41.333 45.333 101.333 68.333 180 69c38.667 0 70.167 -16.333 94.5 -49s36.5 -82.334 36.5 -149.001v-99c0 -42.667 2.33301 -73 7 -91c1.33301 -4.66699 10.333 -10 27 -16s28 -9 34 -9c2 0 3.16699 -5.5 3.5 -16.5
s-0.166992 -17.833 -1.5 -20.5c-7.33301 0.666992 -27.833 2.16699 -61.5 4.5s-58.167 3.5 -73.5 3.5c-16 0 -40.5 -1.16699 -73.5 -3.5s-53.5 -3.83301 -61.5 -4.5c-2.66699 2.66699 -4 9.5 -4 20.5s1.33301 16.5 4 16.5c7.33301 0 19.333 3 36 9s25.667 11.333 27 16
c4.66699 20 7 45.333 7 76v90c0 46 -6.83301 80.333 -20.5 103s-35.5 34 -65.5 34c-37.333 0 -60.666 -12.667 -69.999 -38c-2 -5.33301 -2.66699 -12.333 -2 -21c1.33301 -12 2 -30 2 -54v-99c0 -42.667 2.33301 -73 7 -91c1.33301 -4.66699 10.333 -10 27 -16s28 -9 34 -9
c2 0 3.16699 -5.5 3.5 -16.5s-0.166992 -17.833 -1.5 -20.5c-7.33301 0.666992 -27.833 2.16699 -61.5 4.5s-58.167 3.5 -73.5 3.5c-16 0 -40.5 -1.16699 -73.5 -3.5s-53.5 -3.83301 -61.5 -4.5c-2.66699 2.66699 -4 9.5 -4 20.5s1.33301 16.5 4 16.5
c7.33301 0 19.333 3 36 9s25.667 11.333 27 16c4.66699 20 7 45.333 7 76v90c0 49.333 -6.83301 84.5 -20.5 105.5s-35.5 31.5 -65.5 31.5c-20.667 0 -37.334 -3.83301 -50.001 -11.5s-19 -18.5 -19 -32.5v-168c0 -42.667 2.33301 -73 7 -91
c1.33301 -4.66699 10.166 -10 26.499 -16s27.166 -9 32.499 -9c2 0 3.16699 -5.5 3.5 -16.5s-0.166992 -17.833 -1.5 -20.5c-8 0.666992 -28.333 2.16699 -61 4.5s-56.667 3.5 -72 3.5c-16 0 -41 -1.16699 -75 -3.5s-54.667 -3.83301 -62 -4.5
c-2.66699 2.66699 -4 9.5 -4 20.5s1.33301 16.5 4 16.5c7.33301 0 19.666 3 36.999 9s26.666 11.333 27.999 16c4.66699 20 7 45.333 7 76v137c0 37.333 -6 62.333 -18 75c-4.66699 5.33301 -11.667 9.66602 -21 12.999s-17.333 5.66602 -24 6.99902s-10 2.33301 -10 3
c0 23.333 1.66699 35 5 35c8 0 21.333 1.83301 40 5.5s43 8.83398 73 15.501s53.333 11.667 70 15c1.33301 0 2.83301 0.333008 4.5 1s3.16699 1 4.5 1l2 1c3.33301 0 6.66602 -2.16699 9.99902 -6.5s5 -7.83301 5 -10.5c-2.66699 -18.667 -4 -29 -4 -31
c0 -3.33301 0.333008 -5.33301 1 -6c1.33301 0 3.66602 1.66699 6.99902 5c37.333 34.667 83.666 52 138.999 52z" />
    <glyph glyph-name="n" unicode="n" horiz-adv-x="622" 
d="M387 446c38.667 0 70.1738 -16.3311 94.5068 -48.998s36.5 -82.334 36.5 -149.001v-99c0 -42.667 2.33301 -73 7 -91c1.33301 -4.66699 10.666 -10 27.999 -16s29 -9 35 -9c2 0 3.16699 -5.5 3.5 -16.5s-0.166992 -17.833 -1.5 -20.5
c-7.33301 0.666992 -28.166 2.16699 -62.499 4.5s-59.166 3.5 -74.499 3.5c-16 0 -40.167 -1.16699 -72.5 -3.5s-52.5 -3.83301 -60.5 -4.5c-2.66699 2.66699 -4 9.5 -4 20.5s1.33301 16.5 4 16.5c7.33301 0 19 3 35 9s24.667 11.333 26 16c4.66699 20 7 45.333 7 76v90
c0 49.333 -6.83301 84.5 -20.5 105.5s-35.5 31.5 -65.5 31.5c-20.667 0 -37.334 -3.83301 -50.001 -11.5s-19 -18.5 -19 -32.5v-168c0 -42.667 2.33301 -73 7 -91c1.33301 -4.66699 10.166 -10 26.499 -16s27.166 -9 32.499 -9c2 0 3.16699 -5.5 3.5 -16.5
s-0.166992 -17.833 -1.5 -20.5c-8 0.666992 -28.333 2.16699 -61 4.5s-56.667 3.5 -72 3.5c-16 0 -41 -1.16699 -75 -3.5s-54.667 -3.83301 -62 -4.5c-2.66699 2.66699 -4 9.5 -4 20.5s1.33301 16.5 4 16.5c7.33301 0 19.666 3 36.999 9s26.666 11.333 27.999 16
c4.66699 20 7 45.333 7 76v137c0 37.333 -6 62.333 -18 75c-4.66699 5.33301 -11.667 9.66602 -21 12.999s-17.333 5.66602 -24 6.99902s-10 2.33301 -10 3c0 23.333 1.66699 35 5 35c8 0 21.333 1.83301 40 5.5s43 8.83398 73 15.501s53.333 11.667 70 15
c1.33301 0 2.83301 0.333008 4.5 1s3.16699 1 4.5 1l2 1c3.33301 0 6.66602 -2.16699 9.99902 -6.5s5 -7.83301 5 -10.5c-2.66699 -18.667 -4 -29 -4 -31c0 -3.33301 0.333008 -5.33301 1 -6c1.33301 0 3.66602 1.66699 6.99902 5c37.333 34.667 83.666 52 138.999 52z" />
    <glyph glyph-name="o" unicode="o" horiz-adv-x="523" 
d="M247 392c-19.333 0 -35.333 -7.66699 -48 -23s-21 -32.833 -25 -52.5s-6 -41.5 -6 -65.5c0 -135.333 34.333 -203 103 -203c28 0 48.5 13.667 61.5 41s19.5 59.333 19.5 96c0 138 -35 207 -105 207zM261 447c65.333 0 120.833 -22 166.5 -66s68.5 -97.667 68.5 -161
s-22.667 -117 -68 -161s-101 -66 -167 -66c-65.333 0 -120.833 22 -166.5 66s-68.5 97.667 -68.5 161s22.833 117 68.5 161s101.167 66 166.5 66z" />
    <glyph glyph-name="p" unicode="p" horiz-adv-x="567" 
d="M322 446c63.333 0 115.833 -21.998 157.5 -65.998s62.5 -95 62.5 -153c0 -74 -23.667 -131.667 -71 -173s-107 -62 -179 -62c-8 0 -16.5 0.666992 -25.5 2s-16.5 2.83301 -22.5 4.5s-9.33301 2.5 -10 2.5c-2.66699 0 -4 -5.33301 -4 -16v-50c0 -42.667 2.33301 -73 7 -91
c1.33301 -4.66699 10.666 -10 27.999 -16s29 -9 35 -9c2 0 3.16699 -5.5 3.5 -16.5s-0.166992 -17.833 -1.5 -20.5c-7.33301 0.666992 -28.166 2.16699 -62.499 4.5s-59.166 3.5 -74.499 3.5c-16 0 -41 -1.16699 -75 -3.5s-54.667 -3.83301 -62 -4.5
c-2.66699 2.66699 -4 9.5 -4 20.5s1.33301 16.5 4 16.5c7.33301 0 19.666 3 36.999 9s26.666 11.333 27.999 16c4.66699 20 7 45.333 7 76v351c0 37.333 -6 62.333 -18 75c-4.66699 5.33301 -11.667 9.66602 -21 12.999s-17.333 5.66602 -24 6.99902s-10 2.33301 -10 3
c0 23.333 1.66699 35 5 35c40.667 0 94.334 9.66699 161.001 29c20.667 6.66699 31.667 10 33 10c4 0 6 -4.33301 6 -13c0 -4 -0.666992 -10 -2 -18c29.333 22.667 60 34 92 34zM307 388.002c-23.333 0 -42.001 -7 -56.001 -21s-21 -31.667 -21 -53v-189
c0 -25.333 8.33301 -44.833 25 -58.5s34.334 -20.5 53.001 -20.5c60 0 90 49.333 90 148c0 129.333 -30.333 194 -91 194z" />
    <glyph glyph-name="q" unicode="q" horiz-adv-x="516" 
d="M266 447c28.667 0 53.335 -2.99805 74.002 -8.99805s39 -9 55 -9c5.33301 0 14.833 3.16699 28.5 9.5s21.167 9.5 22.5 9.5c2.66699 0 9 -3.16699 19 -9.5s15 -11.166 15 -14.499c0 -0.666992 -0.333008 -2.83398 -1 -6.50098s-1.33398 -8.83398 -2.00098 -15.501
s-1.5 -14.334 -2.5 -23.001s-1.83301 -19.5 -2.5 -32.5s-1 -26.167 -1 -39.5v-372c0 -42.667 2.33301 -73 7 -91c1.33301 -4.66699 10.666 -10 27.999 -16s29 -9 35 -9c2 0 3.16699 -5.5 3.5 -16.5s-0.166992 -17.833 -1.5 -20.5
c-7.33301 0.666992 -28.166 2.16699 -62.499 4.5s-59.166 3.5 -74.499 3.5c-16 0 -41 -1.16699 -75 -3.5s-54.667 -3.83301 -62 -4.5c-2.66699 2.66699 -4 9.5 -4 20.5s1.33301 16.5 4 16.5c7.33301 0 19.666 3 36.999 9s26.666 11.333 27.999 16c4.66699 20 7 45.333 7 76
v88c0 9.33301 -1.33301 14 -4 14c-0.666992 0 -1.33398 -0.333008 -2.00098 -1c-26.667 -19.333 -57 -29 -91 -29c-55.333 0 -105.166 21 -149.499 63s-66.5 94.667 -66.5 158c0 68 23.167 124 69.5 168s102.5 66 168.5 66zM259.001 393.002c-58 0 -87 -49.668 -87 -149.001
c0 -25.333 1 -47.333 3 -66s5.83301 -38.167 11.5 -58.5s15 -36.166 28 -47.499s29.5 -17 49.5 -17s37.833 5.83301 53.5 17.5s23.5 26.167 23.5 43.5v186c0 60.667 -27.333 91 -82 91z" />
    <glyph glyph-name="r" unicode="r" horiz-adv-x="465" 
d="M352 447c29.333 0 58.002 -12.332 86.002 -36.999c0 -34.667 -4.16699 -60.334 -12.5 -77.001s-23.5 -25 -45.5 -25c-13.333 0 -28.666 7.66699 -45.999 23s-32.666 23 -45.999 23c-20 0 -34.167 -11.167 -42.5 -33.5s-12.5 -46.166 -12.5 -71.499v-101
c0 -42 2.33301 -72 7 -90c1.33301 -4.66699 10.166 -10 26.499 -16s27.166 -9 32.499 -9c2 0 3.16699 -5.5 3.5 -16.5s-0.166992 -17.833 -1.5 -20.5c-8 0.666992 -28.333 2.16699 -61 4.5s-56.667 3.5 -72 3.5c-16 0 -41 -1.16699 -75 -3.5s-54.667 -3.83301 -62 -4.5
c-2.66699 2.66699 -4 9.5 -4 20.5s1.33301 16.5 4 16.5c7.33301 0 19.666 3 36.999 9s26.666 11.333 27.999 16c4.66699 20 7 45.333 7 76v137c0 37.333 -6 62.333 -18 75c-4.66699 5.33301 -11.667 9.66602 -21 12.999s-17.333 5.66602 -24 6.99902s-10 2.33301 -10 3
c0 23.333 1.66699 35 5 35c8 0 21.333 1.83301 40 5.5s43 8.83398 73 15.501s53.333 11.667 70 15c6.66699 2 10.334 3 11.001 3c3.33301 0 6.66602 -2.16699 9.99902 -6.5s5 -7.83301 5 -10.5c-1.33301 -8 -2.33301 -16.667 -3 -26s-1.33398 -15.333 -2.00098 -18
c32.667 43.333 70.334 65 113.001 65z" />
    <glyph glyph-name="s" unicode="s" horiz-adv-x="384" 
d="M200 449c58.667 0 101.999 -6.66699 129.999 -20c6.66699 -30.667 10 -72 10 -124c0 -6 -4.33301 -9 -13 -9c-20.667 0 -31.667 2.66699 -33 8c-6 28 -16.167 50 -30.5 66s-37.166 24 -68.499 24c-14.667 0 -26.667 -3.5 -36 -10.5s-14 -17.167 -14 -30.5
c0 -15.333 6.66699 -28.5 20 -39.5s33 -22.833 59 -35.5c18 -8.66699 32.167 -16 42.5 -22s24 -15.5 41 -28.5s29.667 -28.167 38 -45.5s12.5 -36.666 12.5 -57.999c0 -44 -16.833 -77.333 -50.5 -100s-76.5 -34 -128.5 -34c-23.333 0 -49.333 3.66699 -78 11
s-49.334 16.333 -62.001 27c-8 46 -12 86.667 -12 122c2.66699 2 7.66699 3 15 3c21.333 0 32.333 -3 33 -9c11.333 -66 47.333 -99 108 -99c16 0 29.333 3.66699 40 11s16 17.666 16 30.999c0 16.667 -7.16699 30.667 -21.5 42s-40.166 26.333 -77.499 45
c-38.667 18.667 -67.334 39.167 -86.001 61.5s-28 49.833 -28 82.5c0 45.333 17.333 78.5 52 99.5s75.334 31.5 122.001 31.5z" />
    <glyph glyph-name="t" unicode="t" horiz-adv-x="374" 
d="M97 370l-65.002 -0.000976562c-5.33301 0 -8 10.333 -8 31c0 5.33301 0.666992 9 2 11c37.333 18.667 67.333 36.667 90 54c10 7.33301 21.667 16.833 35 28.5l34.5 30c9.66699 8.33301 14.834 12.833 15.501 13.5c5.33301 0 11 -1.16699 17 -3.5s9 -4.83301 9 -7.5v-98
h108c5.33301 0 8 -3.33301 8 -10c0 -19.333 -3.33301 -35.666 -10 -48.999h-106v-237c0 -50.667 18 -76 54 -76c10 0 19.167 1.16699 27.5 3.5s14.833 4.83301 19.5 7.5s7.33398 4 8.00098 4c2.66699 0 5.5 -3.33301 8.5 -10s4.5 -11.667 4.5 -15c0 -8 -13.667 -19 -41 -33
s-53 -21 -77 -21c-36.667 0 -68.167 11.5 -94.5 34.5s-39.5 60.167 -39.5 111.5v231z" />
    <glyph glyph-name="u" unicode="u" horiz-adv-x="599" 
d="M512 327l0.00390625 -196c0 -34.667 3.33301 -55.667 10 -63c3.33301 -3.33301 8.66602 -5.83301 15.999 -7.5s14.666 -2.5 21.999 -2.5h10c2.66699 -1.33301 4 -4 4 -8c0 -19.333 -2 -29 -6 -29c-10 -0.666992 -23 -2 -39 -4s-32 -4.16699 -48 -6.5
s-31.167 -4.66602 -45.5 -6.99902s-26.166 -4.16602 -35.499 -5.49902l-14 -3c-4 0 -6 6 -6 18v37c0 2.66699 -0.333008 4.33398 -1 5.00098s-1.66699 0.333984 -3 -0.999023c-14 -14.667 -34.5 -28 -61.5 -40s-56.167 -18 -87.5 -18c-39.333 0 -70.833 17.333 -94.5 52
s-35.5 76.667 -35.5 126v97c0 37.333 -6 62.333 -18 75c-4.66699 5.33301 -11.667 9.66602 -21 12.999s-17.333 5.66602 -24 6.99902s-10 2.33301 -10 3c0 23.333 1.66699 35 5 35c12.667 0 41.667 4.5 87 13.5s77.333 16.5 96 22.5l5 2c3.33301 0.666992 5.33301 1 6 1
c3.33301 0 6.66602 -2.16699 9.99902 -6.5s5 -7.83301 5 -10.5c-7.33301 -58.667 -11 -92 -11 -100v-107c0 -52 6.66699 -88.5 20 -109.5s35.666 -31.5 66.999 -31.5c22.667 0 39.667 5.16699 51 15.5s17 21.833 17 34.5v143c0 37.333 -6 62.333 -18 75
c-4.66699 5.33301 -11.667 9.66602 -21 12.999s-17.333 5.66602 -24 6.99902s-10 2.33301 -10 3c0 23.333 1.66699 35 5 35c12.667 0 41.667 4.5 87 13.5s77.333 16.5 96 22.5c0.666992 0 2.66699 0.666992 6 2l5 1c3.33301 0 6.66602 -2.16699 9.99902 -6.5
s5 -7.83301 5 -10.5c-7.33301 -58.667 -11 -91.667 -11 -99z" />
    <glyph glyph-name="v" unicode="v" horiz-adv-x="597" 
d="M402 385c-14 14 -35.998 21.001 -65.998 21.001c-2 0.666992 -3 6 -3 16s0.666992 17 2 21c10 -0.666992 28.167 -2.16699 54.5 -4.5s46.833 -3.5 61.5 -3.5c16 0 36.5 1.16699 61.5 3.5s42.833 3.83301 53.5 4.5c2.66699 -2.66699 4 -8.33398 4 -17.001
c0 -13.333 -1.33301 -20 -4 -20c-10 0 -24 -3.5 -42 -10.5s-30.333 -16.833 -37 -29.5l-176 -348c-10 -19.333 -20 -29 -30 -29c-8 0 -13.333 2.66699 -16 8l-166 374c-5.33301 12.667 -15.833 21.667 -31.5 27s-28.5 8 -38.5 8c-2.66699 0 -4 6.66699 -4 20
c0 8 1.33301 13.667 4 17c7.33301 -0.666992 28.166 -2.16699 62.499 -4.5s59.166 -3.5 74.499 -3.5c16.667 0 43.167 1.33301 79.5 4s57.5 4 63.5 4c2.66699 -2.66699 4 -9.5 4 -20.5s-1.33301 -16.5 -4 -16.5c-10 0 -23.833 -2.66699 -41.5 -8
s-26.5 -11.666 -26.5 -18.999l2 -15l79 -188l79 166c10 19.333 10.333 33.666 1 42.999z" />
    <glyph glyph-name="w" unicode="w" horiz-adv-x="880" 
d="M689 363c0 14.667 -8.66504 25.3389 -25.998 32.0059s-34.666 10 -51.999 10h-4c-2.66699 0 -4.33398 5.66699 -5.00098 17s0.333008 18.333 3 21c9.33301 -0.666992 29.833 -2.33398 61.5 -5.00098s55.167 -4 70.5 -4c14 0 33.667 1.33301 59 4
s43.333 4.33398 54 5.00098c2 -6 3 -12.667 3 -20c0 -11.333 -1.33301 -17 -4 -17c-7.33301 0 -22 -5.16699 -44 -15.5s-35.667 -21.5 -41 -33.5l-165 -347c-2 -4.66699 -6.83301 -9.33398 -14.5 -14.001s-15.167 -7 -22.5 -7c-6.66699 0 -11.667 3.66699 -15 11l-119 258
l-114 -247c-2 -4.66699 -6.33301 -9.5 -13 -14.5s-15 -7.5 -25 -7.5c-6.66699 0 -12 3.66699 -16 11l-169 372c-4.66699 9.33301 -14.334 17.166 -29.001 23.499s-26 9.5 -34 9.5c-2.66699 0 -4 6.33301 -4 19c0 10.667 1 17 3 19c8 -0.666992 27.833 -2.16699 59.5 -4.5
s55.5 -3.5 71.5 -3.5c14.667 0 40.167 1.33301 76.5 4s57.166 4 62.499 4c1.33301 -4 2.16602 -10.833 2.49902 -20.5s-0.5 -14.834 -2.5 -15.501c-8 0 -20.333 -3.16699 -37 -9.5s-25 -13.833 -25 -22.5s27 -74.667 81 -198l26.5 56.5l22.5 46.5
c4.66699 9.33301 9.5 19.666 14.5 30.999s8.33301 19.666 10 24.999s2.5 9.33301 2.5 12c0 16 -2.33301 27.667 -7 35c-4.66699 6.66699 -12.667 12.667 -24 18c-8.66699 3.33301 -22.334 5 -41.001 5c-2.66699 0 -4.16699 5.5 -4.5 16.5s0.833984 17.833 3.50098 20.5
l58.5 -4.5c30.333 -2.33301 53.5 -3.5 69.5 -3.5c14.667 0 39.167 1.33301 73.5 4s54.833 4 61.5 4c1.33301 -3.33301 1.5 -10.5 0.5 -21.5s-2.5 -16.5 -4.5 -16.5c-11.333 0 -23.166 -2.33301 -35.499 -7s-18.5 -12.334 -18.5 -23.001c0 -10 26 -76.333 78 -199l41.5 87
l34.5 71c7.33301 15.333 11 25 11 29z" />
    <glyph glyph-name="x" unicode="x" horiz-adv-x="605" 
d="M27 425c0 8 1.00098 14.001 3.00098 18.001c82.667 -4.66699 128.334 -7 137.001 -7c7.33301 0 52.333 2.33301 135 7c2 -3.33301 3 -9.33301 3 -18c0 -12.667 -1.66699 -19 -5 -19c-9.33301 0 -19.166 -2.33301 -29.499 -7s-15.5 -10.334 -15.5 -17.001
c0 -4 1.66699 -8 5 -12l62 -77c5.33301 7.33301 14.166 18.833 26.499 34.5s21.666 28.167 27.999 37.5s9.5 16 9.5 20c0 14 -20.667 21 -62 21c-2.66699 0 -4 6 -4 18c0 9.33301 1.33301 15.666 4 18.999c78 -4.66699 120.333 -7 127 -7
c7.33301 0 46.666 2.33301 117.999 7c2 -4 3 -10 3 -18c0 -12.667 -1 -19 -3 -19c-47.333 -5.33301 -77 -14.666 -89 -27.999l-114 -125c-2 -3.33301 -3 -6 -3 -8c0 -4 1.33301 -7.33301 4 -10l120 -151c22.667 -29.333 49.667 -47 81 -53c2.66699 0 4 -7 4 -21
c0 -6 -1.33301 -10.667 -4 -14c-12 0.666992 -26.333 1.66699 -43 3l-45.5 3.5c-13.667 1 -28.167 1.5 -43.5 1.5c-16 0 -31.167 -0.5 -45.5 -1.5s-30.166 -2.16699 -47.499 -3.5s-32.333 -2.33301 -45 -3c-1.33301 6.66699 -2 10.667 -2 12c0 16.667 1.33301 25 4 25
c8.66699 0.666992 18.5 4.16699 29.5 10.5s16.5 13.5 16.5 21.5c0 1.33301 -0.666992 3.33301 -2 6l-68 79l-57 -72c-4.66699 -5.33301 -7 -11.666 -7 -18.999c0 -3.33301 1.5 -6.33301 4.5 -9s7.16699 -5 12.5 -7s10.5 -3.5 15.5 -4.5s10.667 -2 17 -3
s11.166 -1.83301 14.499 -2.5c1.33301 0 2 -6 2 -18c0 -10 -1.33301 -16.333 -4 -19c-5.33301 0.666992 -21.833 2.16699 -49.5 4.5s-50.5 3.5 -68.5 3.5c-14 0 -27.5 -0.5 -40.5 -1.5s-27.333 -2.16699 -43 -3.5s-29.167 -2.33301 -40.5 -3
c-1.33301 5.33301 -2 11.666 -2 18.999c0 12 1.33301 18 4 18c16.667 2.66699 33.5 7.5 50.5 14.5s28.5 13.833 34.5 20.5l111 122c1.33301 2 2 4.66699 2 8s-1.33301 6.33301 -4 9l-128 161c-8.66699 11.333 -19.5 20.333 -32.5 27s-24.833 10 -35.5 10
c-3.33301 0 -5 6.66699 -5 20z" />
    <glyph glyph-name="y" unicode="y" horiz-adv-x="544" 
d="M148 435c14.667 0 38.334 1.16797 71.001 3.50098s52.667 3.83301 60 4.5c2 -6 3 -13 3 -21c0 -10.667 -1.33301 -16 -4 -16c-8.66699 0 -21.167 -2.66699 -37.5 -8s-24.5 -11.333 -24.5 -18l1 -9c1.33301 -10.667 27.333 -75.667 78 -195c45.333 98 70 152 74 162
c4 9.33301 6 19.333 6 30c0 4 -1.83301 8.66699 -5.5 14s-11.167 10.666 -22.5 15.999s-25.666 8 -42.999 8c-2.66699 0 -4 6 -4 18c0 8.66699 0.666992 15 2 19c8 -0.666992 27.833 -2.16699 59.5 -4.5s55.5 -3.5 71.5 -3.5c14 0 32.667 1.16699 56 3.5
s40.333 3.83301 51 4.5c2.66699 -5.33301 4 -11 4 -17c0 -13.333 -1.33301 -20 -4 -20c-10 0 -24.833 -3.33301 -44.5 -10s-32.834 -16.667 -39.501 -30l-186 -403c-55.333 -120.667 -120 -181 -194 -181c-20 0 -36.167 5.33301 -48.5 16s-18.5 23 -18.5 37
c0 20.667 7.66699 36.334 23 47.001c84.667 0 139.667 26 165 78l31 66l-149 330l-5 12c-6.66699 14 -16.834 23.833 -30.501 29.5s-25.5 8.5 -35.5 8.5c-2.66699 0 -4 5 -4 15c0 13.333 0.666992 20.666 2 21.999c5.33301 0 26.333 -1.33301 63 -4s63 -4 79 -4z" />
    <glyph glyph-name="z" unicode="z" horiz-adv-x="430" 
d="M184 61c0 -4.66699 3.99902 -6.99902 11.999 -6.99902h62c52.667 0 88.667 25.333 108 76c2 6 11 9 27 9c4.66699 0 8.33398 -1.33301 11.001 -4l-17 -135h-342c-13.333 8 -20 15.667 -20 23c0 2 0.333008 3.33301 1 4l204 342l-61 1
c-24.667 0.666992 -45.5 -7 -62.5 -23s-28.833 -31.667 -35.5 -47c-2 -4 -10.333 -6 -25 -6c-8 0 -12 0.666992 -12 2c0 3.33301 2.33301 21.5 7 54.5s7.66699 59.5 9 79.5c39.333 -4 71 -6 95 -6h122c42 0 85 2.66699 129 8c2 -3.33301 3 -11.333 3 -24l-208 -333
c-4.66699 -6.66699 -7 -11.334 -7 -14.001z" />
    <glyph glyph-name="braceleft" unicode="{" horiz-adv-x="328" 
d="M25 291c-2 4 -2.99805 10.3281 -2.99805 18.9951c0 7.33301 1.33301 13.333 4 18c27.333 6.66699 48.166 15.334 62.499 26.001s21.5 28 21.5 52c0 16.667 -3 43.167 -9 79.5s-9 65.166 -9 86.499c0 52.667 22.833 95.5 68.5 128.5s92.834 49.5 141.501 49.5
c2.66699 0 4 -4 4 -12c0 -13.333 -2 -20.333 -6 -21c-18.667 -1.33301 -37.334 -11.666 -56.001 -30.999s-28 -43.666 -28 -72.999c0 -23.333 2.83301 -51.833 8.5 -85.5s8.5 -64.834 8.5 -93.501c0 -31.333 -8.66699 -60.166 -26 -86.499s-35.333 -39.5 -54 -39.5
c18.667 0 36.667 -12.333 54 -37s26 -52.667 26 -84c0 -28.667 -2.83301 -58.167 -8.5 -88.5s-8.5 -57.166 -8.5 -80.499c0 -30 9.5 -55.5 28.5 -76.5s37.5 -32.167 55.5 -33.5c4 -0.666992 6 -8 6 -22c0 -7.33301 -1.33301 -11 -4 -11c-46.667 0 -93 18.333 -139 55
s-69 79.334 -69 128.001c0 20 2.66699 47.667 8 83s8 61.333 8 78c0 7.33301 -0.666992 14 -2 20s-4 11.167 -8 15.5l-10 11c-2.66699 3 -7.5 6 -14.5 9s-11.833 5 -14.5 6s-8.83398 2.83301 -18.501 5.5s-15.5 4.33398 -17.5 5.00098z" />
    <glyph glyph-name="bar" unicode="|" horiz-adv-x="156" 
d="M122 -106c0 -2.66699 -12.333 -5.83301 -37 -9.5s-39 -5.5 -43 -5.5c-4.66699 0 -7 2 -7 6v872c-0.666992 4 1 6.66699 5 8c16 4.66699 40.667 7 74 7c2.66699 0 4.66699 -0.5 6 -1.5s2 -1.83301 2 -2.5v-2v-872z" />
    <glyph glyph-name="braceright" unicode="}" horiz-adv-x="328" 
d="M303 291c-2.66699 -0.666992 -7.83203 -2.16211 -15.499 -4.49512s-13 -4 -16 -5s-7.5 -2.66699 -13.5 -5s-10.5 -4.5 -13.5 -6.5s-6.5 -4.83301 -10.5 -8.5s-7 -7.33398 -9 -11.001s-3.66699 -8.16699 -5 -13.5s-2 -11.333 -2 -18c0 -16.667 2.66699 -42.667 8 -78
s8 -63 8 -83c0 -48.667 -23 -91.334 -69 -128.001s-92.333 -55 -139 -55c-2.66699 0 -4 3.66699 -4 11c0 14 2 21.333 6 22c18 1.33301 36.5 12.5 55.5 33.5s28.5 46.5 28.5 76.5c0 23.333 -2.83301 50.166 -8.5 80.499s-8.5 59.833 -8.5 88.5
c0 31.333 8.66699 59.333 26 84s35.333 37 54 37c-18.667 0 -36.667 13.167 -54 39.5s-26 55.166 -26 86.499c0 28.667 2.83301 59.834 8.5 93.501s8.5 62.167 8.5 85.5c0 29.333 -9.33301 53.666 -28 72.999s-37.334 29.666 -56.001 30.999c-4 0.666992 -6 7.66699 -6 21
c0 8 1.33301 12 4 12c48.667 0 95.834 -16.5 141.501 -49.5s68.5 -75.833 68.5 -128.5c0 -21.333 -3 -50.166 -9 -86.499s-9 -62.833 -9 -79.5c0 -24 7.16699 -41.333 21.5 -52s35.166 -19.334 62.499 -26.001c2.66699 -4.66699 4 -10.667 4 -18c0 -8.66699 -1 -15 -3 -19z
" />
    <glyph glyph-name="asciitilde" unicode="~" horiz-adv-x="570" 
d="M59 254c-6 2.66699 -9 11.667 -9 27s8 28.333 24 39c38 26 73.333 39 106 39c31.333 0 70.666 -8.83301 117.999 -26.5s86.666 -26.5 117.999 -26.5c4.66699 0 9.33398 0.333008 14.001 1s8.66699 1.5 12 2.5s7.33301 2.66699 12 5s8.16699 4 10.5 5s6 3.33301 11 7
l9.5 7l10.5 8c5.66699 4.33301 9.16699 7.16602 10.5 8.49902c6 -2.66699 9 -11.667 9 -27c0 -14.667 -7.66699 -27.667 -23 -39c-33.333 -26 -68.333 -39 -105 -39c-31.333 0 -70.666 8.83301 -117.999 26.5s-87 26.5 -119 26.5c-12 0 -24 -2.66699 -36 -8
s-20.5 -9.66602 -25.5 -12.999s-14.833 -11 -29.5 -23z" />
    <glyph glyph-name="uni00A0" unicode="&#xa0;" horiz-adv-x="209" 
 />
    <glyph glyph-name="exclamdown" unicode="&#xa1;" horiz-adv-x="195" 
d="M102 -238c-18.667 0 -34.334 5.99902 -47.001 17.999s-19 28.333 -19 49c0 24 5.33301 86.167 16 186.5s19 168.5 25 204.5c2.66699 14.667 6.66699 22 12 22c18.667 0 29.667 -10.333 33 -31c6.66699 -43.333 15.334 -114.166 26.001 -212.499s16 -154.5 16 -168.5
c0 -20.667 -6.16699 -37.167 -18.5 -49.5s-26.833 -18.5 -43.5 -18.5zM25 365.999c0 22 7.83105 40.333 23.498 55s33.167 22 52.5 22c20 0 36.833 -7.66699 50.5 -23s20.5 -33.333 20.5 -54s-7.16699 -38 -21.5 -52s-32.166 -21 -53.499 -21
c-19.333 0 -36.166 7 -50.499 21s-21.5 31.333 -21.5 52z" />
    <glyph glyph-name="cent" unicode="&#xa2;" 
d="M275 474c26 0 39 -2.66699 39 -8l-4 -23c20.667 -3.33301 39.667 -9 57 -17s29.666 -15 36.999 -21s13 -11.667 17 -17c0 -61.333 -18 -92 -54 -92c-26 0 -45.667 16.667 -59 50c-3.33301 8 -6.66602 14.667 -9.99902 20l-47 -290c8.66699 -2 18.667 -3 30 -3
c22 0 43 3.16699 63 9.5s34 12 42 17s18.667 12.5 32 22.5c6 -2.66699 9 -9 9 -19c0 -8 -1.33301 -14.667 -4 -20c-6.66699 -16.667 -26.5 -35.834 -59.5 -57.501s-70.167 -32.5 -111.5 -32.5h-15l-6 -38c-26 0 -39 3 -39 9l6 35c-50.667 12.667 -92 39.834 -124 81.501
s-48 90.167 -48 145.5c0 61.333 23.167 113.5 69.5 156.5s102.833 64.5 169.5 64.5h6zM213 95l48 296c-4 0.666992 -8.33301 1 -13 1c-53.333 0 -80 -50 -80 -150c0 -72 15 -121 45 -147z" />
    <glyph glyph-name="sterling" unicode="&#xa3;" horiz-adv-x="491" 
d="M57 335l278 0.000976562c3.33301 0 5 -3.33301 5 -10c0 -16.667 -5 -28.334 -15 -35.001h-269c-3.33301 0 -5 4.33301 -5 13c0 15.333 2 26 6 32zM290 642.001c26 0 51.1719 -4.00391 75.5049 -12.0039s40.5 -18 48.5 -30c0 -56.667 -17.333 -85 -52 -85
c-10.667 0 -20.167 3.83301 -28.5 11.5s-14.833 16.334 -19.5 26.001s-11.334 18.334 -20.001 26.001s-18.334 11.5 -29.001 11.5c-26 0 -45 -8.5 -57 -25.5s-18 -43.833 -18 -80.5c0 -17.333 5.16699 -51 15.5 -101s15.5 -91 15.5 -123
c0 -65.333 -13.667 -117.666 -41 -156.999c13.333 6 30.333 9 51 9c20 0 45.667 -5 77 -15s51.333 -15 60 -15c6.66699 0 12.667 0.5 18 1.5s10.333 3 15 6l11.5 7.5c3 2 6.66699 5.83301 11 11.5s7.16602 9.5 8.49902 11.5s4.33301 7 9 15s7.66699 12.667 9 14
c3.33301 0 7.16602 -2.33301 11.499 -7s6.5 -9.66699 6.5 -15c0 -3.33301 -0.666992 -7.66602 -2 -12.999c-6.66699 -27.333 -20.167 -54.5 -40.5 -81.5s-46.166 -40.5 -77.499 -40.5c-22.667 0 -54.834 5.66699 -96.501 17s-70.167 17 -85.5 17
c-13.333 0 -25.5 -2 -36.5 -6s-22 -9.5 -33 -16.5s-16.833 -10.833 -17.5 -11.5c-10.667 2 -18.834 6.16699 -24.501 12.5s-8.5 11.5 -8.5 15.5l52 63c8 20.667 12 65.667 12 135c0 17.333 -4.83301 52 -14.5 104s-14.5 91 -14.5 117c0 60 20.167 108.833 60.5 146.5
s89.833 56.5 148.5 56.5z" />
    <glyph glyph-name="currency" unicode="&#xa4;" horiz-adv-x="469" 
d="M246 164c23.333 0 40.333 11.5 51 34.5s16 49.833 16 80.5c0 115.333 -29 173 -87 173c-23.333 0 -40 -11.667 -50 -35s-15 -51 -15 -83c0 -113.333 28.333 -170 85 -170zM351 462l51.001 47.998c2.66699 2.66699 7.16699 1.66699 13.5 -3s12.5 -11.334 18.5 -20.001
s10 -17 12 -25l-49 -46c23.333 -32.667 35 -68.667 35 -108c0 -45.333 -13.667 -84.666 -41 -117.999l45 -48c2.66699 -2.66699 1.66699 -7.16699 -3 -13.5s-11.334 -12.5 -20.001 -18.5s-17 -10 -25 -12l-46 50c-32 -19.333 -67 -29 -105 -29c-44 0 -83.333 12.667 -118 38
l-52 -49c-2.66699 -2.66699 -7.16699 -1.66699 -13.5 3s-12.5 11.334 -18.5 20.001s-10 17 -12 25l51 48c-21.333 32 -32 66.667 -32 104c0 42.667 13.667 81.334 41 116.001l-49 52c-2.66699 2.66699 -1.66699 7.16699 3 13.5s11.334 12.5 20.001 18.5s17 10 25 12l49 -53
c31.333 20 66.666 30 105.999 30c42 0 80 -11.667 114 -35z" />
    <glyph glyph-name="yen" unicode="&#xa5;" horiz-adv-x="689" 
d="M166 636c15.333 0 62.998 1.99707 142.998 5.99707c1.33301 -2.66699 1.83301 -9.5 1.5 -20.5s-1.5 -16.5 -3.5 -16.5c-10 0 -21.167 -1.83301 -33.5 -5.5s-18.833 -8.83398 -19.5 -15.501c0 -5.33301 2.66699 -12.666 8 -21.999l100 -177
c3.33301 -3.33301 6.66602 -2.66602 9.99902 2.00098c19.333 28 42.333 65 69 111s40 74.333 40 85c0 14.667 -21.333 22 -64 22c-2.66699 0 -4.16699 5.5 -4.5 16.5s0.833984 17.833 3.50098 20.5c60 -4 100.333 -6 121 -6c17.333 0 55 2 113 6c2 -6 3 -12 3 -18
c0 -12 -1.33301 -18 -4 -18c-12 0 -25.667 -3 -41 -9s-27.666 -15 -36.999 -27c-17.333 -23.333 -50.833 -74.666 -100.5 -153.999s-74.5 -123.333 -74.5 -132v-25h69c3.33301 0 5 -4 5 -12c0 -15.333 -2 -26.333 -6 -33h-68v-36h69c3.33301 0 5 -4 5 -12
c0 -14.667 -2 -25.667 -6 -33h-68c0 -30.667 2.66699 -55.667 8 -75c1.33301 -4.66699 10.5 -10 27.5 -16s28.5 -9 34.5 -9c2.66699 0 4 -6.33301 4 -19c0 -8 -0.666992 -14 -2 -18c-4.66699 0 -24.667 1.33301 -60 4s-61.666 4 -78.999 4c-18 0 -44.333 -1.16699 -79 -3.5
l-66 -4.5c-2.66699 2.66699 -4 8 -4 16c0 14 1 21 3 21c7.33301 0 19.666 2.83301 36.999 8.5s27 11.167 29 16.5c4 16.667 6.33301 41.667 7 75h-70c-3.33301 0 -5 4.33301 -5 13c0 10.667 2 21.334 6 32.001h69v36h-70c-3.33301 0 -5 4.33301 -5 13c0 10 2 20.667 6 32h69
v30c0 4.66699 -10.333 26 -31 64l-63 111l-31 53c-22 40.667 -40 65 -54 73c-16.667 10 -34.334 15 -53.001 15c-2.66699 0 -4 5.5 -4 16.5s1.33301 17.833 4 20.5c11.333 -0.666992 26.333 -1.5 45 -2.5s35.834 -1.83301 51.501 -2.5s30.834 -1 45.501 -1z" />
    <glyph glyph-name="brokenbar" unicode="&#xa6;" horiz-adv-x="154" 
d="M121 399c0 -2.66699 -12.333 -5.83301 -37 -9.5s-39 -5.5 -43 -5.5c-4.66699 0 -7 2 -7 6v363c-0.666992 4 1 6.66699 5 8c16 4.66699 40.667 7 74 7c2.66699 0 4.66699 -0.5 6 -1.5s2 -1.83301 2 -2.5v-2v-363zM121 -105.999c0 -2.66699 -12.333 -5.83301 -37 -9.5
s-39 -5.5 -43 -5.5c-4.66699 0 -7 2 -7 6v363c-0.666992 4 1 6.66699 5 8c16 4.66699 40.667 7 74 7c2.66699 0 4.66699 -0.5 6 -1.5s2 -2.16699 2 -3.5v-1v-363z" />
    <glyph glyph-name="section" unicode="&#xa7;" horiz-adv-x="410" 
d="M384 290c0 -30.667 -7.33105 -59.499 -21.998 -86.499s-29.334 -45.5 -44.001 -55.5c7.33301 -16 11 -35.667 11 -59c0 -24.667 -5 -46.167 -15 -64.5s-23.333 -31.833 -40 -40.5s-33 -15 -49 -19s-32 -6 -48 -6c-22.667 0 -43 4 -61 12s-30 16.333 -36 25
c-0.666992 2.66699 -1 8.66699 -1 18c0 17.333 3.5 30.166 10.5 38.499s14.5 12.5 22.5 12.5c12 0 27.333 -8 46 -24s35.667 -24 51 -24c18 0 32.833 3.83301 44.5 11.5s17.5 17.5 17.5 29.5c0 20 -8.5 38.167 -25.5 54.5s-37.5 30.666 -61.5 42.999s-48 25.666 -72 39.999
s-44.5 32.833 -61.5 55.5s-25.5 49 -25.5 79c0 58 21.333 102.333 64 133c-6.66699 11.333 -10 29.666 -10 54.999c0 42.667 14.833 75.5 44.5 98.5s65.5 34.5 107.5 34.5c22.667 0 42.667 -4 60 -12s29 -16.667 35 -26c0 -1.33301 0.5 -4.66602 1.5 -9.99902
s1.5 -8.66602 1.5 -9.99902c0 -18.667 -2.83301 -31.667 -8.5 -39s-14.834 -11 -27.501 -11c-8.66699 0 -22 8.33301 -40 25s-35 25 -51 25c-43.333 0 -65 -14.333 -65 -43c0 -19.333 8.5 -36.666 25.5 -51.999s37.5 -28.833 61.5 -40.5s48.167 -24.167 72.5 -37.5
s45 -31 62 -53s25.5 -47.667 25.5 -77zM298.002 185.001c12 12 17.999 25.3359 17.999 40.0029c0 23.333 -8.33301 44 -25 62s-35.667 32.167 -57 42.5s-44.5 24 -69.5 41s-43.167 34.833 -54.5 53.5c-10 -8 -15 -22.333 -15 -43c0 -20 5 -37.333 15 -52
s23.333 -26.834 40 -36.501s33.834 -18.834 51.501 -27.501s35.667 -19.834 54 -33.501s32.5 -29.167 42.5 -46.5z" />
    <glyph glyph-name="dieresis" unicode="&#xa8;" horiz-adv-x="405" 
d="M241 514c0 20 7 36.833 21 50.5s31 20.5 51 20.5s37 -6.83301 51 -20.5s21 -30.5 21 -50.5s-7 -37 -21 -51s-31 -21 -51 -21s-37 7 -51 21s-21 31 -21 51zM19 514c0 20 6.83301 36.833 20.5 50.5s30.5 20.5 50.5 20.5s37 -6.83301 51 -20.5s21 -30.5 21 -50.5
s-7 -37 -21 -51s-31 -21 -51 -21s-36.833 7 -50.5 21s-20.5 31 -20.5 51z" />
    <glyph glyph-name="copyright" unicode="&#xa9;" horiz-adv-x="600" 
d="M411 268c0 -4.66699 -2 -13.3271 -6 -25.9941s-8.33301 -20.334 -13 -23.001c-24 -13.333 -55.667 -20 -95 -20c-36.667 0 -68 13.667 -94 41s-39 59.666 -39 96.999c0 39.333 13.167 73.166 39.5 101.499s59.166 42.5 98.499 42.5c32 0 64 -4 96 -12
c1.33301 -0.666992 3.33301 -11.334 6 -32.001s4 -32.667 4 -36c0 -2.66699 -2.66699 -4 -8 -4c-4.66699 0 -9 0.666992 -13 2c-3.33301 12 -11.5 23.667 -24.5 35s-32.5 17 -58.5 17c-22.667 0 -40 -10.333 -52 -31s-18 -45.334 -18 -74.001
c0 -32.667 7 -60.334 21 -83.001s34.667 -34 62 -34c24.667 0 42.334 5 53.001 15c4 3.33301 7.83301 7.5 11.5 12.5s6.5 9 8.5 12s3.33301 4.5 4 4.5c9.33301 0 15 -1.66699 17 -5zM72 341.007c0 -63.333 22.333 -117.166 67 -161.499s98.334 -66.5 161.001 -66.5
s116.334 22.167 161.001 66.5s67 98.166 67 161.499s-22.333 117.166 -67 161.499s-98.334 66.5 -161.001 66.5s-116.334 -22.167 -161.001 -66.5s-67 -98.166 -67 -161.499zM27 342.007c0 75.333 26.667 139.666 80 192.999s117.666 80 192.999 80
s139.833 -26.667 193.5 -80s80.5 -117.666 80.5 -192.999s-26.833 -139.666 -80.5 -192.999s-118.167 -80 -193.5 -80s-139.666 26.667 -192.999 80s-80 117.666 -80 192.999z" />
    <glyph glyph-name="ordfeminine" unicode="&#xaa;" horiz-adv-x="347" 
d="M189 326l0.000976562 68c-2 -0.666992 -6.5 -2 -13.5 -4s-12 -3.66699 -15 -5s-7.5 -3.16602 -13.5 -5.49902s-10.333 -4.5 -13 -6.5s-5.83398 -4.5 -9.50098 -7.5s-6.16699 -6.33301 -7.5 -10s-2 -7.83398 -2 -12.501c0 -30.667 12 -46 36 -46c12 0 21.333 2.66699 28 8
s10 12.333 10 21zM277.001 326c0 -7.33301 0.330078 -12.667 0.99707 -16s2.33398 -6.16602 5.00098 -8.49902s7 -3.5 13 -3.5c4 0 7.5 0.666992 10.5 2s5.33301 2.66602 7 3.99902s2.83398 2 3.50098 2c3.33301 0 5 -3 5 -9c0 -7.33301 -2 -16 -6 -26
c-20 -14.667 -43.667 -22 -71 -22c-10.667 0 -20.834 3.33301 -30.501 10s-16.167 14 -19.5 22l-5 -3c-3.33301 -2.66699 -7.66602 -5.66699 -12.999 -9s-11.333 -6.5 -18 -9.5s-14.667 -5.66699 -24 -8s-18.333 -3.5 -27 -3.5c-28 0 -48.5 8 -61.5 24
s-19.5 35.333 -19.5 58c0 12.667 3.33301 24 10 34s16.834 18.5 30.501 25.5s25.834 12.333 36.501 16s25 7.83398 43 12.501s30 8 36 10c4 1.33301 6 5 6 11v24c0 36.667 -10 55 -30 55c-12 0 -22.667 -4.33301 -32 -13s-14 -21.334 -14 -38.001
c0 -5.33301 -4.33301 -10 -13 -14s-17.334 -6 -26.001 -6c-12 0 -21.5 3.5 -28.5 10.5s-10.5 15.167 -10.5 24.5c0 17.333 14 34 42 50s59 24 93 24c71.333 0 107 -40 107 -120v-110z" />
    <glyph glyph-name="guillemotleft" unicode="&#xab;" horiz-adv-x="477" 
d="M307 248l72 -71.0039c49.333 -47.333 74 -73.666 74 -78.999s-4.66699 -10.666 -14 -15.999s-16.333 -8.33301 -21 -9c-0.666992 1.33301 -7.16699 7.5 -19.5 18.5s-35.5 29.333 -69.5 55s-73 52.5 -117 80.5c-4.66699 2 -7 6.66699 -7 14c0 12 2.66699 21 8 27
c18 10.667 35.5 21.667 52.5 33s32 21.833 45 31.5l37 28c11.667 9 21.667 17.167 30 24.5l21.5 19c6 5.33301 11 10 15 14l5 5c4.66699 -0.666992 11.667 -3.66699 21 -9s14 -10.666 14 -15.999s-24.667 -31.666 -74 -78.999zM128 247.996l72 -71.0039
c49.333 -47.333 74 -73.666 74 -78.999s-4.66699 -10.666 -14 -15.999s-16.333 -8.33301 -21 -9c-0.666992 1.33301 -7.16699 7.5 -19.5 18.5s-35.5 29.333 -69.5 55s-73 52.5 -117 80.5c-4.66699 2 -7 6.66699 -7 14c0 12 2.66699 21 8 27c18 10.667 35.5 21.667 52.5 33
s32 21.833 45 31.5l37 28c11.667 9 21.667 17.167 30 24.5l21.5 19c6 5.33301 10.667 10 14 14l6 5c4.66699 -0.666992 11.667 -3.66699 21 -9s14 -10.666 14 -15.999s-24.667 -31.666 -74 -78.999z" />
    <glyph glyph-name="logicalnot" unicode="&#xac;" horiz-adv-x="539" 
d="M28 366c3.33301 40.667 8.33203 61.001 14.999 61.001h449c8 0 12 -3.66699 12 -11v-247c-5.33301 -5.33301 -25 -10.333 -59 -15h-4c-2.66699 0 -4.66699 0.666992 -6 2s-1.66602 2.66602 -0.999023 3.99902v1v185c0 6.66699 -3.66699 10 -11 10h-389
c-4 0 -6 3.33301 -6 10z" />
    <glyph glyph-name="registered" unicode="&#xae;" horiz-adv-x="599" 
d="M269 335c-0.666992 -16 0.332031 -27.998 2.99902 -35.998c0.666992 -2 4.16699 -4.33301 10.5 -7s10.833 -4 13.5 -4c1.33301 0 2 -1.83301 2 -5.5s-0.666992 -6.83398 -2 -9.50098c-3.33301 0 -9.16602 0.5 -17.499 1.5s-16.333 1.66699 -24 2s-14.167 0.5 -19.5 0.5
c-8 0 -19.667 -0.666992 -35 -2s-25 -2 -29 -2c-1.33301 1.33301 -2 3.66602 -2 6.99902c0 5.33301 0.333008 8 1 8c3.33301 0 8.33301 1.33301 15 4s10.334 5 11.001 7c2 8.66699 3 19.667 3 33v164c0 13.333 -1 24.333 -3 33c-0.666992 2 -4.33398 4.33301 -11.001 7
s-11.334 4 -14.001 4c-0.666992 0 -1 2.33301 -1 7s0.333008 7.33398 1 8.00098c26.667 -1.33301 48.334 -2 65.001 -2c8 0 17.667 0.166992 29 0.5s21.333 0.5 30 0.5c23.333 0 45.5 -5.66699 66.5 -17s31.5 -29.333 31.5 -54c0 -19.333 -5.5 -36 -16.5 -50
s-21.833 -23.333 -32.5 -28c-1.33301 -0.666992 -1.33301 -2 0 -4c20.667 -35.333 42 -64 64 -86c18 -18 32.333 -27 43 -27c1.33301 -1.33301 2 -4 2 -8c0 -2 -0.333008 -4.33301 -1 -7c-2 -0.666992 -5.66699 -1 -11 -1c-22.667 0 -42.5 4 -59.5 12
s-28.833 15.667 -35.5 23s-15.667 18.666 -27 33.999c-5.33301 7.33301 -11.166 15.833 -17.499 25.5l-14.5 22c-3.33301 5 -6 8.16699 -8 9.5c-0.666992 0.666992 -2.33398 1 -5.00098 1c-3.33301 0 -5 -2 -5 -6v-58zM293.999 425.002c19.333 0 29 16.666 29 49.999
c0 38 -11 57 -33 57c-9.33301 0 -15 -1 -17 -3s-3 -4.66699 -3 -8c-0.666992 -3.33301 -1 -14.666 -1 -33.999v-46c0 -7.33301 1.33301 -11.833 4 -13.5s8.66699 -2.5 18 -2.5h3zM71.999 408.001c0 -62.667 22.333 -116.334 67 -161.001s98.334 -67 161.001 -67
s116.334 22.333 161.001 67s67 98.334 67 161.001s-22.333 116.334 -67 161.001s-98.334 67 -161.001 67s-116.334 -22.333 -161.001 -67s-67 -98.334 -67 -161.001zM26.999 409.001c0 75.333 26.667 139.666 80 192.999s117.666 80 192.999 80s139.833 -26.667 193.5 -80
s80.5 -117.666 80.5 -192.999s-26.833 -139.666 -80.5 -192.999s-118.167 -80 -193.5 -80s-139.666 26.667 -192.999 80s-80 117.666 -80 192.999z" />
    <glyph glyph-name="macron" unicode="&#xaf;" horiz-adv-x="384" 
d="M57 541c0.666992 14.667 2 26.6689 4 36.002s4 15.333 6 18s3.66699 4 5 4h1h246h1c4 0 6 -3.33301 6 -10c-0.666992 -14.667 -2.16699 -26.834 -4.5 -36.501s-4.5 -15.834 -6.5 -18.501l-3 -4h-249l-5 2c-0.666992 2 -1 5 -1 9z" />
    <glyph glyph-name="degree" unicode="&#xb0;" horiz-adv-x="233" 
d="M64 536c0 -15.333 5.16699 -28.166 15.5 -38.499s22.833 -15.5 37.5 -15.5s27.167 5.16699 37.5 15.5s15.5 23.166 15.5 38.499s-5.16699 28.166 -15.5 38.499s-22.833 15.5 -37.5 15.5s-27.167 -5.16699 -37.5 -15.5s-15.5 -23.166 -15.5 -38.499zM18 536
c0 26.667 9.66699 49.665 29 68.998s42.666 29 69.999 29s50.5 -9.66699 69.5 -29s28.5 -42.333 28.5 -69c0 -27.333 -9.66699 -50.666 -29 -69.999s-42.333 -29 -69 -29c-27.333 0 -50.666 9.83301 -69.999 29.5s-29 42.834 -29 69.501z" />
    <glyph glyph-name="plusminus" unicode="&#xb1;" horiz-adv-x="530" 
d="M302 306v-183.998c-10 -6.66699 -30 -12 -60 -16h-6c-4 0 -6 2.33301 -6 7v191c0 3.33301 -2 5 -6 5h-191c-4 0 -6 3.33301 -6 10c0 20 2.66699 39 8 57c0.666992 2 1.5 3.33301 2.5 4s1.83301 1 2.5 1h2h183c3.33301 0 5 2 5 6v182
c-0.666992 3.33301 1 5.66602 5 6.99902c18 5.33301 37 8 57 8l10 -6v-192c0 -3.33301 1.33301 -5 4 -5h192c5.33301 0 8 -2.33301 8 -7c0 -14.667 -3.33301 -34.334 -10 -59.001c-0.666992 -2 -1.5 -3.5 -2.5 -4.5s-2.16699 -1.5 -3.5 -1.5h-1h-183c-2.66699 0 -4 -1 -4 -3
zM490 71.002l2.49707 -0.000976562c1 0 2.33301 -1 4 -3s2.16699 -4.66699 1.5 -8c-5.33301 -35.333 -10.666 -55.666 -15.999 -60.999h-448h-2c-0.666992 0 -1.66699 1.16699 -3 3.5s-1.66602 5.5 -0.999023 9.5c4.66699 34.667 7.33398 52.667 8.00098 54
c0.666992 2 1.5 3.33301 2.5 4s2.16699 1 3.5 1h1h447z" />
    <glyph glyph-name="uni00B2" unicode="&#xb2;" horiz-adv-x="322" 
d="M121 586c-13.333 0 -25.998 -3.83105 -37.998 -11.498s-21.5 -15.334 -28.5 -23.001s-10.833 -11.5 -11.5 -11.5c-3.33301 0 -7 3.16699 -11 9.5s-6 11.166 -6 14.499c0 2 0.333008 4.66699 1 8v2c7.33301 14 22.5 29.167 45.5 45.5s49.167 24.5 78.5 24.5
c32 0 58.167 -10.167 78.5 -30.5s30.5 -46.833 30.5 -79.5c0 -38 -16.333 -76.167 -49 -114.5s-69.334 -70.833 -110.001 -97.5c-1.33301 -1.33301 -1.66602 -2.66602 -0.999023 -3.99902s1.66699 -2 3 -2h114c7.33301 0 13.666 0.666992 18.999 2
s9.83301 4.16602 13.5 8.49902s6.33398 7.66602 8.00098 9.99902s4 7 7 14s5.16699 11.5 6.5 13.5c0.666992 2.66699 3 4 7 4c10 0 16.667 -1.66699 20 -5c-2.66699 -12 -7.83398 -32.5 -15.501 -61.5s-11.834 -45.167 -12.501 -48.5l-103 1
c-82 -0.666992 -124.667 -1 -128 -1c-8.66699 8.66699 -13 17.334 -13 26.001c0 4 0.333008 7 1 9c97.333 97.333 146 177.333 146 240c0 14 -4.5 27.167 -13.5 39.5s-21.833 18.5 -38.5 18.5z" />
    <glyph glyph-name="uni00B3" unicode="&#xb3;" horiz-adv-x="298" 
d="M159 645c18.667 0 37.0039 -5.99707 55.0039 -17.9971s27 -29.667 27 -53c0 -22 -7.83301 -42.333 -23.5 -61s-31.834 -32.334 -48.501 -41.001c20 0 42.333 -7.33301 67 -22s37 -37.334 37 -68.001c0 -43.333 -17.333 -76.833 -52 -100.5s-74.334 -35.5 -119.001 -35.5
c-32.667 0 -57 6.66699 -73 20c-2 2.66699 -3 8.66699 -3 18c0 8.66699 3.66699 16 11 22s15 9 23 9s17.833 -5.5 29.5 -16.5s22.834 -16.5 33.501 -16.5c20 0 35.833 7 47.5 21s17.5 34.667 17.5 62s-6.5 46.666 -19.5 57.999s-32.5 17 -58.5 17h-23c-4 6 -6 11.333 -6 16
c0 5.33301 0.666992 10 2 14c50.667 11.333 76 39.333 76 84c0 13.333 -3.83301 23.666 -11.5 30.999s-15.834 11 -24.501 11c-12.667 0 -26.334 -6.16699 -41.001 -18.5s-22.667 -18.5 -24 -18.5c-4.66699 0 -9.66699 2.83301 -15 8.5s-7 9.83398 -5 12.501
c10.667 16.667 27.667 31.667 51 45s46.666 20 69.999 20z" />
    <glyph glyph-name="acute" unicode="&#xb4;" horiz-adv-x="234" 
d="M200 658c0 -16.667 -23.8311 -43.499 -71.498 -80.499s-75.834 -55.5 -84.501 -55.5c-3.33301 0 -7 2.16699 -11 6.5s-6 8.16602 -6 11.499c0 2 5 11.167 15 27.5s22.667 35.5 38 57.5s28.666 39.667 39.999 53c6 6 17.333 9 34 9c15.333 0 26.833 -3.33301 34.5 -10
s11.5 -13 11.5 -19z" />
    <glyph glyph-name="uni00B5" unicode="&#xb5;" horiz-adv-x="535" 
d="M209 -9c-4.66699 0 -8.99805 0.50293 -12.998 1.50293s-7.83301 2.83301 -11.5 5.5s-6.66699 5 -9 7s-5 5.5 -8 10.5s-5.33301 8.66699 -7 11s-3.66699 6.66602 -6 12.999s-3.83301 10.333 -4.5 12l-5 13c-2.66699 7 -4 10.833 -4 11.5
c0 -0.666992 0.5 -18.334 1.5 -53.001s3 -73 6 -115s7.83301 -80.333 14.5 -115c-2.66699 -4 -9.5 -8.33301 -20.5 -13s-20.833 -7 -29.5 -7c-10 0 -24.167 4.66699 -42.5 14s-27.5 17 -27.5 23c0 21.333 2.16699 81.333 6.5 180s9.16602 170 14.499 214
c0 8 -0.666992 23.833 -2 47.5s-2 39.167 -2 46.5v128c2.66699 4 10.167 8.33301 22.5 13s21.833 7 28.5 7c6 0 18.167 -4.66699 36.5 -14s27.5 -17 27.5 -23c0 -42 -5.66699 -89.667 -17 -143l-6 -43c0 -39.333 6 -71.333 18 -96s27 -37 45 -37
c16 0 29.667 3.83301 41 11.5s20 18.5 26 32.5s10.5 28.167 13.5 42.5s5.5 31.166 7.5 50.499v71v128c2.66699 4 10.167 8.33301 22.5 13s21.5 7 27.5 7c6.66699 0 21 -4.66699 43 -14s33 -17 33 -23c0 -36.667 -7.66699 -91 -23 -163l-5 -23
c-0.666992 -31.333 0 -56.5 2 -75.5s6.83301 -35.333 14.5 -49s18.834 -20.5 33.501 -20.5c11.333 0 23.333 3.66699 36 11s21.334 14 26.001 20c3.33301 0 7.66602 -4.33301 12.999 -13c2 -4 3 -10.667 3 -20c-6.66699 -22 -18.834 -40.833 -36.501 -56.5
s-36.5 -23.5 -56.5 -23.5c-22.667 0.666992 -42.667 14.167 -60 40.5s-28.333 56.833 -33 91.5c-18.667 -44 -37.834 -77.833 -57.501 -101.5s-45.167 -35.5 -76.5 -35.5z" />
    <glyph glyph-name="paragraph" unicode="&#xb6;" horiz-adv-x="468" 
d="M279 261l2.00098 -204c0 -8.66699 6 -13 18 -13c9.33301 0 14 4.66699 14 14c2.66699 30 4 100.667 4 212c0 2.66699 -1.33301 4 -4 4c-6.66699 0 -15.334 -1.33301 -26.001 -4c-5.33301 -0.666992 -8 -3.66699 -8 -9zM206.001 652
c20 0 38.666 -0.669922 55.999 -2.00293s35.666 -2 54.999 -2l121 6c2.66699 -2.66699 3.33398 -8.66699 2.00098 -18s-3.33301 -14 -6 -14c-8.66699 0 -19.5 -1.66699 -32.5 -5s-20.5 -7.66602 -22.5 -12.999c-2 -6.66699 -3 -41.334 -3 -104.001
c0 -24 0.166992 -54.667 0.5 -92s0.5 -57.333 0.5 -60c0 -3.33301 1.66699 -5 5 -5l43 9c2 -4 3 -10.333 3 -19c0 -11.333 -6.66699 -21 -20 -29c-8 -4 -16.333 -7.33301 -25 -10c-3.33301 -1.33301 -5 -2.66602 -5 -3.99902c0 -141.333 2.33301 -220.666 7 -237.999
c2 -5.33301 9.66699 -10.333 23 -15s23.666 -7 30.999 -7c2.66699 0 4 -4 4 -12c0 -12 -1.33301 -19.333 -4 -22c-12.667 0.666992 -36.667 1.83398 -72 3.50098s-65 2.5 -89 2.5c-13.333 0 -26.666 -0.333008 -39.999 -1s-27.666 -1.5 -42.999 -2.5
s-27.333 -1.83301 -36 -2.5c-1.33301 2.66699 -1.83301 8.66699 -1.5 18s1.5 14 3.5 14c5.33301 0 14.833 2.5 28.5 7.5s21.167 9.83301 22.5 14.5c3.33301 14 5 58.333 5 133v73c0 4.66699 -6.66699 7 -20 7c-56 0 -100.167 18.667 -132.5 56s-48.5 84.333 -48.5 141
c0 34 6 64 18 90s27.667 46.167 47 60.5s39.5 24.833 60.5 31.5s42.5 10 64.5 10zM281 593.997c-1.33301 -106.667 -2 -194 -2 -262c0 -4 2.66699 -6 8 -6c7.33301 0 15 2 23 6c4.66699 2.66699 7 5.33398 7 8.00098c0 153.333 -0.666992 238.666 -2 255.999
c0 2 -1.66699 4.16699 -5 6.5s-7.33301 3.5 -12 3.5c-11.333 0 -17 -4 -17 -12z" />
    <glyph glyph-name="periodcentered" unicode="&#xb7;" horiz-adv-x="205" 
d="M31 265c0 20 7.16699 37.167 21.5 51.5s31.833 21.5 52.5 21.5c20 0 37.167 -7.16699 51.5 -21.5s21.5 -31.5 21.5 -51.5c0 -20.667 -6.83301 -38.667 -20.5 -54s-30.5 -23 -50.5 -23c-20.667 0 -38.5 7.83301 -53.5 23.5s-22.5 33.5 -22.5 53.5z" />
    <glyph glyph-name="cedilla" unicode="&#xb8;" horiz-adv-x="443" 
d="M226 -28c8 0.666992 14.3301 0.999023 18.9971 0.999023c14.667 0 27.334 -5.16699 38.001 -15.5s16 -22.166 16 -35.499c0 -24 -8.66699 -43 -26 -57s-41 -21 -71 -21c-21.333 0 -37.333 5.33301 -48 16c-1.33301 4 -2 9.66699 -2 17c0 9.33301 2.33301 14 7 14l19 -7
c12 -5.33301 22.333 -8 31 -8c12.667 0 22.334 2.83301 29.001 8.5s10 12.5 10 20.5c0 18.667 -8 28 -24 28c-10 0 -20 -2 -30 -6c-1.33301 0 -4.16602 2.16699 -8.49902 6.5s-6.16602 7.5 -5.49902 9.5c3.33301 5.33301 8.16602 14.833 14.499 28.5s10.833 22.5 13.5 26.5
h32z" />
    <glyph glyph-name="uni00B9" unicode="&#xb9;" horiz-adv-x="277" 
d="M38 543c-2.66699 0.666992 -5.83301 3.16699 -9.5 7.5s-5.5 8.5 -5.5 12.5v9c104 50.667 157 76 159 76h1c2 0 5.16699 -2.83301 9.5 -8.5s6.83301 -9.5 7.5 -11.5c-8.66699 -32 -13 -60.333 -13 -85v-212c0 -16.667 3.33301 -28.667 10 -36c4 -4 12 -7.33301 24 -10
s20.667 -4 26 -4c2.66699 0 4 -5 4 -15c0 -7.33301 -1 -12 -3 -14c-4.66699 0 -20.5 0.833008 -47.5 2.5s-45.5 2.5 -55.5 2.5s-30.667 -0.833008 -62 -2.5s-48.333 -2.5 -51 -2.5c-1.33301 1.33301 -2 6.5 -2 15.5s0.666992 13.5 2 13.5c5.33301 0 14.333 1.66699 27 5
s20.667 7 24 11c7.33301 10 11 21 11 33v199c0 20.667 -4.33301 31 -13 31c-4 0 -18.333 -5.66699 -43 -17z" />
    <glyph glyph-name="ordmasculine" unicode="&#xba;" horiz-adv-x="370" 
d="M176 517c-18.667 0 -32.167 -9.50098 -40.5 -28.501s-12.5 -41.5 -12.5 -67.5c0 -91.333 23 -137 69 -137c19.333 0 33.333 9.33301 42 28s13 40.334 13 65.001c0 93.333 -23.667 140 -71 140zM185 553.999c44 0 81.501 -15 112.501 -45s46.5 -66.333 46.5 -109
s-15.333 -78.834 -46 -108.501s-68.334 -44.5 -113.001 -44.5c-44 0 -81.333 14.833 -112 44.5s-46 65.834 -46 108.501s15.333 79 46 109s68 45 112 45z" />
    <glyph glyph-name="guillemotright" unicode="&#xbb;" horiz-adv-x="479" 
d="M172 248l-73 71.0039c-49.333 47.333 -74 73.666 -74 78.999s4.66699 10.666 14 15.999s16.333 8.33301 21 9l6 -5c3.33301 -4 8 -8.66699 14 -14l21.5 -19c8.33301 -7.33301 18.333 -15.5 30 -24.5l37 -28c13 -9.66699 28 -20.167 45 -31.5s34.5 -22.333 52.5 -33
c5.33301 -6 8 -15 8 -27c0 -7.33301 -2.33301 -12 -7 -14c-44 -28 -83 -54.833 -117 -80.5s-57.167 -44 -69.5 -55s-18.833 -17.167 -19.5 -18.5c-4.66699 0.666992 -11.667 3.66699 -21 9s-14 10.666 -14 15.999s24.667 31.666 74 78.999zM351 248.004l-73 71.0039
c-49.333 47.333 -74 73.666 -74 78.999s4.66699 10.666 14 15.999s16.333 8.33301 21 9l5 -5c4 -4 9 -8.66699 15 -14l21.5 -19c8.33301 -7.33301 18.333 -15.5 30 -24.5l37 -28c13 -9.66699 28 -20.167 45 -31.5s34.5 -22.333 52.5 -33c5.33301 -6 8 -15 8 -27
c0 -7.33301 -2.33301 -12 -7 -14c-44 -28 -83 -54.833 -117 -80.5s-57.167 -44 -69.5 -55s-18.833 -17.167 -19.5 -18.5c-4.66699 0.666992 -11.667 3.66699 -21 9s-14 10.666 -14 15.999s24.667 31.666 74 78.999z" />
    <glyph glyph-name="onequarter" unicode="&#xbc;" horiz-adv-x="699" 
d="M37 543c-2.66699 0.666992 -5.83301 3.16699 -9.5 7.5s-5.5 8.5 -5.5 12.5v9c104 50.667 157 76 159 76h1c2 0 5.16699 -2.83301 9.5 -8.5s6.83301 -9.5 7.5 -11.5c-8.66699 -32 -13 -60.333 -13 -85v-212c0 -16.667 3.33301 -28.667 10 -36c4 -4 12 -7.33301 24 -10
s20.667 -4 26 -4c2.66699 0 4 -5 4 -15c0 -7.33301 -1 -12 -3 -14c-4.66699 0 -20.5 0.833008 -47.5 2.5s-45.5 2.5 -55.5 2.5s-30.667 -0.833008 -62 -2.5s-48.333 -2.5 -51 -2.5c-1.33301 1.33301 -2 6.5 -2 15.5s0.666992 13.5 2 13.5c5.33301 0 14.333 1.66699 27 5
s20.667 7 24 11c7.33301 10 11 21 11 33v199c0 20.667 -4.33301 31 -13 31c-4 0 -18.333 -5.66699 -43 -17zM595.001 -3c-28.667 0 -43 1.99902 -43 5.99902v94c-0.666992 2 -2.66699 3 -6 3h-156c-5.33301 3.33301 -8 11 -8 23l222 265c5.33301 6.66699 12 10 20 10
c11.333 0 17 -2.33301 17 -7v-233c0 -1.33301 2 -2.66602 6 -3.99902h19c6.66699 0 10 -16.667 10 -50c0 -1.33301 -0.5 -2.5 -1.5 -3.5l-2.5 -2.5h-2h-25c-2.66699 0 -4 -1.66699 -4 -5v-91c-14.667 -3.33301 -30 -5 -46 -5zM552.001 159.999v101c0 4 -0.333008 6 -1 6
l-3 -1l-85 -102v-2c0 -4 1.33301 -6 4 -6h79c4 2 6 3.33301 6 4zM577.001 616.999l-348 -631c0 -1.33301 -1.33301 -2 -4 -2c-14 0 -26 6.33301 -36 19l-2 9l345 632c1.33301 2 3.33301 3 6 3c12 0 24 -6.33301 36 -19c1.33301 -1.33301 2.33301 -3 3 -5s1 -3.66699 1 -5z
" />
    <glyph glyph-name="onehalf" unicode="&#xbd;" horiz-adv-x="748" 
d="M549 332c-13.333 0 -25.998 -3.83105 -37.998 -11.498s-21.5 -15.334 -28.5 -23.001s-10.833 -11.5 -11.5 -11.5c-3.33301 0 -7 3.16699 -11 9.5s-6 11.166 -6 14.499c0 2 0.333008 4.66699 1 8v2c7.33301 14 22.5 29.167 45.5 45.5s49.167 24.5 78.5 24.5
c32 0 58.167 -10.167 78.5 -30.5s30.5 -46.833 30.5 -79.5c0 -38 -16.333 -76.167 -49 -114.5s-69.334 -70.833 -110.001 -97.5c-1.33301 -1.33301 -1.66602 -2.66602 -0.999023 -3.99902s1.66699 -2 3 -2h114c7.33301 0 13.666 0.666992 18.999 2
s9.83301 4.16602 13.5 8.49902s6.33398 7.66602 8.00098 9.99902s4 7 7 14s5.16699 11.5 6.5 13.5c0.666992 2.66699 3 4 7 4c10 0 16.667 -1.66699 20 -5c-2.66699 -12 -7.83398 -32.5 -15.501 -61.5s-11.834 -45.167 -12.501 -48.5l-103 1
c-82 -0.666992 -124.667 -1 -128 -1c-10.667 10.667 -14.667 22.334 -12 35.001c97.333 97.333 146 177.333 146 240c0 14 -4.5 27.167 -13.5 39.5s-21.833 18.5 -38.5 18.5zM37.002 543.002c-2.66699 0.666992 -5.83301 3.16699 -9.5 7.5s-5.5 8.5 -5.5 12.5v9
c104 50.667 157 76 159 76h1c2 0 5.16699 -2.83301 9.5 -8.5s6.83301 -9.5 7.5 -11.5c-8.66699 -32 -13 -60.333 -13 -85v-212c0 -16.667 3.33301 -28.667 10 -36c4 -4 12 -7.33301 24 -10s20.667 -4 26 -4c2.66699 0 4 -5 4 -15c0 -7.33301 -1 -12 -3 -14
c-4.66699 0 -20.5 0.833008 -47.5 2.5s-45.5 2.5 -55.5 2.5s-30.667 -0.833008 -62 -2.5s-48.333 -2.5 -51 -2.5c-1.33301 1.33301 -2 6.5 -2 15.5s0.666992 13.5 2 13.5c5.33301 0 14.333 1.66699 27 5s20.667 7 24 11c7.33301 10 11 21 11 33v199
c0 20.667 -4.33301 31 -13 31c-4 0 -18.333 -5.66699 -43 -17zM577.003 617.002l-348 -630.999c0 -1.33301 -1.33301 -2 -4 -2c-14 0 -26.333 6.66699 -37 20c-1.33301 1.33301 -2 2.66602 -2 3.99902v3l1 1l345 632c1.33301 2 3.33301 3 6 3c12 0 24 -6.33301 36 -19
c1.33301 -1.33301 2.33301 -3 3 -5s1 -3.66699 1 -5z" />
    <glyph glyph-name="threequarters" unicode="&#xbe;" horiz-adv-x="693" 
d="M156 645c18.667 0 36.999 -5.99707 54.999 -17.9971s27 -29.667 27 -53c0 -22 -7.83301 -42.333 -23.5 -61s-31.834 -32.334 -48.501 -41.001c20 0 42.333 -7.33301 67 -22s37 -37.334 37 -68.001c0 -43.333 -17.333 -76.833 -52 -100.5s-74.334 -35.5 -119.001 -35.5
c-32.667 0 -57 6.66699 -73 20c-2 2.66699 -3 8.66699 -3 18c0 8.66699 3.66699 16 11 22s15 9 23 9s17.833 -5.5 29.5 -16.5s22.834 -16.5 33.501 -16.5c20 0 35.833 7 47.5 21s17.5 34.667 17.5 62s-6.5 46.666 -19.5 57.999s-32.833 17 -59.5 17h-22
c-4 6 -6 11.333 -6 16c0 5.33301 0.666992 10 2 14c50.667 11.333 76 39.333 76 84c0 13.333 -3.66699 23.666 -11 30.999s-15.666 11 -24.999 11c-12.667 0 -26.167 -6.16699 -40.5 -18.5s-22.166 -18.5 -23.499 -18.5c-4.66699 0 -9.66699 2.83301 -15 8.5
s-7 9.83398 -5 12.501c10.667 16.667 27.5 31.667 50.5 45s46.167 20 69.5 20zM588.999 -2.99707c-28.667 0 -43 1.99902 -43 5.99902v94c-0.666992 2 -2.66699 3 -6 3h-156c-5.33301 3.33301 -8 11 -8 23l222 265c5.33301 6.66699 12 10 20 10c11.333 0 17 -2.33301 17 -7
v-233c0 -1.33301 2 -2.66602 6 -3.99902h19c6.66699 0 10 -16.667 10 -50c0 -1.33301 -0.5 -2.5 -1.5 -3.5l-2.5 -2.5h-2h-25c-2.66699 0 -4 -1.66699 -4 -5v-91c-14.667 -3.33301 -30 -5 -46 -5zM544.999 267.002l-3 -1l-85 -102v-2c0 -4 1.33301 -6 4 -6h79
c4 2 6 3.33301 6 4v101c0 4 -0.333008 6 -1 6zM570.999 617.002l-348 -630.999c-1.33301 -1.33301 -3.33301 -2 -6 -2c-12.667 0 -24.334 6.66699 -35.001 20c-1.33301 1.33301 -2 2.66602 -2 3.99902v3l1 1l345 632c0.666992 2 2.33398 3 5.00098 3
c12.667 0 25 -6.33301 37 -19c1.33301 -1.33301 2.33301 -3 3 -5s1 -3.66699 1 -5z" />
    <glyph glyph-name="questiondown" unicode="&#xbf;" horiz-adv-x="349" 
d="M319 372c0 -20.667 -7.16895 -38 -21.502 -52s-31.166 -21 -50.499 -21c-21.333 0 -39.166 7 -53.499 21s-21.5 31.333 -21.5 52s6.83301 38.667 20.5 54s30.5 23 50.5 23c19.333 0 36.833 -7.33301 52.5 -22s23.5 -33 23.5 -55zM221.998 217
c0 8.66699 3.50195 16 10.502 22s14.5 9 22.5 9c2.66699 0 5.16699 -2.33301 7.5 -7s3.83301 -9.66699 4.5 -15c9.33301 -58 12.5 -101.167 9.5 -129.5s-15.833 -47.166 -38.5 -56.499c-54.667 -22 -89.834 -41.167 -105.501 -57.5s-23.5 -34.5 -23.5 -54.5
c0 -33.333 19 -50 57 -50c11.333 0 25.166 2.33301 41.499 7s31.833 7 46.5 7c21.333 0 38.833 -7 52.5 -21s20.5 -29.667 20.5 -47c0 -20 -3 -34.333 -9 -43c-17.333 -8.66699 -37 -13 -59 -13c-58.667 2.66699 -112.667 19.167 -162 49.5s-74 72.833 -74 127.5
c0 46.667 9.66699 82 29 106s50 47.333 92 70c4.66699 2.66699 12.167 6.66699 22.5 12s16.833 8.83301 19.5 10.5s7 4.66699 13 9s9.66699 7.83301 11 10.5l6.5 12.5c3 5.66699 4.66699 11.667 5 18s0.5 14.166 0.5 23.499z" />
    <glyph glyph-name="Agrave" unicode="&#xc0;" horiz-adv-x="720" 
d="M411 748c0 -3.33301 -1.5 -7.49902 -4.5 -12.499s-6.16699 -7.5 -9.5 -7.5c-12 0 -45 13.167 -99 39.5s-81 47.5 -81 63.5c0 12.667 6.33301 22.167 19 28.5s25 9.5 37 9.5c6.66699 0 12.667 -1.33301 18 -4c22 -16.667 47.5 -39.334 76.5 -68.001s43.5 -45 43.5 -49z
M423 33.001c14.667 0 29.666 3.16895 44.999 9.50195s23 14.833 23 25.5c0 1.33301 -8.33301 23.666 -25 66.999l-30 73c-2.66699 2.66699 -5 4 -7 4c-12.667 0.666992 -44.667 1 -96 1c-44 0 -77.667 -0.333008 -101 -1c-2.66699 0 -5 -1.66699 -7 -5l-33 -76
c-13.333 -30 -20 -50.333 -20 -61s6 -19 18 -25s22.5 -9.5 31.5 -10.5s16.833 -1.5 23.5 -1.5c2 -0.666992 3 -6 3 -16s-0.666992 -17 -2 -21c-8.66699 0.666992 -26.167 2.16699 -52.5 4.5s-47.833 3.5 -64.5 3.5s-36.667 -1.16699 -60 -3.5s-41.333 -3.83301 -54 -4.5
c-2.66699 2.66699 -4 7.66699 -4 15c0 14 0.666992 21 2 21c8 0 21.333 3.5 40 10.5s30.334 14.167 35.001 21.5c5.33301 8 10.833 17.833 16.5 29.5l13.5 28.5l5 12l221 508c7.33301 17.333 19.666 26 36.999 26c10 0 18 -4.33301 24 -13l205 -507l33 -82
c4 -10.667 15 -18.834 33 -24.501s31.667 -8.5 41 -8.5c2.66699 0 4 -5.66699 4 -17s-0.666992 -18 -2 -20c-2.66699 0 -23.167 1.33301 -61.5 4s-66.166 4 -83.499 4c-4.66699 0 -55 -2.66699 -151 -8c-2.66699 2.66699 -4 9.5 -4 20.5s1.33301 16.5 4 16.5z
M258.999 276.003c20 -2 44.666 -3 73.999 -3c26.667 0 50.334 0.666992 71.001 2l3 5l-72 179l-78 -179c0 -2.66699 0.666992 -4 2 -4z" />
    <glyph glyph-name="Aacute" unicode="&#xc1;" horiz-adv-x="720" 
d="M317 748c0 4 14.5 20.332 43.5 48.999s54.5 51.334 76.5 68.001c5.33301 2.66699 11.333 4 18 4c12 0 24.333 -3.16699 37 -9.5s19 -15.833 19 -28.5c0 -16 -27 -37.167 -81 -63.5s-87 -39.5 -99 -39.5c-3.33301 0 -6.5 2.5 -9.5 7.5s-4.5 9.16699 -4.5 12.5zM423 32.999
c14.667 0 29.666 3.16895 44.999 9.50195s23 14.833 23 25.5c0 1.33301 -8.33301 23.666 -25 66.999l-30 73c-2.66699 2.66699 -5 4 -7 4c-12.667 0.666992 -44.667 1 -96 1c-44 0 -77.667 -0.333008 -101 -1c-2.66699 0 -5 -1.66699 -7 -5l-33 -76
c-13.333 -30 -20 -50.333 -20 -61s6 -19 18 -25s22.5 -9.5 31.5 -10.5s16.833 -1.5 23.5 -1.5c2 -0.666992 3 -6 3 -16s-0.666992 -17 -2 -21c-8.66699 0.666992 -26.167 2.16699 -52.5 4.5s-47.833 3.5 -64.5 3.5s-36.667 -1.16699 -60 -3.5s-41.333 -3.83301 -54 -4.5
c-2.66699 2.66699 -4 7.66699 -4 15c0 14 0.666992 21 2 21c8 0 21.333 3.5 40 10.5s30.334 14.167 35.001 21.5c5.33301 8 10.833 17.833 16.5 29.5l13.5 28.5l5 12l221 508c7.33301 17.333 19.666 26 36.999 26c10 0 18 -4.33301 24 -13l205 -507l33 -82
c4 -10.667 15 -18.834 33 -24.501s31.667 -8.5 41 -8.5c2.66699 0 4 -5.66699 4 -17s-0.666992 -18 -2 -20c-2.66699 0 -23.167 1.33301 -61.5 4s-66.166 4 -83.499 4c-4.66699 0 -55 -2.66699 -151 -8c-2.66699 2.66699 -4 9.5 -4 20.5s1.33301 16.5 4 16.5z
M258.999 276.001c20 -2 44.666 -3 73.999 -3c26.667 0 50.334 0.666992 71.001 2l3 5l-72 179l-78 -179c0 -2.66699 0.666992 -4 2 -4z" />
    <glyph glyph-name="Acircumflex" unicode="&#xc2;" horiz-adv-x="720" 
d="M495 728c-5.33301 0 -22.332 7.5 -50.999 22.5s-51.667 28.167 -69 39.5c-17.333 -11.333 -40.333 -24.5 -69 -39.5s-45.667 -22.5 -51 -22.5c-6.66699 0 -10 6.33301 -10 19c18.667 14 43 35.667 73 65c14 13.333 28.333 29.333 43 48c5.33301 6 9.66602 9 12.999 9
c4 0 9 -3 15 -9c1.33301 -1.33301 6.33301 -7 15 -17s17 -19 25 -27c32 -32 57.333 -55 76 -69c0 -12.667 -3.33301 -19 -10 -19zM423.001 33c14.667 0 29.666 3.16895 44.999 9.50195s23 14.833 23 25.5c0 1.33301 -8.33301 23.666 -25 66.999l-30 73
c-2.66699 2.66699 -5 4 -7 4c-12.667 0.666992 -44.667 1 -96 1c-44 0 -77.667 -0.333008 -101 -1c-2.66699 0 -5 -1.66699 -7 -5l-33 -76c-13.333 -30 -20 -50.333 -20 -61s6 -19 18 -25s22.5 -9.5 31.5 -10.5s16.833 -1.5 23.5 -1.5c2 -0.666992 3 -6 3 -16
s-0.666992 -17 -2 -21c-8.66699 0.666992 -26.167 2.16699 -52.5 4.5s-47.833 3.5 -64.5 3.5s-36.667 -1.16699 -60 -3.5s-41.333 -3.83301 -54 -4.5c-2.66699 2.66699 -4 7.66699 -4 15c0 14 0.666992 21 2 21c8 0 21.333 3.5 40 10.5s30.334 14.167 35.001 21.5
c5.33301 8 10.833 17.833 16.5 29.5l13.5 28.5l5 12l221 508c7.33301 17.333 19.666 26 36.999 26c10 0 18 -4.33301 24 -13l205 -507l33 -82c4 -10.667 15 -18.834 33 -24.501s31.667 -8.5 41 -8.5c2.66699 0 4 -5.66699 4 -17s-0.666992 -18 -2 -20
c-2.66699 0 -23.167 1.33301 -61.5 4s-66.166 4 -83.499 4c-4.66699 0 -55 -2.66699 -151 -8c-2.66699 2.66699 -4 9.5 -4 20.5s1.33301 16.5 4 16.5zM259 276.002c20 -2 44.666 -3 73.999 -3c26.667 0 50.334 0.666992 71.001 2l3 5l-72 179l-78 -179
c0 -2.66699 0.666992 -4 2 -4z" />
    <glyph glyph-name="Atilde" unicode="&#xc3;" horiz-adv-x="720" 
d="M194 739c-5.33301 0 -7.99902 7.33301 -7.99902 22c0 16 6 32.667 18 50c25.333 34 54.666 51 87.999 51c25.333 0 57.333 -11.333 96 -34s70.667 -34 96 -34c12.667 0 27 9.5 43 28.5s25.667 28.5 29 28.5c5.33301 0 8 -7.33301 8 -22c0 -16.667 -6 -33.667 -18 -51
c-23.333 -33.333 -52 -50 -86 -50c-25.333 0 -57.333 11.333 -96 34s-70.667 34 -96 34c-12 0 -26.667 -9.5 -44 -28.5s-27.333 -28.5 -30 -28.5zM423.001 33c14.667 0 29.666 3.16895 44.999 9.50195s23 14.833 23 25.5c0 1.33301 -8.33301 23.666 -25 66.999l-30 73
c-2.66699 2.66699 -5 4 -7 4c-12.667 0.666992 -44.667 1 -96 1c-44 0 -77.667 -0.333008 -101 -1c-2.66699 0 -5 -1.66699 -7 -5l-33 -76c-13.333 -30 -20 -50.333 -20 -61s6 -19 18 -25s22.5 -9.5 31.5 -10.5s16.833 -1.5 23.5 -1.5c2 -0.666992 3 -6 3 -16
s-0.666992 -17 -2 -21c-8.66699 0.666992 -26.167 2.16699 -52.5 4.5s-47.833 3.5 -64.5 3.5s-36.667 -1.16699 -60 -3.5s-41.333 -3.83301 -54 -4.5c-2.66699 2.66699 -4 7.66699 -4 15c0 14 0.666992 21 2 21c8 0 21.333 3.5 40 10.5s30.334 14.167 35.001 21.5
c5.33301 8 10.833 17.833 16.5 29.5l13.5 28.5l5 12l221 508c7.33301 17.333 19.666 26 36.999 26c10 0 18 -4.33301 24 -13l205 -507l33 -82c4 -10.667 15 -18.834 33 -24.501s31.667 -8.5 41 -8.5c2.66699 0 4 -5.66699 4 -17s-0.666992 -18 -2 -20
c-2.66699 0 -23.167 1.33301 -61.5 4s-66.166 4 -83.499 4c-4.66699 0 -55 -2.66699 -151 -8c-2.66699 2.66699 -4 9.5 -4 20.5s1.33301 16.5 4 16.5zM259 276.002c20 -2 44.666 -3 73.999 -3c26.667 0 50.334 0.666992 71.001 2l3 5l-72 179l-78 -179
c0 -2.66699 0.666992 -4 2 -4z" />
    <glyph glyph-name="Adieresis" unicode="&#xc4;" horiz-adv-x="720" 
d="M416 802c0 20.667 7.16699 38.167 21.5 52.5s31.833 21.5 52.5 21.5s38.167 -7.16699 52.5 -21.5s21.5 -31.833 21.5 -52.5s-7.16699 -38.167 -21.5 -52.5s-31.833 -21.5 -52.5 -21.5s-38.167 7.16699 -52.5 21.5s-21.5 31.833 -21.5 52.5zM186 802
c0 20.667 7.16699 38.167 21.5 52.5s31.833 21.5 52.5 21.5s38.167 -7.16699 52.5 -21.5s21.5 -31.833 21.5 -52.5s-7.16699 -38.167 -21.5 -52.5s-31.833 -21.5 -52.5 -21.5s-38.167 7.16699 -52.5 21.5s-21.5 31.833 -21.5 52.5zM423 33
c14.667 0 29.666 3.16895 44.999 9.50195s23 14.833 23 25.5c0 1.33301 -8.33301 23.666 -25 66.999l-30 73c-2.66699 2.66699 -5 4 -7 4c-12.667 0.666992 -44.667 1 -96 1c-44 0 -77.667 -0.333008 -101 -1c-2.66699 0 -5 -1.66699 -7 -5l-33 -76
c-13.333 -30 -20 -50.333 -20 -61s6 -19 18 -25s22.5 -9.5 31.5 -10.5s16.833 -1.5 23.5 -1.5c2 -0.666992 3 -6 3 -16s-0.666992 -17 -2 -21c-8.66699 0.666992 -26.167 2.16699 -52.5 4.5s-47.833 3.5 -64.5 3.5s-36.667 -1.16699 -60 -3.5s-41.333 -3.83301 -54 -4.5
c-2.66699 2.66699 -4 7.66699 -4 15c0 14 0.666992 21 2 21c8 0 21.333 3.5 40 10.5s30.334 14.167 35.001 21.5c5.33301 8 10.833 17.833 16.5 29.5l13.5 28.5l5 12l221 508c7.33301 17.333 19.666 26 36.999 26c10 0 18 -4.33301 24 -13l205 -507l33 -82
c4 -10.667 15 -18.834 33 -24.501s31.667 -8.5 41 -8.5c2.66699 0 4 -5.66699 4 -17s-0.666992 -18 -2 -20c-2.66699 0 -23.167 1.33301 -61.5 4s-66.166 4 -83.499 4c-4.66699 0 -55 -2.66699 -151 -8c-2.66699 2.66699 -4 9.5 -4 20.5s1.33301 16.5 4 16.5z
M258.999 276.002c20 -2 44.666 -3 73.999 -3c26.667 0 50.334 0.666992 71.001 2l3 5l-72 179l-78 -179c0 -2.66699 0.666992 -4 2 -4z" />
    <glyph glyph-name="Aring" unicode="&#xc5;" horiz-adv-x="720" 
d="M322 759c0 -15.333 5.16699 -28.166 15.5 -38.499s22.833 -15.5 37.5 -15.5s27.167 5.16699 37.5 15.5s15.5 23.166 15.5 38.499s-5.16699 28.166 -15.5 38.499s-22.833 15.5 -37.5 15.5s-27.167 -5.16699 -37.5 -15.5s-15.5 -23.166 -15.5 -38.499zM276 759
c0 26.667 9.66699 49.667 29 69s42.666 29 69.999 29s50.5 -9.5 69.5 -28.5s28.5 -42.167 28.5 -69.5s-9.66699 -50.666 -29 -69.999s-42.333 -29 -69 -29c-27.333 0 -50.666 9.66699 -69.999 29s-29 42.666 -29 69.999zM423 33c14.667 0 29.666 3.16895 44.999 9.50195
s23 14.833 23 25.5c0 1.33301 -8.33301 23.666 -25 66.999l-30 73c-2.66699 2.66699 -5 4 -7 4c-12.667 0.666992 -44.667 1 -96 1c-44 0 -77.667 -0.333008 -101 -1c-2.66699 0 -5 -1.66699 -7 -5l-33 -76c-13.333 -30 -20 -50.333 -20 -61s6 -19 18 -25
s22.5 -9.5 31.5 -10.5s16.833 -1.5 23.5 -1.5c2 -0.666992 3 -6 3 -16s-0.666992 -17 -2 -21c-8.66699 0.666992 -26.167 2.16699 -52.5 4.5s-47.833 3.5 -64.5 3.5s-36.667 -1.16699 -60 -3.5s-41.333 -3.83301 -54 -4.5c-2.66699 2.66699 -4 7.66699 -4 15
c0 14 0.666992 21 2 21c8 0 21.333 3.5 40 10.5s30.334 14.167 35.001 21.5c5.33301 8 10.833 17.833 16.5 29.5l13.5 28.5l5 12l221 508c7.33301 17.333 19.666 26 36.999 26c10 0 18 -4.33301 24 -13l205 -507l33 -82c4 -10.667 15 -18.834 33 -24.501
s31.667 -8.5 41 -8.5c2.66699 0 4 -5.66699 4 -17s-0.666992 -18 -2 -20c-2.66699 0 -23.167 1.33301 -61.5 4s-66.166 4 -83.499 4c-4.66699 0 -55 -2.66699 -151 -8c-2.66699 2.66699 -4 9.5 -4 20.5s1.33301 16.5 4 16.5zM258.999 276.002c20 -2 44.666 -3 73.999 -3
c26.667 0 50.334 0.666992 71.001 2l3 5l-72 179l-78 -179c0 -2.66699 0.666992 -4 2 -4z" />
    <glyph glyph-name="AE" unicode="&#xc6;" horiz-adv-x="931" 
d="M429 584c2.66699 4 4.00293 8.66504 4.00293 13.998c0 7.33301 -6.33301 14 -19 20s-22.667 9 -30 9c-2.66699 0 -4 5.66699 -4 17s1 18 3 20c47.333 -5.33301 93.333 -8 138 -8c30 0 82 1.33301 156 4s129.667 4 167 4c0.666992 -6.66699 10.334 -56 29.001 -148
c-3.33301 -3.33301 -11 -5 -23 -5c-7.33301 0 -12 2.33301 -14 7c-12.667 25.333 -32.667 47 -60 65s-54 27 -80 27h-38c-42 0 -63.667 -4.33301 -65 -13c-3.33301 -16 -5 -42 -5 -78v-154c0 -4 14.333 -6 43 -6h53c41.333 0 64 1.33301 68 4
c3.33301 2.66699 6 12.334 8 29.001c1.33301 10 3.33301 19.667 6 29c0.666992 4.66699 5.66699 7 15 7c11.333 0 18.666 -1.66699 21.999 -5v-189c-2.66699 -2.66699 -9.66699 -4 -21 -4c-8.66699 0 -14 2.66699 -16 8l-7 24c-2 6.66699 -3.66699 11.667 -5 15
s-2.83301 6.33301 -4.5 9s-2.83398 4.33398 -3.50098 5.00098s-2 1.5 -4 2.5s-3.33301 1.83301 -4 2.5c-8.66699 5.33301 -34.667 8 -78 8c-48 0 -72 -3 -72 -9v-154c0 -32 2.66699 -55.667 8 -71c3.33301 -10.667 26 -16 68 -16h26c41.333 0 78.666 8.66699 111.999 26
c11.333 6 24.166 17.333 38.499 34s25.5 35.334 33.5 56.001c1.33301 4 6 6 14 6c16 0 26 -2 30 -6c-32.667 -92 -50.667 -149.333 -54 -172c-38 0 -97.333 0.666992 -178 2s-135.334 2 -164.001 2l-140 -6c-2.66699 2.66699 -4 8.33398 -4 17.001c0 13.333 1.33301 20 4 20
c7.33301 0 18.666 2.66699 33.999 8s24 10.333 26 15c4 15.333 6 41.666 6 78.999v65c0 6.66699 -3 10 -9 10c-17.333 0.666992 -40.333 1 -69 1c-38 0 -68.667 -0.333008 -92 -1c-4 0 -6.66699 -1.66699 -8 -5l-47 -76c-20 -30 -31 -50.667 -33 -62
c-2 -10.667 1.33301 -18.334 10 -23.001c16 -7.33301 36 -11 60 -11c2 0 2 -5.16699 0 -15.5s-4 -17.5 -6 -21.5c-9.33301 0.666992 -26.666 2.16699 -51.999 4.5s-46.333 3.5 -63 3.5c-17.333 0 -40 -1.16699 -68 -3.5s-47.667 -3.83301 -59 -4.5
c-1.33301 1.33301 -2 5.33301 -2 12c0 3.33301 0.833008 8.33301 2.5 15s2.83398 10 3.50098 10c8 0 23.5 4 46.5 12s37.5 16 43.5 24l41 63zM448.003 281.998l-0.000976562 193.001c0 3.33301 -1 5 -3 5c-2.66699 0 -5 -1.66699 -7 -5l-122 -197
c0 -2.66699 0.666992 -4 2 -4c20 -2 41.667 -3 65 -3c9.33301 0 16.333 0.166992 21 0.5s9.83398 0.666016 15.501 0.999023s12.167 0.5 19.5 0.5c6 0 9 3 9 9z" />
    <glyph glyph-name="Ccedilla" unicode="&#xc7;" horiz-adv-x="638" 
d="M348 -32c9.33301 0.666992 16.666 0.999023 21.999 0.999023c16.667 0 31.5 -6.16699 44.5 -18.5s19.5 -26.166 19.5 -41.499c0 -28 -10.167 -50.333 -30.5 -67s-48.166 -25 -83.499 -25c-25.333 0 -44.333 6.33301 -57 19c-1.33301 5.33301 -2 12 -2 20
c0 10.667 2.66699 16 8 16c0.666992 0 8 -2.83301 22 -8.5s26.333 -8.5 37 -8.5c15.333 0 26.833 3.33301 34.5 10s11.5 14.667 11.5 24c0 22 -9.66699 33 -29 33c-12 0 -23.667 -2.33301 -35 -7c-1.33301 0 -4.5 2.66699 -9.5 8s-7.16699 9 -6.5 11
c4 6.66699 10.167 18.5 18.5 35.5l14.5 29.5h37zM611 179.999c0 -9.33301 -5.16797 -35.332 -15.501 -77.999s-18.833 -65.334 -25.5 -68.001c-74.667 -27.333 -149.667 -41 -225 -41c-88 0 -163.333 32.5 -226 97.5s-94 142.167 -94 231.5
c0 94.667 31.5 175.834 94.5 243.501s141.5 101.5 235.5 101.5c72.667 0 149 -9.66699 229 -29c3.33301 -0.666992 7.5 -23 12.5 -67s7.5 -71 7.5 -81s-9 -15 -27 -15c-0.666992 0 -6 1 -16 3c-3.33301 12 -8.83301 24.667 -16.5 38s-19 27.666 -34 42.999
s-35.667 27.833 -62 37.5s-55.833 14.5 -88.5 14.5c-119.333 0 -179 -89.333 -179 -268c0 -83.333 18.333 -153.5 55 -210.5s88.667 -85.5 156 -85.5c49.333 0 92 18 128 54c8.66699 8.66699 16.5 20.5 23.5 35.5s12.333 27.667 16 38s5.83398 15.5 6.50098 15.5
c27.333 0 42.333 -3.33301 45 -10z" />
    <glyph glyph-name="Egrave" unicode="&#xc8;" horiz-adv-x="598" 
d="M365 748c0 -3.33301 -1.5 -7.49902 -4.5 -12.499s-6.16699 -7.5 -9.5 -7.5c-12 0 -45 13.167 -99 39.5s-81 47.5 -81 63.5c0 12.667 6.33301 22.167 19 28.5s25 9.5 37 9.5c6.66699 0 12.667 -1.33301 18 -4c22 -16.667 47.5 -39.334 76.5 -68.001s43.5 -45 43.5 -49z
M176 659.001c29.333 0 81.002 0.830078 155.002 2.49707s130 2.5 168 2.5c0.666992 -6.66699 10.334 -56 29.001 -148c-3.33301 -3.33301 -11 -5 -23 -5c-7.33301 0 -12 2.33301 -14 7c-12.667 25.333 -32.667 47 -60 65s-54 27 -80 27h-38c-42 0 -63.667 -4.33301 -65 -13
c-3.33301 -16 -5 -42 -5 -78v-154c0 -4 14.333 -6 43 -6h53c41.333 0 64 1.33301 68 4c3.33301 2.66699 6 12.334 8 29.001c1.33301 10 3.33301 19.667 6 29c0.666992 4.66699 5.66699 7 15 7c11.333 0 18.666 -1.66699 21.999 -5v-189
c-2.66699 -2.66699 -9.66699 -4 -21 -4c-8.66699 0 -14 2.66699 -16 8l-7 24c-2 6.66699 -3.66699 11.667 -5 15s-2.83301 6.33301 -4.5 9s-2.83398 4.33398 -3.50098 5.00098s-2 1.5 -4 2.5s-3.33301 1.83301 -4 2.5c-8.66699 5.33301 -34.667 8 -78 8c-48 0 -72 -3 -72 -9
v-154c0 -32 2.66699 -55.667 8 -71c3.33301 -10.667 26 -16 68 -16h26c41.333 0 78.666 8.66699 111.999 26c11.333 6 24.166 17.333 38.499 34s25.5 35.334 33.5 56.001c0.666992 4 5.33398 6 14.001 6c16 0 26 -2 30 -6c-32.667 -92 -50.667 -149.333 -54 -172
c-34 0 -88 0.666992 -162 2s-134 2 -180 2l-146 -6c-2.66699 2.66699 -4 8.33398 -4 17.001c0 13.333 1.33301 20 4 20c8 0 20.5 2.33301 37.5 7s26.5 9.66699 28.5 15c4 15.333 6 44.666 6 87.999v378c0 36.667 -2 62.667 -6 78c-2 5.33301 -11.833 11.333 -29.5 18
s-30.167 10 -37.5 10c-2.66699 0 -4 6 -4 18c0 10.667 1 17 3 19c53.333 -3.33301 102.333 -5 147 -5z" />
    <glyph glyph-name="Eacute" unicode="&#xc9;" horiz-adv-x="598" 
d="M221 748c0 4 14.5 20.332 43.5 48.999s54.5 51.334 76.5 68.001c5.33301 2.66699 11.333 4 18 4c12 0 24.333 -3.16699 37 -9.5s19 -15.833 19 -28.5c0 -16 -27 -37.167 -81 -63.5s-87 -39.5 -99 -39.5c-3.33301 0 -6.5 2.5 -9.5 7.5s-4.5 9.16699 -4.5 12.5z
M176 658.999c29.333 0 81.002 0.830078 155.002 2.49707s130 2.5 168 2.5c0.666992 -6.66699 10.334 -56 29.001 -148c-3.33301 -3.33301 -11 -5 -23 -5c-7.33301 0 -12 2.33301 -14 7c-12.667 25.333 -32.667 47 -60 65s-54 27 -80 27h-38c-42 0 -63.667 -4.33301 -65 -13
c-3.33301 -16 -5 -42 -5 -78v-154c0 -4 14.333 -6 43 -6h53c41.333 0 64 1.33301 68 4c3.33301 2.66699 6 12.334 8 29.001c1.33301 10 3.33301 19.667 6 29c0.666992 4.66699 5.66699 7 15 7c11.333 0 18.666 -1.66699 21.999 -5v-189
c-2.66699 -2.66699 -9.66699 -4 -21 -4c-8.66699 0 -14 2.66699 -16 8l-7 24c-2 6.66699 -3.66699 11.667 -5 15s-2.83301 6.33301 -4.5 9s-2.83398 4.33398 -3.50098 5.00098s-2 1.5 -4 2.5s-3.33301 1.83301 -4 2.5c-8.66699 5.33301 -34.667 8 -78 8c-48 0 -72 -3 -72 -9
v-154c0 -32 2.66699 -55.667 8 -71c3.33301 -10.667 26 -16 68 -16h26c41.333 0 78.666 8.66699 111.999 26c11.333 6 24.166 17.333 38.499 34s25.5 35.334 33.5 56.001c0.666992 4 5.33398 6 14.001 6c16 0 26 -2 30 -6c-32.667 -92 -50.667 -149.333 -54 -172
c-34 0 -88 0.666992 -162 2s-134 2 -180 2l-146 -6c-2.66699 2.66699 -4 8.33398 -4 17.001c0 13.333 1.33301 20 4 20c8 0 20.5 2.33301 37.5 7s26.5 9.66699 28.5 15c4 15.333 6 44.666 6 87.999v378c0 36.667 -2 62.667 -6 78c-2 5.33301 -11.833 11.333 -29.5 18
s-30.167 10 -37.5 10c-2.66699 0 -4 6 -4 18c0 10.667 1 17 3 19c53.333 -3.33301 102.333 -5 147 -5z" />
    <glyph glyph-name="Ecircumflex" unicode="&#xca;" horiz-adv-x="598" 
d="M409 728c-5.33301 0 -22.332 7.5 -50.999 22.5s-51.667 28.167 -69 39.5c-17.333 -11.333 -40.333 -24.5 -69 -39.5s-45.667 -22.5 -51 -22.5c-6.66699 0 -10 6.33301 -10 19c18.667 14 43 35.667 73 65c14 13.333 28.333 29.333 43 48c5.33301 6 9.66602 9 12.999 9
c4 0 9 -3 15 -9c1.33301 -1.33301 6.33301 -7 15 -17s17 -19 25 -27c32 -32 57.333 -55 76 -69c0 -12.667 -3.33301 -19 -10 -19zM176.001 659c29.333 0 81.002 0.830078 155.002 2.49707s130 2.5 168 2.5c0.666992 -6.66699 10.334 -56 29.001 -148
c-3.33301 -3.33301 -11 -5 -23 -5c-7.33301 0 -12 2.33301 -14 7c-12.667 25.333 -32.667 47 -60 65s-54 27 -80 27h-38c-42 0 -63.667 -4.33301 -65 -13c-3.33301 -16 -5 -42 -5 -78v-154c0 -4 14.333 -6 43 -6h53c41.333 0 64 1.33301 68 4
c3.33301 2.66699 6 12.334 8 29.001c1.33301 10 3.33301 19.667 6 29c0.666992 4.66699 5.66699 7 15 7c11.333 0 18.666 -1.66699 21.999 -5v-189c-2.66699 -2.66699 -9.66699 -4 -21 -4c-8.66699 0 -14 2.66699 -16 8l-7 24c-2 6.66699 -3.66699 11.667 -5 15
s-2.83301 6.33301 -4.5 9s-2.83398 4.33398 -3.50098 5.00098s-2 1.5 -4 2.5s-3.33301 1.83301 -4 2.5c-8.66699 5.33301 -34.667 8 -78 8c-48 0 -72 -3 -72 -9v-154c0 -32 2.66699 -55.667 8 -71c3.33301 -10.667 26 -16 68 -16h26c41.333 0 78.666 8.66699 111.999 26
c11.333 6 24.166 17.333 38.499 34s25.5 35.334 33.5 56.001c0.666992 4 5.33398 6 14.001 6c16 0 26 -2 30 -6c-32.667 -92 -50.667 -149.333 -54 -172c-34 0 -88 0.666992 -162 2s-134 2 -180 2l-146 -6c-2.66699 2.66699 -4 8.33398 -4 17.001c0 13.333 1.33301 20 4 20
c8 0 20.5 2.33301 37.5 7s26.5 9.66699 28.5 15c4 15.333 6 44.666 6 87.999v378c0 36.667 -2 62.667 -6 78c-2 5.33301 -11.833 11.333 -29.5 18s-30.167 10 -37.5 10c-2.66699 0 -4 6 -4 18c0 10.667 1 17 3 19c53.333 -3.33301 102.333 -5 147 -5z" />
    <glyph glyph-name="Edieresis" unicode="&#xcb;" horiz-adv-x="598" 
d="M330 802c0 20.667 7.16699 38.167 21.5 52.5s31.833 21.5 52.5 21.5s38.167 -7.16699 52.5 -21.5s21.5 -31.833 21.5 -52.5s-7.16699 -38.167 -21.5 -52.5s-31.833 -21.5 -52.5 -21.5s-38.167 7.16699 -52.5 21.5s-21.5 31.833 -21.5 52.5zM100 802
c0 20.667 7.16699 38.167 21.5 52.5s31.833 21.5 52.5 21.5s38.167 -7.16699 52.5 -21.5s21.5 -31.833 21.5 -52.5s-7.16699 -38.167 -21.5 -52.5s-31.833 -21.5 -52.5 -21.5s-38.167 7.16699 -52.5 21.5s-21.5 31.833 -21.5 52.5zM176 659
c29.333 0 81.002 0.830078 155.002 2.49707s130 2.5 168 2.5c0.666992 -6.66699 10.334 -56 29.001 -148c-3.33301 -3.33301 -11 -5 -23 -5c-7.33301 0 -12 2.33301 -14 7c-12.667 25.333 -32.667 47 -60 65s-54 27 -80 27h-38c-42 0 -63.667 -4.33301 -65 -13
c-3.33301 -16 -5 -42 -5 -78v-154c0 -4 14.333 -6 43 -6h53c41.333 0 64 1.33301 68 4c3.33301 2.66699 6 12.334 8 29.001c1.33301 10 3.33301 19.667 6 29c0.666992 4.66699 5.66699 7 15 7c11.333 0 18.666 -1.66699 21.999 -5v-189
c-2.66699 -2.66699 -9.66699 -4 -21 -4c-8.66699 0 -14 2.66699 -16 8l-7 24c-2 6.66699 -3.66699 11.667 -5 15s-2.83301 6.33301 -4.5 9s-2.83398 4.33398 -3.50098 5.00098s-2 1.5 -4 2.5s-3.33301 1.83301 -4 2.5c-8.66699 5.33301 -34.667 8 -78 8c-48 0 -72 -3 -72 -9
v-154c0 -32 2.66699 -55.667 8 -71c3.33301 -10.667 26 -16 68 -16h26c41.333 0 78.666 8.66699 111.999 26c11.333 6 24.166 17.333 38.499 34s25.5 35.334 33.5 56.001c0.666992 4 5.33398 6 14.001 6c16 0 26 -2 30 -6c-32.667 -92 -50.667 -149.333 -54 -172
c-34 0 -88 0.666992 -162 2s-134 2 -180 2l-146 -6c-2.66699 2.66699 -4 8.33398 -4 17.001c0 13.333 1.33301 20 4 20c8 0 20.5 2.33301 37.5 7s26.5 9.66699 28.5 15c4 15.333 6 44.666 6 87.999v378c0 36.667 -2 62.667 -6 78c-2 5.33301 -11.833 11.333 -29.5 18
s-30.167 10 -37.5 10c-2.66699 0 -4 6 -4 18c0 10.667 1 17 3 19c53.333 -3.33301 102.333 -5 147 -5z" />
    <glyph glyph-name="Igrave" unicode="&#xcc;" horiz-adv-x="346" 
d="M242 748c0 -3.33301 -1.5 -7.49902 -4.5 -12.499s-6.16699 -7.5 -9.5 -7.5c-12 0 -45 13.167 -99 39.5s-81 47.5 -81 63.5c0 12.667 6.33301 22.167 19 28.5s25 9.5 37 9.5c6.66699 0 12.667 -1.33301 18 -4c22 -16.667 47.5 -39.334 76.5 -68.001s43.5 -45 43.5 -49z
M102 522.001c0 42.667 -2.66895 68.668 -8.00195 78.001c-3.33301 5.33301 -12.666 10.833 -27.999 16.5s-26.666 8.5 -33.999 8.5c-2.66699 0 -4 5.66699 -4 17c0 12 0.666992 18.667 2 20c10 -0.666992 26 -1.83398 48 -3.50098s38.5 -2.66699 49.5 -3
s26.833 -0.166016 47.5 0.500977c13.333 0 60 2 140 6c2 -6 3 -12 3 -18c0 -12.667 -1.33301 -19 -4 -19c-6 0 -18 -2.83301 -36 -8.5s-27.667 -10.834 -29 -15.501c-2 -8 -3.66699 -19.167 -5 -33.5s-2 -26.5 -2 -36.5v-15v-370c0 -38 2.66699 -67.333 8 -88
c1.33301 -4.66699 10.5 -10 27.5 -16s28.5 -9 34.5 -9c2.66699 0 4 -6.33301 4 -19c0 -8 -0.666992 -14 -2 -18c-4.66699 0 -24.667 1.33301 -60 4s-61.666 4 -78.999 4c-18 0 -44.333 -1.16699 -79 -3.5l-66 -4.5c-2.66699 2.66699 -4 8 -4 16c0 14 1 21 3 21
c7.33301 0 19.666 2.83301 36.999 8.5s27 11.167 29 16.5c4.66699 18 7 44.667 7 80v384z" />
    <glyph glyph-name="Iacute" unicode="&#xcd;" horiz-adv-x="346" 
d="M100 748c0 4 14.5 20.332 43.5 48.999s54.5 51.334 76.5 68.001c5.33301 2.66699 11.333 4 18 4c12 0 24.333 -3.16699 37 -9.5s19 -15.833 19 -28.5c0 -16 -27 -37.167 -81 -63.5s-87 -39.5 -99 -39.5c-3.33301 0 -6.5 2.5 -9.5 7.5s-4.5 9.16699 -4.5 12.5z
M102 521.999c0 42.667 -2.66895 68.668 -8.00195 78.001c-3.33301 5.33301 -12.666 10.833 -27.999 16.5s-26.666 8.5 -33.999 8.5c-2.66699 0 -4 5.66699 -4 17c0 12 0.666992 18.667 2 20c10 -0.666992 26 -1.83398 48 -3.50098s38.5 -2.66699 49.5 -3
s26.833 -0.166016 47.5 0.500977c13.333 0 60 2 140 6c2 -6 3 -12 3 -18c0 -12.667 -1.33301 -19 -4 -19c-6 0 -18 -2.83301 -36 -8.5s-27.667 -10.834 -29 -15.501c-2 -8 -3.66699 -19.167 -5 -33.5s-2 -26.5 -2 -36.5v-15v-370c0 -38 2.66699 -67.333 8 -88
c1.33301 -4.66699 10.5 -10 27.5 -16s28.5 -9 34.5 -9c2.66699 0 4 -6.33301 4 -19c0 -8 -0.666992 -14 -2 -18c-4.66699 0 -24.667 1.33301 -60 4s-61.666 4 -78.999 4c-18 0 -44.333 -1.16699 -79 -3.5l-66 -4.5c-2.66699 2.66699 -4 8 -4 16c0 14 1 21 3 21
c7.33301 0 19.666 2.83301 36.999 8.5s27 11.167 29 16.5c4.66699 18 7 44.667 7 80v384z" />
    <glyph glyph-name="Icircumflex" unicode="&#xce;" horiz-adv-x="346" 
d="M292 728c-5.33301 0 -22.332 7.5 -50.999 22.5s-51.667 28.167 -69 39.5c-17.333 -11.333 -40.333 -24.5 -69 -39.5s-45.667 -22.5 -51 -22.5c-6.66699 0 -10 6.33301 -10 19c18.667 14 43 35.667 73 65c14 13.333 28.333 29.333 43 48c5.33301 6 9.66602 9 12.999 9
c4 0 9 -3 15 -9c1.33301 -1.33301 6.33301 -7 15 -17s17 -19 25 -27c32 -32 57.333 -55 76 -69c0 -12.667 -3.33301 -19 -10 -19zM102.001 522c0 42.667 -2.66895 68.668 -8.00195 78.001c-3.33301 5.33301 -12.666 10.833 -27.999 16.5s-26.666 8.5 -33.999 8.5
c-2.66699 0 -4 5.66699 -4 17c0 12 0.666992 18.667 2 20c10 -0.666992 26 -1.83398 48 -3.50098s38.5 -2.66699 49.5 -3s26.833 -0.166016 47.5 0.500977c13.333 0 60 2 140 6c2 -6 3 -12 3 -18c0 -12.667 -1.33301 -19 -4 -19c-6 0 -18 -2.83301 -36 -8.5
s-27.667 -10.834 -29 -15.501c-2 -8 -3.66699 -19.167 -5 -33.5s-2 -26.5 -2 -36.5v-15v-370c0 -38 2.66699 -67.333 8 -88c1.33301 -4.66699 10.5 -10 27.5 -16s28.5 -9 34.5 -9c2.66699 0 4 -6.33301 4 -19c0 -8 -0.666992 -14 -2 -18c-4.66699 0 -24.667 1.33301 -60 4
s-61.666 4 -78.999 4c-18 0 -44.333 -1.16699 -79 -3.5l-66 -4.5c-2.66699 2.66699 -4 8 -4 16c0 14 1 21 3 21c7.33301 0 19.666 2.83301 36.999 8.5s27 11.167 29 16.5c4.66699 18 7 44.667 7 80v384z" />
    <glyph glyph-name="Idieresis" unicode="&#xcf;" horiz-adv-x="346" 
d="M214 802c0 20.667 7.16699 38.167 21.5 52.5s31.833 21.5 52.5 21.5s38.167 -7.16699 52.5 -21.5s21.5 -31.833 21.5 -52.5s-7.16699 -38.167 -21.5 -52.5s-31.833 -21.5 -52.5 -21.5s-38.167 7.16699 -52.5 21.5s-21.5 31.833 -21.5 52.5zM-16 802
c0 20.667 7.16699 38.167 21.5 52.5s31.833 21.5 52.5 21.5s38.167 -7.16699 52.5 -21.5s21.5 -31.833 21.5 -52.5s-7.16699 -38.167 -21.5 -52.5s-31.833 -21.5 -52.5 -21.5s-38.167 7.16699 -52.5 21.5s-21.5 31.833 -21.5 52.5zM102 522
c0 42.667 -2.66895 68.668 -8.00195 78.001c-3.33301 5.33301 -12.666 10.833 -27.999 16.5s-26.666 8.5 -33.999 8.5c-2.66699 0 -4 5.66699 -4 17c0 12 0.666992 18.667 2 20c10 -0.666992 26 -1.83398 48 -3.50098s38.5 -2.66699 49.5 -3s26.833 -0.166016 47.5 0.500977
c13.333 0 60 2 140 6c2 -6 3 -12 3 -18c0 -12.667 -1.33301 -19 -4 -19c-6 0 -18 -2.83301 -36 -8.5s-27.667 -10.834 -29 -15.501c-2 -8 -3.66699 -19.167 -5 -33.5s-2 -26.5 -2 -36.5v-15v-370c0 -38 2.66699 -67.333 8 -88c1.33301 -4.66699 10.5 -10 27.5 -16
s28.5 -9 34.5 -9c2.66699 0 4 -6.33301 4 -19c0 -8 -0.666992 -14 -2 -18c-4.66699 0 -24.667 1.33301 -60 4s-61.666 4 -78.999 4c-18 0 -44.333 -1.16699 -79 -3.5l-66 -4.5c-2.66699 2.66699 -4 8 -4 16c0 14 1 21 3 21c7.33301 0 19.666 2.83301 36.999 8.5
s27 11.167 29 16.5c4.66699 18 7 44.667 7 80v384z" />
    <glyph glyph-name="Eth" unicode="&#xd0;" horiz-adv-x="706" 
d="M38 353l345 0.000976562c4 0 6 -4.66699 6 -14c0 -12.667 -2 -23.334 -6 -32.001h-346c-3.33301 0 -5 5 -5 15c0 14.667 2 25 6 31zM161 659.001l173.999 0.000976562c73.333 0 136.833 -16 190.5 -48s92.834 -72 117.501 -120s37 -99.667 37 -155
c0 -96.667 -30.667 -177.334 -92 -242.001s-146 -97 -254 -97c-12.667 0 -38.5 0.833008 -77.5 2.5s-70.5 2.5 -94.5 2.5l-146 -6c-2.66699 2.66699 -4 8.33398 -4 17.001c0 13.333 1.33301 20 4 20c8 0 20.5 2.33301 37.5 7s26.5 9.66699 28.5 15
c4 15.333 6 44.666 6 87.999v378c0 36.667 -2 62.667 -6 78c-2 5.33301 -11.833 11.333 -29.5 18s-30.167 10 -37.5 10c-2.66699 0 -4 6 -4 18c0 10.667 1 17 3 19c54 -3.33301 103 -5 147 -5zM227.999 524.002l-0.000976562 -388.001c0 -43.333 3 -66.666 9 -69.999
c14.667 -8.66699 52.334 -13 113.001 -13c56.667 0 100.5 24 131.5 72s46.5 119.667 46.5 215c0 73.333 -16.5 135.5 -49.5 186.5s-78.167 76.5 -135.5 76.5h-5c-56.667 0 -89 -5.33301 -97 -16c-8.66699 -12 -13 -33 -13 -63z" />
    <glyph glyph-name="Ntilde" unicode="&#xd1;" horiz-adv-x="777" 
d="M207 739c-5.33301 0 -7.99902 7.33301 -7.99902 22c0 16 6 32.667 18 50c25.333 34 54.666 51 87.999 51c25.333 0 57.333 -11.333 96 -34s70.667 -34 96 -34c12.667 0 27 9.5 43 28.5s25.667 28.5 29 28.5c5.33301 0 8 -7.33301 8 -22c0 -16.667 -6 -33.667 -18 -51
c-23.333 -33.333 -52 -50 -86 -50c-25.333 0 -57.333 11.333 -96 34s-70.667 34 -96 34c-12 0 -26.667 -9.5 -44 -28.5s-27.333 -28.5 -30 -28.5zM585.001 524c0 38 -4.33398 61.998 -13.001 71.998c-6 7.33301 -18.5 14 -37.5 20s-32.5 9 -40.5 9
c-2.66699 0 -4.33398 5.5 -5.00098 16.5s0 17.833 2 20.5c61.333 -5.33301 105.333 -8 132 -8c16.667 0 39.5 1.16699 68.5 3.5l55.5 4.5c2.66699 -5.33301 4 -11.333 4 -18c0 -12.667 -1.66699 -19 -5 -19c-36.667 0 -64.334 -11 -83.001 -33
c-9.33301 -11.333 -14 -35.666 -14 -72.999v-380c0 -24 1.33301 -70.667 4 -140c-2.66699 -2.66699 -11 -4 -25 -4c-8 0 -18.333 7.66699 -31 23l-407 506v-383c0 -36.667 2.66699 -60.334 8 -71.001c6 -11.333 20 -20.166 42 -26.499s38 -9.5 48 -9.5
c2 0 3.16699 -5.66699 3.5 -17s-0.166992 -18.333 -1.5 -21c-6 0 -25.667 1.33301 -59 4s-58.666 4 -75.999 4s-39.333 -1.16699 -66 -3.5s-46 -3.83301 -58 -4.5c-2 2 -3 8 -3 18c0 12.667 1 19 3 19c6.66699 0 14.334 0.666992 23.001 2s19.667 5.16602 33 11.499
s23 14.5 29 24.5c6.66699 10.667 10 35 10 73v393c0 34.667 -5 58.334 -15 71.001c-3.33301 4.66699 -15 8.66699 -35 12s-34.667 5 -44 5c-2.66699 0 -4.33398 5.5 -5.00098 16.5s0.333008 17.833 3 20.5c10.667 -0.666992 31.834 -2.16699 63.501 -4.5
s56.167 -3.5 73.5 -3.5c22.667 0 55.334 2.66699 98.001 8c11.333 -22.667 33.5 -55.5 66.5 -98.5l127.5 -159.5c52 -63.333 93.333 -115.333 124 -156c1.33301 4.66699 2 18.334 2 41.001v235z" />
    <glyph glyph-name="Ograve" unicode="&#xd2;" horiz-adv-x="695" 
d="M360 748c0 -3.33301 -1.5 -7.49902 -4.5 -12.499s-6.16699 -7.5 -9.5 -7.5c-12 0 -45 13.167 -99 39.5s-81 47.5 -81 63.5c0 12.667 6.33301 22.167 19 28.5s25 9.5 37 9.5c6.66699 0 12.667 -1.33301 18 -4c22 -16.667 47.5 -39.334 76.5 -68.001s43.5 -45 43.5 -49z
M331 611.001c-35.333 0 -64.665 -12.832 -87.998 -38.499s-39.5 -57.167 -48.5 -94.5s-13.5 -80 -13.5 -128c0 -34 3.16699 -67.5 9.5 -100.5s16 -65.333 29 -97s31.833 -57.334 56.5 -77.001s53.334 -29.5 86.001 -29.5c50 0 87.5 25.333 112.5 76s37.5 113 37.5 187
c0 36.667 -2.83301 71.5 -8.5 104.5s-14.834 65 -27.501 96s-31.334 55.667 -56.001 74s-54.334 27.5 -89.001 27.5zM25.001 328.002c0 93.333 31.5 173.166 94.5 239.499s138.5 99.5 226.5 99.5s163.667 -33.167 227 -99.5s95 -146.166 95 -239.499s-31.667 -173 -95 -239
s-139 -99 -227 -99s-163.5 33 -226.5 99s-94.5 145.667 -94.5 239z" />
    <glyph glyph-name="Oacute" unicode="&#xd3;" horiz-adv-x="695" 
d="M332 748c0 4 14.5 20.332 43.5 48.999s54.5 51.334 76.5 68.001c5.33301 2.66699 11.333 4 18 4c12 0 24.333 -3.16699 37 -9.5s19 -15.833 19 -28.5c0 -16 -27 -37.167 -81 -63.5s-87 -39.5 -99 -39.5c-3.33301 0 -6.5 2.5 -9.5 7.5s-4.5 9.16699 -4.5 12.5z
M331 610.999c-35.333 0 -64.665 -12.832 -87.998 -38.499s-39.5 -57.167 -48.5 -94.5s-13.5 -80 -13.5 -128c0 -34 3.16699 -67.5 9.5 -100.5s16 -65.333 29 -97s31.833 -57.334 56.5 -77.001s53.334 -29.5 86.001 -29.5c50 0 87.5 25.333 112.5 76s37.5 113 37.5 187
c0 36.667 -2.83301 71.5 -8.5 104.5s-14.834 65 -27.501 96s-31.334 55.667 -56.001 74s-54.334 27.5 -89.001 27.5zM25.001 328c0 93.333 31.5 173.166 94.5 239.499s138.5 99.5 226.5 99.5s163.667 -33.167 227 -99.5s95 -146.166 95 -239.499s-31.667 -173 -95 -239
s-139 -99 -227 -99s-163.5 33 -226.5 99s-94.5 145.667 -94.5 239z" />
    <glyph glyph-name="Ocircumflex" unicode="&#xd4;" horiz-adv-x="695" 
d="M466 728c-5.33301 0 -22.332 7.5 -50.999 22.5s-51.667 28.167 -69 39.5c-17.333 -11.333 -40.333 -24.5 -69 -39.5s-45.667 -22.5 -51 -22.5c-6.66699 0 -10 6.33301 -10 19c18.667 14 43 35.667 73 65c14 13.333 28.333 29.333 43 48c5.33301 6 9.66602 9 12.999 9
c4 0 9 -3 15 -9c1.33301 -1.33301 6.33301 -7 15 -17s17 -19 25 -27c32 -32 57.333 -55 76 -69c0 -12.667 -3.33301 -19 -10 -19zM331.001 611c-35.333 0 -64.665 -12.832 -87.998 -38.499s-39.5 -57.167 -48.5 -94.5s-13.5 -80 -13.5 -128c0 -34 3.16699 -67.5 9.5 -100.5
s16 -65.333 29 -97s31.833 -57.334 56.5 -77.001s53.334 -29.5 86.001 -29.5c50 0 87.5 25.333 112.5 76s37.5 113 37.5 187c0 36.667 -2.83301 71.5 -8.5 104.5s-14.834 65 -27.501 96s-31.334 55.667 -56.001 74s-54.334 27.5 -89.001 27.5zM25.002 328.001
c0 93.333 31.5 173.166 94.5 239.499s138.5 99.5 226.5 99.5s163.667 -33.167 227 -99.5s95 -146.166 95 -239.499s-31.667 -173 -95 -239s-139 -99 -227 -99s-163.5 33 -226.5 99s-94.5 145.667 -94.5 239z" />
    <glyph glyph-name="Otilde" unicode="&#xd5;" horiz-adv-x="695" 
d="M165 739c-5.33301 0 -7.99902 7.33301 -7.99902 22c0 16 6 32.667 18 50c25.333 34 54.666 51 87.999 51c25.333 0 57.333 -11.333 96 -34s70.667 -34 96 -34c12.667 0 27 9.5 43 28.5s25.667 28.5 29 28.5c5.33301 0 8 -7.33301 8 -22c0 -16.667 -6 -33.667 -18 -51
c-23.333 -33.333 -52 -50 -86 -50c-25.333 0 -57.333 11.333 -96 34s-70.667 34 -96 34c-12 0 -26.667 -9.5 -44 -28.5s-27.333 -28.5 -30 -28.5zM331.001 611c-35.333 0 -64.665 -12.832 -87.998 -38.499s-39.5 -57.167 -48.5 -94.5s-13.5 -80 -13.5 -128
c0 -34 3.16699 -67.5 9.5 -100.5s16 -65.333 29 -97s31.833 -57.334 56.5 -77.001s53.334 -29.5 86.001 -29.5c50 0 87.5 25.333 112.5 76s37.5 113 37.5 187c0 36.667 -2.83301 71.5 -8.5 104.5s-14.834 65 -27.501 96s-31.334 55.667 -56.001 74
s-54.334 27.5 -89.001 27.5zM25.002 328.001c0 93.333 31.5 173.166 94.5 239.499s138.5 99.5 226.5 99.5s163.667 -33.167 227 -99.5s95 -146.166 95 -239.499s-31.667 -173 -95 -239s-139 -99 -227 -99s-163.5 33 -226.5 99s-94.5 145.667 -94.5 239z" />
    <glyph glyph-name="Odieresis" unicode="&#xd6;" horiz-adv-x="695" 
d="M387 802c0 20.667 7.16699 38.167 21.5 52.5s31.833 21.5 52.5 21.5s38.167 -7.16699 52.5 -21.5s21.5 -31.833 21.5 -52.5s-7.16699 -38.167 -21.5 -52.5s-31.833 -21.5 -52.5 -21.5s-38.167 7.16699 -52.5 21.5s-21.5 31.833 -21.5 52.5zM157 802
c0 20.667 7.16699 38.167 21.5 52.5s31.833 21.5 52.5 21.5s38.167 -7.16699 52.5 -21.5s21.5 -31.833 21.5 -52.5s-7.16699 -38.167 -21.5 -52.5s-31.833 -21.5 -52.5 -21.5s-38.167 7.16699 -52.5 21.5s-21.5 31.833 -21.5 52.5zM331 611
c-35.333 0 -64.665 -12.832 -87.998 -38.499s-39.5 -57.167 -48.5 -94.5s-13.5 -80 -13.5 -128c0 -34 3.16699 -67.5 9.5 -100.5s16 -65.333 29 -97s31.833 -57.334 56.5 -77.001s53.334 -29.5 86.001 -29.5c50 0 87.5 25.333 112.5 76s37.5 113 37.5 187
c0 36.667 -2.83301 71.5 -8.5 104.5s-14.834 65 -27.501 96s-31.334 55.667 -56.001 74s-54.334 27.5 -89.001 27.5zM25.001 328.001c0 93.333 31.5 173.166 94.5 239.499s138.5 99.5 226.5 99.5s163.667 -33.167 227 -99.5s95 -146.166 95 -239.499s-31.667 -173 -95 -239
s-139 -99 -227 -99s-163.5 33 -226.5 99s-94.5 145.667 -94.5 239z" />
    <glyph glyph-name="multiply" unicode="&#xd7;" horiz-adv-x="425" 
d="M160 245c1.33301 1.33301 0.999023 3 -1.00098 5l-129 129c-4 4 -4.66699 8.33301 -2 13c7.33301 13.333 19.333 28.333 36 45c3.33301 3.33301 7.33301 2.66602 12 -2.00098l134 -134c2 -2 4.33301 -1.66699 7 1l135 135c3.33301 3.33301 7.33301 2.66602 12 -2.00098
c13.333 -13.333 24.666 -28.666 33.999 -45.999c0.666992 -2 1 -3.66699 1 -5s-0.333008 -2.33301 -1 -3l-1 -1l-129 -129c-2.66699 -2.66699 -3 -5 -1 -7l130 -130h1c0 -0.666992 0.333008 -1.66699 1 -3s0.333984 -3 -0.999023 -5
c-9.33301 -17.333 -20.666 -32.666 -33.999 -45.999c-2 -2 -4 -3.33301 -6 -4s-3.33301 -0.666992 -4 0l-2 1l-135 135c-3.33301 2.66699 -6 3 -8 1l-138 -138c-0.666992 -0.666992 -2.33398 -1 -5.00098 -1c-5.33301 0 -10.666 3 -15.999 9c-22 26 -30 42 -24 48z" />
    <glyph glyph-name="Oslash" unicode="&#xd8;" horiz-adv-x="700" 
d="M331 611c-35.333 0 -64.665 -12.832 -87.998 -38.499s-39.5 -57.167 -48.5 -94.5s-13.5 -80 -13.5 -128c0 -34 3.16699 -67.5 9.5 -100.5s16 -65.333 29 -97s31.833 -57.334 56.5 -77.001s53.334 -29.5 86.001 -29.5c50 0 87.5 25.333 112.5 76s37.5 113 37.5 187
c0 36.667 -2.83301 71.5 -8.5 104.5s-14.834 65 -27.501 96s-31.334 55.667 -56.001 74s-54.334 27.5 -89.001 27.5zM506.001 676.001c26.667 -10 39.334 -17 38.001 -21l-377 -673c-26.667 10 -39.334 17.333 -38.001 22zM346.001 667.001c88 0 163.667 -33.167 227 -99.5
s95 -146.166 95 -239.499s-31.667 -173 -95 -239s-139 -99 -227 -99s-163.5 33 -226.5 99s-94.5 145.667 -94.5 239s31.5 173.166 94.5 239.499s138.5 99.5 226.5 99.5z" />
    <glyph glyph-name="Ugrave" unicode="&#xd9;" horiz-adv-x="753" 
d="M430 748c0 -3.33301 -1.5 -7.49902 -4.5 -12.499s-6.16699 -7.5 -9.5 -7.5c-12 0 -45 13.167 -99 39.5s-81 47.5 -81 63.5c0 12.667 6.33301 22.167 19 28.5s25 9.5 37 9.5c6.66699 0 12.667 -1.33301 18 -4c22 -16.667 47.5 -39.334 76.5 -68.001s43.5 -45 43.5 -49z
M171 656.001c13.333 0 59.999 1.99902 139.999 5.99902c2 -6 3 -12 3 -18c0 -12.667 -1.33301 -19 -4 -19c-6 0 -18 -2.83301 -36 -8.5s-27.667 -10.834 -29 -15.501c-4.66699 -18 -7 -46.333 -7 -85v-237c0 -61.333 13.833 -110.666 41.5 -147.999s65.167 -56 112.5 -56
c49.333 0 89.833 16.167 121.5 48.5s47.5 86.5 47.5 162.5v238c0 38 -4.33301 62 -13 72c-6 7.33301 -18.5 14 -37.5 20s-32.5 9 -40.5 9c-2.66699 0 -4.33398 5.5 -5.00098 16.5s0 17.833 2 20.5c61.333 -5.33301 105.333 -8 132 -8c16.667 0 39.5 1.16699 68.5 3.5
l55.5 4.5c2.66699 -5.33301 4 -11.333 4 -18c0 -12.667 -1.66699 -19 -5 -19c-36.667 0 -64.334 -11 -83.001 -33c-9.33301 -11.333 -14 -35.666 -14 -72.999v-228c0 -97.333 -23.833 -171 -71.5 -221s-109.5 -75 -185.5 -75c-81.333 0 -146.666 25.333 -195.999 76
s-74 130.667 -74 240v211c0 42.667 -2.66699 68.667 -8 78c-3.33301 5.33301 -12.666 10.833 -27.999 16.5s-26.666 8.5 -33.999 8.5c-2.66699 0 -4 5.66699 -4 17c0 12 0.666992 18.667 2 20c92 -4 140.333 -6 145 -6z" />
    <glyph glyph-name="Uacute" unicode="&#xda;" horiz-adv-x="753" 
d="M314 748c0 4 14.5 20.332 43.5 48.999s54.5 51.334 76.5 68.001c5.33301 2.66699 11.333 4 18 4c12 0 24.333 -3.16699 37 -9.5s19 -15.833 19 -28.5c0 -16 -27 -37.167 -81 -63.5s-87 -39.5 -99 -39.5c-3.33301 0 -6.5 2.5 -9.5 7.5s-4.5 9.16699 -4.5 12.5z
M171 655.999c13.333 0 59.999 1.99902 139.999 5.99902c2 -6 3 -12 3 -18c0 -12.667 -1.33301 -19 -4 -19c-6 0 -18 -2.83301 -36 -8.5s-27.667 -10.834 -29 -15.501c-4.66699 -18 -7 -46.333 -7 -85v-237c0 -61.333 13.833 -110.666 41.5 -147.999s65.167 -56 112.5 -56
c49.333 0 89.833 16.167 121.5 48.5s47.5 86.5 47.5 162.5v238c0 38 -4.33301 62 -13 72c-6 7.33301 -18.5 14 -37.5 20s-32.5 9 -40.5 9c-2.66699 0 -4.33398 5.5 -5.00098 16.5s0 17.833 2 20.5c61.333 -5.33301 105.333 -8 132 -8c16.667 0 39.5 1.16699 68.5 3.5
l55.5 4.5c2.66699 -5.33301 4 -11.333 4 -18c0 -12.667 -1.66699 -19 -5 -19c-36.667 0 -64.334 -11 -83.001 -33c-9.33301 -11.333 -14 -35.666 -14 -72.999v-228c0 -97.333 -23.833 -171 -71.5 -221s-109.5 -75 -185.5 -75c-81.333 0 -146.666 25.333 -195.999 76
s-74 130.667 -74 240v211c0 42.667 -2.66699 68.667 -8 78c-3.33301 5.33301 -12.666 10.833 -27.999 16.5s-26.666 8.5 -33.999 8.5c-2.66699 0 -4 5.66699 -4 17c0 12 0.666992 18.667 2 20c92 -4 140.333 -6 145 -6z" />
    <glyph glyph-name="Ucircumflex" unicode="&#xdb;" horiz-adv-x="753" 
d="M500 728c-5.33301 0 -22.332 7.5 -50.999 22.5s-51.667 28.167 -69 39.5c-17.333 -11.333 -40.333 -24.5 -69 -39.5s-45.667 -22.5 -51 -22.5c-6.66699 0 -10 6.33301 -10 19c18.667 14 43 35.667 73 65c14 13.333 28.333 29.333 43 48c5.33301 6 9.66602 9 12.999 9
c4 0 9 -3 15 -9c1.33301 -1.33301 6.33301 -7 15 -17s17 -19 25 -27c32 -32 57.333 -55 76 -69c0 -12.667 -3.33301 -19 -10 -19zM171.001 656c13.333 0 59.999 1.99902 139.999 5.99902c2 -6 3 -12 3 -18c0 -12.667 -1.33301 -19 -4 -19c-6 0 -18 -2.83301 -36 -8.5
s-27.667 -10.834 -29 -15.501c-4.66699 -18 -7 -46.333 -7 -85v-237c0 -61.333 13.833 -110.666 41.5 -147.999s65.167 -56 112.5 -56c49.333 0 89.833 16.167 121.5 48.5s47.5 86.5 47.5 162.5v238c0 38 -4.33301 62 -13 72c-6 7.33301 -18.5 14 -37.5 20s-32.5 9 -40.5 9
c-2.66699 0 -4.33398 5.5 -5.00098 16.5s0 17.833 2 20.5c61.333 -5.33301 105.333 -8 132 -8c16.667 0 39.5 1.16699 68.5 3.5l55.5 4.5c2.66699 -5.33301 4 -11.333 4 -18c0 -12.667 -1.66699 -19 -5 -19c-36.667 0 -64.334 -11 -83.001 -33
c-9.33301 -11.333 -14 -35.666 -14 -72.999v-228c0 -97.333 -23.833 -171 -71.5 -221s-109.5 -75 -185.5 -75c-81.333 0 -146.666 25.333 -195.999 76s-74 130.667 -74 240v211c0 42.667 -2.66699 68.667 -8 78c-3.33301 5.33301 -12.666 10.833 -27.999 16.5
s-26.666 8.5 -33.999 8.5c-2.66699 0 -4 5.66699 -4 17c0 12 0.666992 18.667 2 20c92 -4 140.333 -6 145 -6z" />
    <glyph glyph-name="Udieresis" unicode="&#xdc;" horiz-adv-x="753" 
d="M414 802c0 20.667 7.16699 38.167 21.5 52.5s31.833 21.5 52.5 21.5s38.167 -7.16699 52.5 -21.5s21.5 -31.833 21.5 -52.5s-7.16699 -38.167 -21.5 -52.5s-31.833 -21.5 -52.5 -21.5s-38.167 7.16699 -52.5 21.5s-21.5 31.833 -21.5 52.5zM184 802
c0 20.667 7.16699 38.167 21.5 52.5s31.833 21.5 52.5 21.5s38.167 -7.16699 52.5 -21.5s21.5 -31.833 21.5 -52.5s-7.16699 -38.167 -21.5 -52.5s-31.833 -21.5 -52.5 -21.5s-38.167 7.16699 -52.5 21.5s-21.5 31.833 -21.5 52.5zM171 656
c13.333 0 59.999 1.99902 139.999 5.99902c2 -6 3 -12 3 -18c0 -12.667 -1.33301 -19 -4 -19c-6 0 -18 -2.83301 -36 -8.5s-27.667 -10.834 -29 -15.501c-4.66699 -18 -7 -46.333 -7 -85v-237c0 -61.333 13.833 -110.666 41.5 -147.999s65.167 -56 112.5 -56
c49.333 0 89.833 16.167 121.5 48.5s47.5 86.5 47.5 162.5v238c0 38 -4.33301 62 -13 72c-6 7.33301 -18.5 14 -37.5 20s-32.5 9 -40.5 9c-2.66699 0 -4.33398 5.5 -5.00098 16.5s0 17.833 2 20.5c61.333 -5.33301 105.333 -8 132 -8c16.667 0 39.5 1.16699 68.5 3.5
l55.5 4.5c2.66699 -5.33301 4 -11.333 4 -18c0 -12.667 -1.66699 -19 -5 -19c-36.667 0 -64.334 -11 -83.001 -33c-9.33301 -11.333 -14 -35.666 -14 -72.999v-228c0 -97.333 -23.833 -171 -71.5 -221s-109.5 -75 -185.5 -75c-81.333 0 -146.666 25.333 -195.999 76
s-74 130.667 -74 240v211c0 42.667 -2.66699 68.667 -8 78c-3.33301 5.33301 -12.666 10.833 -27.999 16.5s-26.666 8.5 -33.999 8.5c-2.66699 0 -4 5.66699 -4 17c0 12 0.666992 18.667 2 20c92 -4 140.333 -6 145 -6z" />
    <glyph glyph-name="Yacute" unicode="&#xdd;" horiz-adv-x="669" 
d="M322 748c0 4 14.5 20.332 43.5 48.999s54.5 51.334 76.5 68.001c5.33301 2.66699 11.333 4 18 4c12 0 24.333 -3.16699 37 -9.5s19 -15.833 19 -28.5c0 -16 -27 -37.167 -81 -63.5s-87 -39.5 -99 -39.5c-3.33301 0 -6.5 2.5 -9.5 7.5s-4.5 9.16699 -4.5 12.5z
M177 655.999c15.333 0 62.998 1.99805 142.998 5.99805c1.33301 -2.66699 1.83301 -9.5 1.5 -20.5s-1.5 -16.5 -3.5 -16.5c-10 0 -21.167 -1.83301 -33.5 -5.5s-18.833 -8.83398 -19.5 -15.501c0 -5.33301 2.66699 -12.666 8 -21.999l100 -177
c3.33301 -3.33301 6.66602 -2.66602 9.99902 2.00098c19.333 28 42.333 65 69 111s40 74.333 40 85c0 14.667 -21.333 22 -64 22c-2.66699 0 -4.16699 5.5 -4.5 16.5s0.833984 17.833 3.50098 20.5c60 -4 100.333 -6 121 -6c17.333 0 55 2 113 6c2 -6 3 -12 3 -18
c0 -12 -1.33301 -18 -4 -18c-12 0 -25.667 -3 -41 -9s-27.666 -15 -36.999 -27c-17.333 -23.333 -50.833 -74.666 -100.5 -153.999s-74.5 -123.333 -74.5 -132v-159c0 -37.333 2.66699 -66.333 8 -87c1.33301 -4.66699 10.5 -10 27.5 -16s28.5 -9 34.5 -9
c2.66699 0 4 -6.33301 4 -19c0 -8 -0.666992 -14 -2 -18c-4.66699 0 -24.667 1.33301 -60 4s-61.666 4 -78.999 4c-18 0 -44.333 -1.16699 -79 -3.5l-66 -4.5c-2.66699 2.66699 -4 8 -4 16c0 14 1 21 3 21c7.33301 0 19.666 2.83301 36.999 8.5s27 11.167 29 16.5
c4.66699 18 7 45 7 81v170c0 4.66699 -10.5 26 -31.5 64l-62.5 111l-31 53c-22 40.667 -40 65 -54 73c-16.667 10 -34.334 15 -53.001 15c-2.66699 0 -4 5.5 -4 16.5s1.33301 17.833 4 20.5c11.333 -0.666992 26.333 -1.5 45 -2.5s35.834 -1.83301 51.501 -2.5
s30.834 -1 45.501 -1z" />
    <glyph glyph-name="Thorn" unicode="&#xde;" horiz-adv-x="572" 
d="M155 656c13.333 0 59.999 2.00293 139.999 6.00293c2 -6 3 -12 3 -18c0 -12.667 -1.33301 -19 -4 -19c-6 0 -18 -2.83301 -36 -8.5s-27.667 -10.834 -29 -15.501c-4.66699 -18 -7 -44.667 -7 -80v-5c0 -2.66699 1.33301 -4 4 -4l10 2
c7.33301 1.33301 16.666 2.66602 27.999 3.99902s22 2 32 2c22.667 0 46.334 -3.16699 71.001 -9.5s49.167 -16 73.5 -29s44.333 -32 60 -57s23.5 -53.5 23.5 -85.5c0 -54 -20.833 -100.667 -62.5 -140s-92.167 -59 -151.5 -59c-10.667 0 -21.334 1.66699 -32.001 5
s-18.667 6.5 -24 9.5s-8.66602 5.5 -9.99902 7.5c-2.66699 4 -4.33398 11.333 -5.00098 22s0.666016 16 3.99902 16c8.66699 -5.33301 23.667 -8 45 -8c56 0 84 45.333 84 136c0 91.333 -30.667 137 -92 137c-25.333 0 -40.666 -1.66699 -45.999 -5
c-3.33301 -2 -5.5 -4 -6.5 -6s-2.16699 -10.5 -3.5 -25.5s-2 -38.167 -2 -69.5v-218c0 -34.667 2.66699 -62.334 8 -83.001c1.33301 -4.66699 10.5 -10 27.5 -16s28.5 -9 34.5 -9c2.66699 0 4 -6.33301 4 -19c0 -8 -0.666992 -14 -2 -18c-4.66699 0 -24.667 1.33301 -60 4
s-61.666 4 -78.999 4c-18 0 -44.333 -1.16699 -79 -3.5l-66 -4.5c-2.66699 2.66699 -4 8 -4 16c0 14 1 21 3 21c7.33301 0 19.666 2.83301 36.999 8.5s27 11.167 29 16.5c4.66699 18 7 44.667 7 80v384c0 42.667 -2.66699 68.667 -8 78
c-3.33301 5.33301 -12.666 10.833 -27.999 16.5s-26.666 8.5 -33.999 8.5c-2.66699 0 -4 5.66699 -4 17c0 12 0.666992 18.667 2 20c92 -4 140.333 -6 145 -6z" />
    <glyph glyph-name="germandbls" unicode="&#xdf;" horiz-adv-x="608" 
d="M518 565c0 -30 -7.00586 -54.501 -21.0059 -73.501s-29.167 -32 -45.5 -39s-31.5 -16.667 -45.5 -29s-21 -27.166 -21 -44.499c0 -40 29.333 -76 88 -108c28 -14.667 53.5 -34.834 76.5 -60.501s34.5 -52.5 34.5 -80.5c0 -39.333 -13.5 -72 -40.5 -98
s-59.833 -39 -98.5 -39c-27.333 0 -55.333 6.66699 -84 20s-46 25.333 -52 36c0 18.667 3.33301 35.167 10 49.5s16.334 21.5 29.001 21.5c15.333 0 27.666 -3.66699 36.999 -11s15.666 -15.666 18.999 -24.999s8.33301 -17.666 15 -24.999s15 -11 25 -11
c7.33301 0 12.833 4.66699 16.5 14s5.5 18.666 5.5 27.999v14c0 18.667 -6.16699 35 -18.5 49s-27.333 26.333 -45 37l-53.5 33c-18 11.333 -33.167 26.333 -45.5 45s-18.5 40.667 -18.5 66c0 18 3.83301 34 11.5 48s16.834 25.833 27.501 35.5l32.5 30
c11 10.333 20.333 24 28 41s11.5 37.167 11.5 60.5c0 62 -32 93 -96 93c-16 0 -29.167 -4.5 -39.5 -13.5s-17.666 -22.5 -21.999 -40.5s-7.16602 -35 -8.49902 -51s-2 -36.667 -2 -62v-336c0 -32.667 2.66699 -61 8 -85c0.666992 -4.66699 8.83398 -9.83398 24.501 -15.501
s26.167 -8.5 31.5 -8.5c2 0 3.16699 -5 3.5 -15s-0.166992 -16.333 -1.5 -19c-7.33301 0.666992 -27.166 2.16699 -59.499 4.5s-56.166 3.5 -71.499 3.5c-16 0 -39.833 -1.16699 -71.5 -3.5s-51.5 -3.83301 -59.5 -4.5c-2 2 -3 7.33301 -3 16c0 8 1.33301 12 4 12
c7.33301 0 18 2.5 32 7.5s21.667 9.83301 23 14.5c6 23.333 9 53 9 89c0.666992 92 1 167.333 1 226c0 5.33301 -1.66699 8 -5 8h-53c-2 0 -3 2 -3 6c0 6.66699 1.83301 16.834 5.5 30.501s6.83398 20.5 9.50098 20.5h41c3.33301 0 5 2 5 6v20c0 80.667 23 141.5 69 182.5
s101.667 61.5 167 61.5c48 0 90.667 -12 128 -36s56 -55.667 56 -95z" />
    <glyph glyph-name="agrave" unicode="&#xe0;" horiz-adv-x="486" 
d="M116 646c0 6 3.83496 12.332 11.502 18.999s19.167 10 34.5 10c16.667 0 28 -3 34 -9c11.333 -13.333 24.666 -31 39.999 -53s28 -41.167 38 -57.5s15 -25.5 15 -27.5c0 -3.33301 -2 -7.16602 -6 -11.499s-7.66699 -6.5 -11 -6.5c-8.66699 0 -36.834 18.5 -84.501 55.5
s-71.5 63.833 -71.5 80.5zM211.002 64.999c17.333 0 30.833 4.16797 40.5 12.501s14.5 18.5 14.5 30.5v101c-1.33301 -0.666992 -7.83301 -2.83398 -19.5 -6.50098s-19.167 -6.16699 -22.5 -7.5l-19 -7.5c-9.33301 -3.66699 -15.833 -7 -19.5 -10l-13.5 -11.5
c-5.33301 -4.66699 -9 -9.66699 -11 -15s-3 -11.333 -3 -18c0 -24 5.16699 -41.333 15.5 -52s22.833 -16 37.5 -16zM251.002 449c46.667 0 82.5029 -12.8311 107.503 -38.498s37.5 -72.167 37.5 -139.5v-162c0 -22.667 8 -34 24 -34c11.333 0 22.666 4.33301 33.999 13
c4.66699 -2.66699 7 -7.66699 7 -15c0 -16.667 -2.33301 -29 -7 -37c-9.33301 -8.66699 -24.5 -17.834 -45.5 -27.501s-40.833 -14.5 -59.5 -14.5c-16 0 -31.333 4.83301 -46 14.5s-24.334 20.834 -29.001 33.501c-0.666992 0 -3.33398 -1.83301 -8.00098 -5.5
s-10.667 -7.83398 -18 -12.501s-15.833 -9.33398 -25.5 -14.001s-21.167 -8.66699 -34.5 -12s-26.666 -5 -39.999 -5c-36.667 0 -65.834 10.167 -87.501 30.5s-32.5 45.833 -32.5 76.5c0 18 4.16699 34.5 12.5 49.5s18 27.333 29 37s25.833 18.667 44.5 27
s34.667 14.666 48 18.999s30.5 9.33301 51.5 15s35.5 9.83398 43.5 12.501c6 2 9 7 9 15v36c0 54.667 -16.667 82 -50 82c-38.667 0 -58 -22.333 -58 -67c0 -14.667 -6 -25.5 -18 -32.5s-25.333 -10.5 -40 -10.5c-30.667 0 -51.667 10 -63 30c0 34 22.5 65.167 67.5 93.5
s93.833 42.5 146.5 42.5z" />
    <glyph glyph-name="aacute" unicode="&#xe1;" horiz-adv-x="486" 
d="M290 675c15.333 0 26.835 -3.33203 34.502 -9.99902s11.5 -13 11.5 -19c0 -16.667 -23.833 -43.5 -71.5 -80.5s-75.834 -55.5 -84.501 -55.5c-3.33301 0 -7 2.16699 -11 6.5s-6 8.16602 -6 11.499c0 2 5 11.167 15 27.5s22.667 35.5 38 57.5s28.666 39.667 39.999 53
c6 6 17.333 9 34 9zM211.002 65.001c17.333 0 30.833 4.16797 40.5 12.501s14.5 18.5 14.5 30.5v101c-1.33301 -0.666992 -7.83301 -2.83398 -19.5 -6.50098s-19.167 -6.16699 -22.5 -7.5l-19 -7.5c-9.33301 -3.66699 -15.833 -7 -19.5 -10l-13.5 -11.5
c-5.33301 -4.66699 -9 -9.66699 -11 -15s-3 -11.333 -3 -18c0 -24 5.16699 -41.333 15.5 -52s22.833 -16 37.5 -16zM251.002 449.002c46.667 0 82.5029 -12.8311 107.503 -38.498s37.5 -72.167 37.5 -139.5v-162c0 -22.667 8 -34 24 -34c11.333 0 22.666 4.33301 33.999 13
c4.66699 -2.66699 7 -7.66699 7 -15c0 -16.667 -2.33301 -29 -7 -37c-9.33301 -8.66699 -24.5 -17.834 -45.5 -27.501s-40.833 -14.5 -59.5 -14.5c-16 0 -31.333 4.83301 -46 14.5s-24.334 20.834 -29.001 33.501c-0.666992 0 -3.33398 -1.83301 -8.00098 -5.5
s-10.667 -7.83398 -18 -12.501s-15.833 -9.33398 -25.5 -14.001s-21.167 -8.66699 -34.5 -12s-26.666 -5 -39.999 -5c-36.667 0 -65.834 10.167 -87.501 30.5s-32.5 45.833 -32.5 76.5c0 18 4.16699 34.5 12.5 49.5s18 27.333 29 37s25.833 18.667 44.5 27
s34.667 14.666 48 18.999s30.5 9.33301 51.5 15s35.5 9.83398 43.5 12.501c6 2 9 7 9 15v36c0 54.667 -16.667 82 -50 82c-38.667 0 -58 -22.333 -58 -67c0 -14.667 -6 -25.5 -18 -32.5s-25.333 -10.5 -40 -10.5c-30.667 0 -51.667 10 -63 30c0 34 22.5 65.167 67.5 93.5
s93.833 42.5 146.5 42.5z" />
    <glyph glyph-name="acircumflex" unicode="&#xe2;" horiz-adv-x="486" 
d="M337 510c-5.33301 0 -21 9.00293 -47 27.0029s-46.667 33.667 -62 47c-15.333 -13.333 -36 -29 -62 -47s-41.667 -27 -47 -27c-6 0 -9 7.66699 -9 23c16 16 38 42 66 78c14 18 27 37 39 57c4 6.66699 8.33301 10 13 10c2.66699 0 6.66699 -3.33301 12 -10
c2 -2.66699 6.83301 -9.83398 14.5 -21.501s15.167 -21.834 22.5 -30.501c29.333 -38.667 52.333 -66.334 69 -83.001c0 -15.333 -3 -23 -9 -23zM211 65.0029c17.333 0 30.833 4.16797 40.5 12.501s14.5 18.5 14.5 30.5v101
c-1.33301 -0.666992 -7.83301 -2.83398 -19.5 -6.50098s-19.167 -6.16699 -22.5 -7.5l-19 -7.5c-9.33301 -3.66699 -15.833 -7 -19.5 -10l-13.5 -11.5c-5.33301 -4.66699 -9 -9.66699 -11 -15s-3 -11.333 -3 -18c0 -24 5.16699 -41.333 15.5 -52s22.833 -16 37.5 -16z
M251 449.004c46.667 0 82.5029 -12.8311 107.503 -38.498s37.5 -72.167 37.5 -139.5v-162c0 -22.667 8 -34 24 -34c11.333 0 22.666 4.33301 33.999 13c4.66699 -2.66699 7 -7.66699 7 -15c0 -16.667 -2.33301 -29 -7 -37c-9.33301 -8.66699 -24.5 -17.834 -45.5 -27.501
s-40.833 -14.5 -59.5 -14.5c-16 0 -31.333 4.83301 -46 14.5s-24.334 20.834 -29.001 33.501c-0.666992 0 -3.33398 -1.83301 -8.00098 -5.5s-10.667 -7.83398 -18 -12.501s-15.833 -9.33398 -25.5 -14.001s-21.167 -8.66699 -34.5 -12s-26.666 -5 -39.999 -5
c-36.667 0 -65.834 10.167 -87.501 30.5s-32.5 45.833 -32.5 76.5c0 18 4.16699 34.5 12.5 49.5s18 27.333 29 37s25.833 18.667 44.5 27s34.667 14.666 48 18.999s30.5 9.33301 51.5 15s35.5 9.83398 43.5 12.501c6 2 9 7 9 15v36c0 54.667 -16.667 82 -50 82
c-38.667 0 -58 -22.333 -58 -67c0 -14.667 -6 -25.5 -18 -32.5s-25.333 -10.5 -40 -10.5c-30.667 0 -51.667 10 -63 30c0 34 22.5 65.167 67.5 93.5s93.833 42.5 146.5 42.5z" />
    <glyph glyph-name="atilde" unicode="&#xe3;" horiz-adv-x="486" 
d="M68 519c-4.66699 0 -7.00098 6.66699 -7.00098 20c0 11.333 5.33301 26 16 44c21.333 30.667 45 46 71 46c20.667 0 47 -10.167 79 -30.5s58.333 -30.5 79 -30.5c10.667 0 22.667 8.5 36 25.5s21.333 25.5 24 25.5c4 0 6 -6.66699 6 -20c0 -12.667 -5 -27.667 -15 -45
c-19.333 -29.333 -42.666 -44 -69.999 -44c-20.667 0 -47 10 -79 30s-58.667 30 -80 30c-9.33301 0 -21 -8.5 -35 -25.5s-22.333 -25.5 -25 -25.5zM210.999 65c17.333 0 30.833 4.16797 40.5 12.501s14.5 18.5 14.5 30.5v101
c-1.33301 -0.666992 -7.83301 -2.83398 -19.5 -6.50098s-19.167 -6.16699 -22.5 -7.5l-19 -7.5c-9.33301 -3.66699 -15.833 -7 -19.5 -10l-13.5 -11.5c-5.33301 -4.66699 -9 -9.66699 -11 -15s-3 -11.333 -3 -18c0 -24 5.16699 -41.333 15.5 -52s22.833 -16 37.5 -16z
M250.999 449.001c46.667 0 82.5029 -12.8311 107.503 -38.498s37.5 -72.167 37.5 -139.5v-162c0 -22.667 8 -34 24 -34c11.333 0 22.666 4.33301 33.999 13c4.66699 -2.66699 7 -7.66699 7 -15c0 -16.667 -2.33301 -29 -7 -37
c-9.33301 -8.66699 -24.5 -17.834 -45.5 -27.501s-40.833 -14.5 -59.5 -14.5c-16 0 -31.333 4.83301 -46 14.5s-24.334 20.834 -29.001 33.501c-0.666992 0 -3.33398 -1.83301 -8.00098 -5.5s-10.667 -7.83398 -18 -12.501s-15.833 -9.33398 -25.5 -14.001
s-21.167 -8.66699 -34.5 -12s-26.666 -5 -39.999 -5c-36.667 0 -65.834 10.167 -87.501 30.5s-32.5 45.833 -32.5 76.5c0 18 4.16699 34.5 12.5 49.5s18 27.333 29 37s25.833 18.667 44.5 27s34.667 14.666 48 18.999s30.5 9.33301 51.5 15s35.5 9.83398 43.5 12.501
c6 2 9 7 9 15v36c0 54.667 -16.667 82 -50 82c-38.667 0 -58 -22.333 -58 -67c0 -14.667 -6 -25.5 -18 -32.5s-25.333 -10.5 -40 -10.5c-30.667 0 -51.667 10 -63 30c0 34 22.5 65.167 67.5 93.5s93.833 42.5 146.5 42.5z" />
    <glyph glyph-name="adieresis" unicode="&#xe4;" horiz-adv-x="486" 
d="M255 582c0 20 7 36.833 21 50.5s31 20.5 51 20.5s37 -6.83301 51 -20.5s21 -30.5 21 -50.5s-7 -37 -21 -51s-31 -21 -51 -21s-37 7 -51 21s-21 31 -21 51zM33 582c0 20 6.83301 36.833 20.5 50.5s30.5 20.5 50.5 20.5s37 -6.83301 51 -20.5s21 -30.5 21 -50.5
s-7 -37 -21 -51s-31 -21 -51 -21s-36.833 7 -50.5 21s-20.5 31 -20.5 51zM211 65c17.333 0 30.833 4.16797 40.5 12.501s14.5 18.5 14.5 30.5v101c-1.33301 -0.666992 -7.83301 -2.83398 -19.5 -6.50098s-19.167 -6.16699 -22.5 -7.5l-19 -7.5
c-9.33301 -3.66699 -15.833 -7 -19.5 -10l-13.5 -11.5c-5.33301 -4.66699 -9 -9.66699 -11 -15s-3 -11.333 -3 -18c0 -24 5.16699 -41.333 15.5 -52s22.833 -16 37.5 -16zM251 449.001c46.667 0 82.5029 -12.8311 107.503 -38.498s37.5 -72.167 37.5 -139.5v-162
c0 -22.667 8 -34 24 -34c11.333 0 22.666 4.33301 33.999 13c4.66699 -2.66699 7 -7.66699 7 -15c0 -16.667 -2.33301 -29 -7 -37c-9.33301 -8.66699 -24.5 -17.834 -45.5 -27.501s-40.833 -14.5 -59.5 -14.5c-16 0 -31.333 4.83301 -46 14.5s-24.334 20.834 -29.001 33.501
c-0.666992 0 -3.33398 -1.83301 -8.00098 -5.5s-10.667 -7.83398 -18 -12.501s-15.833 -9.33398 -25.5 -14.001s-21.167 -8.66699 -34.5 -12s-26.666 -5 -39.999 -5c-36.667 0 -65.834 10.167 -87.501 30.5s-32.5 45.833 -32.5 76.5c0 18 4.16699 34.5 12.5 49.5
s18 27.333 29 37s25.833 18.667 44.5 27s34.667 14.666 48 18.999s30.5 9.33301 51.5 15s35.5 9.83398 43.5 12.501c6 2 9 7 9 15v36c0 54.667 -16.667 82 -50 82c-38.667 0 -58 -22.333 -58 -67c0 -14.667 -6 -25.5 -18 -32.5s-25.333 -10.5 -40 -10.5
c-30.667 0 -51.667 10 -63 30c0 34 22.5 65.167 67.5 93.5s93.833 42.5 146.5 42.5z" />
    <glyph glyph-name="aring" unicode="&#xe5;" horiz-adv-x="486" 
d="M174 609c0 -15.333 5.16699 -28.166 15.5 -38.499s22.833 -15.5 37.5 -15.5s27.167 5.16699 37.5 15.5s15.5 23.166 15.5 38.499s-5.16699 28.166 -15.5 38.499s-22.833 15.5 -37.5 15.5s-27.167 -5.16699 -37.5 -15.5s-15.5 -23.166 -15.5 -38.499zM128 609
c0 26.667 9.66699 49.665 29 68.998s42.666 29 69.999 29s50.5 -9.66699 69.5 -29s28.5 -42.333 28.5 -69c0 -27.333 -9.66699 -50.666 -29 -69.999s-42.333 -29 -69 -29c-27.333 0 -50.666 9.83301 -69.999 29.5s-29 42.834 -29 69.501zM211 64.998
c17.333 0 30.833 4.16797 40.5 12.501s14.5 18.5 14.5 30.5v101c-1.33301 -0.666992 -7.83301 -2.83398 -19.5 -6.50098s-19.167 -6.16699 -22.5 -7.5l-19 -7.5c-9.33301 -3.66699 -15.833 -7 -19.5 -10l-13.5 -11.5c-5.33301 -4.66699 -9 -9.66699 -11 -15
s-3 -11.333 -3 -18c0 -24 5.16699 -41.333 15.5 -52s22.833 -16 37.5 -16zM251 448.999c46.667 0 82.5029 -12.8311 107.503 -38.498s37.5 -72.167 37.5 -139.5v-162c0 -22.667 8 -34 24 -34c11.333 0 22.666 4.33301 33.999 13c4.66699 -2.66699 7 -7.66699 7 -15
c0 -16.667 -2.33301 -29 -7 -37c-9.33301 -8.66699 -24.5 -17.834 -45.5 -27.501s-40.833 -14.5 -59.5 -14.5c-16 0 -31.333 4.83301 -46 14.5s-24.334 20.834 -29.001 33.501c-0.666992 0 -3.33398 -1.83301 -8.00098 -5.5s-10.667 -7.83398 -18 -12.501
s-15.833 -9.33398 -25.5 -14.001s-21.167 -8.66699 -34.5 -12s-26.666 -5 -39.999 -5c-36.667 0 -65.834 10.167 -87.501 30.5s-32.5 45.833 -32.5 76.5c0 18 4.16699 34.5 12.5 49.5s18 27.333 29 37s25.833 18.667 44.5 27s34.667 14.666 48 18.999s30.5 9.33301 51.5 15
s35.5 9.83398 43.5 12.501c6 2 9 7 9 15v36c0 54.667 -16.667 82 -50 82c-38.667 0 -58 -22.333 -58 -67c0 -14.667 -6 -25.5 -18 -32.5s-25.333 -10.5 -40 -10.5c-30.667 0 -51.667 10 -63 30c0 34 22.5 65.167 67.5 93.5s93.833 42.5 146.5 42.5z" />
    <glyph glyph-name="ae" unicode="&#xe6;" horiz-adv-x="679" 
d="M252 108l0.000976562 84.998c-16 -2 -28 -3.83301 -36 -5.5s-18.333 -4.66699 -31 -9s-21.834 -10.166 -27.501 -17.499s-8.5 -16.666 -8.5 -27.999c0 -24 5.16699 -41.333 15.5 -52s22.833 -16 37.5 -16c16 0 28.333 4.16699 37 12.5s13 18.5 13 30.5zM460.001 391.998
c-25.333 0 -43.834 -12.832 -55.501 -38.499s-17.5 -53.5 -17.5 -83.5c0 -4 2.33301 -6 7 -6c82.667 10.667 126.667 16.667 132 18c4 1.33301 6 4.66602 6 9.99902c0 26 -6.66699 49.167 -20 69.5s-30.666 30.5 -51.999 30.5zM242 448.999
c42 0 76.665 -15.002 103.998 -45.002c42 30 83.667 45 125 45c30.667 0 58.334 -6.5 83.001 -19.5s44 -29.5 58 -49.5s24.833 -40.167 32.5 -60.5s12.167 -39.5 13.5 -57.5c0.666992 -7.33301 -1.83301 -13.333 -7.5 -18s-16.5 -8.33398 -32.5 -11.001
c-31.333 -4.66699 -106.666 -14.667 -225.999 -30c-3.33301 -0.666992 -5 -3 -5 -7c0 -7.33301 1.83301 -17 5.5 -29s9.5 -25.5 17.5 -40.5s20.333 -27.667 37 -38s36.334 -15.5 59.001 -15.5c22 0 42.833 3.33301 62.5 10s33.167 12.334 40.5 17.001s18 12 32 22
c6 -4.66699 9 -10.667 9 -18s-1.66699 -15 -5 -23c-6.66699 -16 -27 -34.833 -61 -56.5s-71.667 -32.5 -113 -32.5c-62.667 0 -116 23 -160 69c-24.667 -23.333 -49.334 -40.5 -74.001 -51.5s-57.334 -16.5 -98.001 -16.5c-36.667 0 -65.834 10.167 -87.501 30.5
s-32.5 45.833 -32.5 76.5c0 14 2.33301 26.833 7 38.5s10.334 21.834 17.001 30.501s15.667 16.834 27 24.501s21.833 13.667 31.5 18s22.167 9 37.5 14s27.333 8.5 36 10.5l36.5 8.5l31.5 7.5c6 1.33301 9 6 9 14v45c0 24.667 -4.16699 44.5 -12.5 59.5
s-19.166 22.5 -32.499 22.5c-38.667 0 -58 -22.333 -58 -67c0 -14.667 -6 -25.5 -18 -32.5s-25.333 -10.5 -40 -10.5c-30.667 0 -51.667 10 -63 30c0 34 22.5 65.167 67.5 93.5s93.833 42.5 146.5 42.5z" />
    <glyph glyph-name="ccedilla" unicode="&#xe7;" 
d="M248 -28c8 0.666992 14.3301 0.999023 18.9971 0.999023c14.667 0 27.334 -5.16699 38.001 -15.5s16 -22.166 16 -35.499c0 -24 -8.66699 -43 -26 -57s-41 -21 -71 -21c-21.333 0 -37.333 5.33301 -48 16c-1.33301 4 -2 9.66699 -2 17c0 9.33301 2.33301 14 7 14l19 -7
c12 -5.33301 22.333 -8 31 -8c12.667 0 22.334 2.83301 29.001 8.5s10 12.5 10 20.5c0 18.667 -8 28 -24 28c-10 0 -20 -2 -30 -6c-1.33301 0 -4.16602 2.16699 -8.49902 6.5s-6.16602 7.5 -5.49902 9.5c3.33301 5.33301 8.16602 14.833 14.499 28.5s10.833 22.5 13.5 26.5
h32zM264.997 446.999c28.667 0 55.5 -4.33008 80.5 -12.9971s42.5 -16.834 52.5 -24.501s17.667 -14.834 23 -21.501c0 -61.333 -18 -92 -54 -92c-26 0 -45.667 16.667 -59 50c-6 15.333 -13.5 26.833 -22.5 34.5s-21.5 11.5 -37.5 11.5c-53.333 0 -80 -50 -80 -150
c0 -112.667 37.667 -169 113 -169c22 0 43 3.16699 63 9.5s34 12 42 17s18.667 12.5 32 22.5c6 -2.66699 9 -9 9 -19c0 -8 -1.33301 -14.667 -4 -20c-6.66699 -16.667 -26.5 -35.834 -59.5 -57.501s-70.167 -32.5 -111.5 -32.5c-64 0 -117.667 22.5 -161 67.5
s-65 100.167 -65 165.5c0 61.333 23.167 113.5 69.5 156.5s102.833 64.5 169.5 64.5z" />
    <glyph glyph-name="egrave" unicode="&#xe8;" 
d="M123 646c0 6 3.83496 12.332 11.502 18.999s19.167 10 34.5 10c16.667 0 28 -3 34 -9c11.333 -13.333 24.666 -31 39.999 -53s28 -41.167 38 -57.5s15 -25.5 15 -27.5c0 -3.33301 -2 -7.16602 -6 -11.499s-7.66699 -6.5 -11 -6.5c-8.66699 0 -36.834 18.5 -84.501 55.5
s-71.5 63.833 -71.5 80.5zM238.002 391.999c-26 0 -45 -12.5 -57 -37.5s-18 -49.5 -18 -73.5c0 -4 2.33301 -6 7 -6h127c9.33301 0 14 6.33301 14 19c0 25.333 -6.83301 48 -20.5 68s-31.167 30 -52.5 30zM243.002 446.999c60 0 108.165 -20.834 144.498 -62.501
s54.5 -84.167 54.5 -127.5c0 -15.333 -3.16699 -25.333 -9.5 -30s-18.833 -7 -37.5 -7h-226c-4 0 -6 -2.33301 -6 -7c0 -36 10.167 -68.333 30.5 -97s49.5 -43 87.5 -43c22 0 43 3.16699 63 9.5s34 12 42 17s18.667 12.5 32 22.5c6 -2.66699 9 -9 9 -19
c0 -8 -1.33301 -14.667 -4 -20c-6.66699 -16 -26.667 -35 -60 -57s-70.666 -33 -111.999 -33c-61.333 0 -114.166 22.333 -158.499 67s-66.5 98.334 -66.5 161.001c0 64 20 117.667 60 161s92.333 65 157 65z" />
    <glyph glyph-name="eacute" unicode="&#xe9;" 
d="M311 675c15.333 0 26.835 -3.33203 34.502 -9.99902s11.5 -13 11.5 -19c0 -16.667 -23.833 -43.5 -71.5 -80.5s-75.834 -55.5 -84.501 -55.5c-3.33301 0 -7 2.16699 -11 6.5s-6 8.16602 -6 11.499c0 2 5 11.167 15 27.5s22.667 35.5 38 57.5s28.666 39.667 39.999 53
c6 6 17.333 9 34 9zM238.002 392.001c-26 0 -45 -12.5 -57 -37.5s-18 -49.5 -18 -73.5c0 -4 2.33301 -6 7 -6h127c9.33301 0 14 6.33301 14 19c0 25.333 -6.83301 48 -20.5 68s-31.167 30 -52.5 30zM243.002 447.001c60 0 108.165 -20.834 144.498 -62.501
s54.5 -84.167 54.5 -127.5c0 -15.333 -3.16699 -25.333 -9.5 -30s-18.833 -7 -37.5 -7h-226c-4 0 -6 -2.33301 -6 -7c0 -36 10.167 -68.333 30.5 -97s49.5 -43 87.5 -43c22 0 43 3.16699 63 9.5s34 12 42 17s18.667 12.5 32 22.5c6 -2.66699 9 -9 9 -19
c0 -8 -1.33301 -14.667 -4 -20c-6.66699 -16 -26.667 -35 -60 -57s-70.666 -33 -111.999 -33c-61.333 0 -114.166 22.333 -158.499 67s-66.5 98.334 -66.5 161.001c0 64 20 117.667 60 161s92.333 65 157 65z" />
    <glyph glyph-name="ecircumflex" unicode="&#xea;" 
d="M340 510c-5.33301 0 -21 9.00293 -47 27.0029s-46.667 33.667 -62 47c-15.333 -13.333 -36 -29 -62 -47s-41.667 -27 -47 -27c-6 0 -9 7.66699 -9 23c16 16 38 42 66 78c14 18 27 37 39 57c4 6.66699 8.33301 10 13 10c2.66699 0 6.66699 -3.33301 12 -10
c2 -2.66699 6.83301 -9.83398 14.5 -21.501s15.167 -21.834 22.5 -30.501c29.333 -38.667 52.333 -66.334 69 -83.001c0 -15.333 -3 -23 -9 -23zM238 392.003c-26 0 -45 -12.5 -57 -37.5s-18 -49.5 -18 -73.5c0 -4 2.33301 -6 7 -6h127c9.33301 0 14 6.33301 14 19
c0 25.333 -6.83301 48 -20.5 68s-31.167 30 -52.5 30zM243 447.003c60 0 108.165 -20.834 144.498 -62.501s54.5 -84.167 54.5 -127.5c0 -15.333 -3.16699 -25.333 -9.5 -30s-18.833 -7 -37.5 -7h-226c-4 0 -6 -2.33301 -6 -7c0 -36 10.167 -68.333 30.5 -97
s49.5 -43 87.5 -43c22 0 43 3.16699 63 9.5s34 12 42 17s18.667 12.5 32 22.5c6 -2.66699 9 -9 9 -19c0 -8 -1.33301 -14.667 -4 -20c-6.66699 -16 -26.667 -35 -60 -57s-70.666 -33 -111.999 -33c-61.333 0 -114.166 22.333 -158.499 67s-66.5 98.334 -66.5 161.001
c0 64 20 117.667 60 161s92.333 65 157 65z" />
    <glyph glyph-name="edieresis" unicode="&#xeb;" 
d="M270 582c0 20 7 36.833 21 50.5s31 20.5 51 20.5s37 -6.83301 51 -20.5s21 -30.5 21 -50.5s-7 -37 -21 -51s-31 -21 -51 -21s-37 7 -51 21s-21 31 -21 51zM48 582c0 20 6.83301 36.833 20.5 50.5s30.5 20.5 50.5 20.5s37 -6.83301 51 -20.5s21 -30.5 21 -50.5
s-7 -37 -21 -51s-31 -21 -51 -21s-36.833 7 -50.5 21s-20.5 31 -20.5 51zM238 392c-26 0 -45 -12.5 -57 -37.5s-18 -49.5 -18 -73.5c0 -4 2.33301 -6 7 -6h127c9.33301 0 14 6.33301 14 19c0 25.333 -6.83301 48 -20.5 68s-31.167 30 -52.5 30zM243 447
c60 0 108.165 -20.834 144.498 -62.501s54.5 -84.167 54.5 -127.5c0 -15.333 -3.16699 -25.333 -9.5 -30s-18.833 -7 -37.5 -7h-226c-4 0 -6 -2.33301 -6 -7c0 -36 10.167 -68.333 30.5 -97s49.5 -43 87.5 -43c22 0 43 3.16699 63 9.5s34 12 42 17s18.667 12.5 32 22.5
c6 -2.66699 9 -9 9 -19c0 -8 -1.33301 -14.667 -4 -20c-6.66699 -16 -26.667 -35 -60 -57s-70.666 -33 -111.999 -33c-61.333 0 -114.166 22.333 -158.499 67s-66.5 98.334 -66.5 161.001c0 64 20 117.667 60 161s92.333 65 157 65z" />
    <glyph glyph-name="igrave" unicode="&#xec;" horiz-adv-x="327" 
d="M55 646c0 6 3.83496 12.332 11.502 18.999s19.167 10 34.5 10c16.667 0 28 -3 34 -9c11.333 -13.333 24.666 -31 39.999 -53s28 -41.167 38 -57.5s15 -25.5 15 -27.5c0 -3.33301 -2 -7.16602 -6 -11.499s-7.66699 -6.5 -11 -6.5c-8.66699 0 -36.834 18.5 -84.501 55.5
s-71.5 63.833 -71.5 80.5zM228.002 145.999c0 -39.333 2.67188 -69.665 8.00488 -90.998c1.33301 -4.66699 9.66602 -10 24.999 -16s25.666 -9 30.999 -9c2 0 3.16699 -5 3.5 -15s-0.166992 -16.333 -1.5 -19c-8 0.666992 -28 2.16699 -60 4.5s-55.667 3.5 -71 3.5
c-16 0 -39.667 -1.16699 -71 -3.5l-60 -4.5c-2.66699 2.66699 -4 9 -4 19s1.33301 15 4 15c7.33301 0 18.666 2.83301 33.999 8.5s23.666 11.167 24.999 16.5c4.66699 20 7 45.333 7 76v146c0 37.333 -6 62.333 -18 75c-4.66699 5.33301 -11.667 9.66602 -21 12.999
s-17.333 5.66602 -24 6.99902s-10 2.33301 -10 3c0 19.333 1.66699 29 5 29c12.667 0 41.667 4.5 87 13.5s77.333 16.5 96 22.5c0.666992 0 2.66699 0.666992 6 2l5 1c3.33301 0 6.66602 -2.16699 9.99902 -6.5s5 -7.83301 5 -10.5c-7.33301 -58.667 -11 -92 -11 -100v-180z
" />
    <glyph glyph-name="iacute" unicode="&#xed;" horiz-adv-x="327" 
d="M219 675c15.333 0 26.835 -3.33203 34.502 -9.99902s11.5 -13 11.5 -19c0 -16.667 -23.833 -43.5 -71.5 -80.5s-75.834 -55.5 -84.501 -55.5c-3.33301 0 -7 2.16699 -11 6.5s-6 8.16602 -6 11.499c0 2 5 11.167 15 27.5s22.667 35.5 38 57.5s28.666 39.667 39.999 53
c6 6 17.333 9 34 9zM228.002 146.001c0 -39.333 2.67188 -69.665 8.00488 -90.998c1.33301 -4.66699 9.66602 -10 24.999 -16s25.666 -9 30.999 -9c2 0 3.16699 -5 3.5 -15s-0.166992 -16.333 -1.5 -19c-8 0.666992 -28 2.16699 -60 4.5s-55.667 3.5 -71 3.5
c-16 0 -39.667 -1.16699 -71 -3.5l-60 -4.5c-2.66699 2.66699 -4 9 -4 19s1.33301 15 4 15c7.33301 0 18.666 2.83301 33.999 8.5s23.666 11.167 24.999 16.5c4.66699 20 7 45.333 7 76v146c0 37.333 -6 62.333 -18 75c-4.66699 5.33301 -11.667 9.66602 -21 12.999
s-17.333 5.66602 -24 6.99902s-10 2.33301 -10 3c0 19.333 1.66699 29 5 29c12.667 0 41.667 4.5 87 13.5s77.333 16.5 96 22.5c0.666992 0 2.66699 0.666992 6 2l5 1c3.33301 0 6.66602 -2.16699 9.99902 -6.5s5 -7.83301 5 -10.5c-7.33301 -58.667 -11 -92 -11 -100v-180z
" />
    <glyph glyph-name="icircumflex" unicode="&#xee;" horiz-adv-x="327" 
d="M264 510c-5.33301 0 -21 9.00293 -47 27.0029s-46.667 33.667 -62 47c-15.333 -13.333 -36 -29 -62 -47s-41.667 -27 -47 -27c-6 0 -9 7.66699 -9 23c16 16 38 42 66 78c14 18 27 37 39 57c4 6.66699 8.33301 10 13 10c2.66699 0 6.66699 -3.33301 12 -10
c2 -2.66699 6.83301 -9.83398 14.5 -21.501s15.167 -21.834 22.5 -30.501c29.333 -38.667 52.333 -66.334 69 -83.001c0 -15.333 -3 -23 -9 -23zM228 146.003c0 -39.333 2.67188 -69.665 8.00488 -90.998c1.33301 -4.66699 9.66602 -10 24.999 -16s25.666 -9 30.999 -9
c2 0 3.16699 -5 3.5 -15s-0.166992 -16.333 -1.5 -19c-8 0.666992 -28 2.16699 -60 4.5s-55.667 3.5 -71 3.5c-16 0 -39.667 -1.16699 -71 -3.5l-60 -4.5c-2.66699 2.66699 -4 9 -4 19s1.33301 15 4 15c7.33301 0 18.666 2.83301 33.999 8.5s23.666 11.167 24.999 16.5
c4.66699 20 7 45.333 7 76v146c0 37.333 -6 62.333 -18 75c-4.66699 5.33301 -11.667 9.66602 -21 12.999s-17.333 5.66602 -24 6.99902s-10 2.33301 -10 3c0 19.333 1.66699 29 5 29c12.667 0 41.667 4.5 87 13.5s77.333 16.5 96 22.5c0.666992 0 2.66699 0.666992 6 2l5 1
c3.33301 0 6.66602 -2.16699 9.99902 -6.5s5 -7.83301 5 -10.5c-7.33301 -58.667 -11 -92 -11 -100v-180z" />
    <glyph glyph-name="idieresis" unicode="&#xef;" horiz-adv-x="327" 
d="M257 650c19.333 0 35.833 -6.83301 49.5 -20.5s20.5 -29.834 20.5 -48.501s-7 -35 -21 -49s-30.333 -21 -49 -21s-34.834 6.83301 -48.501 20.5s-20.5 30.167 -20.5 49.5c0 18.667 6.83301 34.834 20.5 48.501s29.834 20.5 48.501 20.5zM56 650
c19.333 0 35.833 -6.83301 49.5 -20.5s20.5 -29.834 20.5 -48.501s-6.83301 -35 -20.5 -49s-30.167 -21 -49.5 -21s-35.833 7 -49.5 21s-20.5 30.333 -20.5 49s6.83301 34.834 20.5 48.501s30.167 20.5 49.5 20.5zM228 146c0 -39.333 2.67188 -69.665 8.00488 -90.998
c1.33301 -4.66699 9.66602 -10 24.999 -16s25.666 -9 30.999 -9c2 0 3.16699 -5 3.5 -15s-0.166992 -16.333 -1.5 -19c-8 0.666992 -28 2.16699 -60 4.5s-55.667 3.5 -71 3.5c-16 0 -39.667 -1.16699 -71 -3.5l-60 -4.5c-2.66699 2.66699 -4 9 -4 19s1.33301 15 4 15
c7.33301 0 18.666 2.83301 33.999 8.5s23.666 11.167 24.999 16.5c4.66699 20 7 45.333 7 76v146c0 37.333 -6 62.333 -18 75c-4.66699 5.33301 -11.667 9.66602 -21 12.999s-17.333 5.66602 -24 6.99902s-10 2.33301 -10 3c0 19.333 1.66699 29 5 29
c12.667 0 41.667 4.5 87 13.5s77.333 16.5 96 22.5c0.666992 0 2.66699 0.666992 6 2l5 1c3.33301 0 6.66602 -2.16699 9.99902 -6.5s5 -7.83301 5 -10.5c-7.33301 -58.667 -11 -92 -11 -100v-180z" />
    <glyph glyph-name="eth" unicode="&#xf0;" horiz-adv-x="521" 
d="M399 697c16.667 -20 23 -31.667 19 -35l-274 -170c-16.667 20 -22.667 32 -18 36zM250 447c34.667 0 56.3301 -1.33203 64.9971 -3.99902c-18.667 56 -48.167 102.667 -88.5 140s-88.5 63.666 -144.5 78.999c0 22 3.33301 33 10 33c32.667 0 66.667 -5.33301 102 -16
s70.833 -27.5 106.5 -50.5s67.5 -50.667 95.5 -83s50.833 -72.333 68.5 -120s26.5 -99.167 26.5 -154.5c0 -51.333 -6.66699 -95.833 -20 -133.5s-31.666 -66.5 -54.999 -86.5s-48 -34.5 -74 -43.5s-53.667 -13.5 -83 -13.5c-59.333 0 -112.666 21.167 -159.999 63.5
s-71 95.5 -71 159.5c0 56.667 21.333 109.167 64 157.5s95.334 72.5 158.001 72.5zM251.996 392.001c-54.667 0 -82 -49 -82 -147c0 -56 7.83301 -102.833 23.5 -140.5s41.167 -56.5 76.5 -56.5c52.667 0 79 51.667 79 155c-1.33301 56 -4.33301 94.333 -9 115
c-5.33301 23.333 -16.833 41.5 -34.5 54.5s-35.5 19.5 -53.5 19.5z" />
    <glyph glyph-name="ntilde" unicode="&#xf1;" horiz-adv-x="622" 
d="M159 519c-4.66699 0 -7.00098 6.66699 -7.00098 20c0 11.333 5.33301 26 16 44c21.333 30.667 45 46 71 46c20.667 0 47 -10.167 79 -30.5s58.333 -30.5 79 -30.5c10.667 0 22.667 8.5 36 25.5s21.333 25.5 24 25.5c4 0 6 -6.66699 6 -20c0 -12.667 -5 -27.667 -15 -45
c-19.333 -29.333 -42.666 -44 -69.999 -44c-20.667 0 -47 10 -79 30s-58.667 30 -80 30c-9.33301 0 -21 -8.5 -35 -25.5s-22.333 -25.5 -25 -25.5zM386.999 446c38.667 0 70.1738 -16.3311 94.5068 -48.998s36.5 -82.334 36.5 -149.001v-99c0 -42.667 2.33301 -73 7 -91
c1.33301 -4.66699 10.666 -10 27.999 -16s29 -9 35 -9c2 0 3.16699 -5.5 3.5 -16.5s-0.166992 -17.833 -1.5 -20.5c-7.33301 0.666992 -28.166 2.16699 -62.499 4.5s-59.166 3.5 -74.499 3.5c-16 0 -40.167 -1.16699 -72.5 -3.5s-52.5 -3.83301 -60.5 -4.5
c-2.66699 2.66699 -4 9.5 -4 20.5s1.33301 16.5 4 16.5c7.33301 0 19 3 35 9s24.667 11.333 26 16c4.66699 20 7 45.333 7 76v90c0 49.333 -6.83301 84.5 -20.5 105.5s-35.5 31.5 -65.5 31.5c-20.667 0 -37.334 -3.83301 -50.001 -11.5s-19 -18.5 -19 -32.5v-168
c0 -42.667 2.33301 -73 7 -91c1.33301 -4.66699 10.166 -10 26.499 -16s27.166 -9 32.499 -9c2 0 3.16699 -5.5 3.5 -16.5s-0.166992 -17.833 -1.5 -20.5c-8 0.666992 -28.333 2.16699 -61 4.5s-56.667 3.5 -72 3.5c-16 0 -41 -1.16699 -75 -3.5s-54.667 -3.83301 -62 -4.5
c-2.66699 2.66699 -4 9.5 -4 20.5s1.33301 16.5 4 16.5c7.33301 0 19.666 3 36.999 9s26.666 11.333 27.999 16c4.66699 20 7 45.333 7 76v137c0 37.333 -6 62.333 -18 75c-4.66699 5.33301 -11.667 9.66602 -21 12.999s-17.333 5.66602 -24 6.99902s-10 2.33301 -10 3
c0 23.333 1.66699 35 5 35c8 0 21.333 1.83301 40 5.5s43 8.83398 73 15.501s53.333 11.667 70 15c1.33301 0 2.83301 0.333008 4.5 1s3.16699 1 4.5 1l2 1c3.33301 0 6.66602 -2.16699 9.99902 -6.5s5 -7.83301 5 -10.5c-2.66699 -18.667 -4 -29 -4 -31
c0 -3.33301 0.333008 -5.33301 1 -6c1.33301 0 3.66602 1.66699 6.99902 5c37.333 34.667 83.666 52 138.999 52z" />
    <glyph glyph-name="ograve" unicode="&#xf2;" horiz-adv-x="523" 
d="M139 646c0 6 3.83496 12.332 11.502 18.999s19.167 10 34.5 10c16.667 0 28 -3 34 -9c11.333 -13.333 24.666 -31 39.999 -53s28 -41.167 38 -57.5s15 -25.5 15 -27.5c0 -3.33301 -2 -7.16602 -6 -11.499s-7.66699 -6.5 -11 -6.5c-8.66699 0 -36.834 18.5 -84.501 55.5
s-71.5 63.833 -71.5 80.5zM247.002 391.999c-19.333 0 -35.333 -7.66699 -48 -23s-21 -32.833 -25 -52.5s-6 -41.5 -6 -65.5c0 -135.333 34.333 -203 103 -203c28 0 48.5 13.667 61.5 41s19.5 59.333 19.5 96c0 138 -35 207 -105 207zM261.002 446.999
c65.333 0 120.833 -22 166.5 -66s68.5 -97.667 68.5 -161s-22.667 -117 -68 -161s-101 -66 -167 -66c-65.333 0 -120.833 22 -166.5 66s-68.5 97.667 -68.5 161s22.833 117 68.5 161s101.167 66 166.5 66z" />
    <glyph glyph-name="oacute" unicode="&#xf3;" horiz-adv-x="523" 
d="M343 675c15.333 0 26.835 -3.33203 34.502 -9.99902s11.5 -13 11.5 -19c0 -16.667 -23.833 -43.5 -71.5 -80.5s-75.834 -55.5 -84.501 -55.5c-3.33301 0 -7 2.16699 -11 6.5s-6 8.16602 -6 11.499c0 2 5 11.167 15 27.5s22.667 35.5 38 57.5s28.666 39.667 39.999 53
c6 6 17.333 9 34 9zM247.002 392.001c-19.333 0 -35.333 -7.66699 -48 -23s-21 -32.833 -25 -52.5s-6 -41.5 -6 -65.5c0 -135.333 34.333 -203 103 -203c28 0 48.5 13.667 61.5 41s19.5 59.333 19.5 96c0 138 -35 207 -105 207zM261.002 447.001
c65.333 0 120.833 -22 166.5 -66s68.5 -97.667 68.5 -161s-22.667 -117 -68 -161s-101 -66 -167 -66c-65.333 0 -120.833 22 -166.5 66s-68.5 97.667 -68.5 161s22.833 117 68.5 161s101.167 66 166.5 66z" />
    <glyph glyph-name="ocircumflex" unicode="&#xf4;" horiz-adv-x="523" 
d="M370 510c-5.33301 0 -21 9.00293 -47 27.0029s-46.667 33.667 -62 47c-15.333 -13.333 -36 -29 -62 -47s-41.667 -27 -47 -27c-6 0 -9 7.66699 -9 23c16 16 38 42 66 78c14 18 27 37 39 57c4 6.66699 8.33301 10 13 10c2.66699 0 6.66699 -3.33301 12 -10
c2 -2.66699 6.83301 -9.83398 14.5 -21.501s15.167 -21.834 22.5 -30.501c29.333 -38.667 52.333 -66.334 69 -83.001c0 -15.333 -3 -23 -9 -23zM247 392.003c-19.333 0 -35.333 -7.66699 -48 -23s-21 -32.833 -25 -52.5s-6 -41.5 -6 -65.5c0 -135.333 34.333 -203 103 -203
c28 0 48.5 13.667 61.5 41s19.5 59.333 19.5 96c0 138 -35 207 -105 207zM261 447.003c65.333 0 120.833 -22 166.5 -66s68.5 -97.667 68.5 -161s-22.667 -117 -68 -161s-101 -66 -167 -66c-65.333 0 -120.833 22 -166.5 66s-68.5 97.667 -68.5 161s22.833 117 68.5 161
s101.167 66 166.5 66z" />
    <glyph glyph-name="otilde" unicode="&#xf5;" horiz-adv-x="523" 
d="M112 519c-4.66699 0 -7.00098 6.66699 -7.00098 20c0 11.333 5.33301 26 16 44c21.333 30.667 45 46 71 46c20.667 0 47 -10.167 79 -30.5s58.333 -30.5 79 -30.5c10.667 0 22.667 8.5 36 25.5s21.333 25.5 24 25.5c4 0 6 -6.66699 6 -20c0 -12.667 -5 -27.667 -15 -45
c-19.333 -29.333 -42.666 -44 -69.999 -44c-20.667 0 -47 10 -79 30s-58.667 30 -80 30c-9.33301 0 -21 -8.5 -35 -25.5s-22.333 -25.5 -25 -25.5zM246.999 392c-19.333 0 -35.333 -7.66699 -48 -23s-21 -32.833 -25 -52.5s-6 -41.5 -6 -65.5
c0 -135.333 34.333 -203 103 -203c28 0 48.5 13.667 61.5 41s19.5 59.333 19.5 96c0 138 -35 207 -105 207zM260.999 447c65.333 0 120.833 -22 166.5 -66s68.5 -97.667 68.5 -161s-22.667 -117 -68 -161s-101 -66 -167 -66c-65.333 0 -120.833 22 -166.5 66
s-68.5 97.667 -68.5 161s22.833 117 68.5 161s101.167 66 166.5 66z" />
    <glyph glyph-name="odieresis" unicode="&#xf6;" horiz-adv-x="523" 
d="M294 582c0 20 7 36.833 21 50.5s31 20.5 51 20.5s37 -6.83301 51 -20.5s21 -30.5 21 -50.5s-7 -37 -21 -51s-31 -21 -51 -21s-37 7 -51 21s-21 31 -21 51zM72 582c0 20 6.83301 36.833 20.5 50.5s30.5 20.5 50.5 20.5s37 -6.83301 51 -20.5s21 -30.5 21 -50.5
s-7 -37 -21 -51s-31 -21 -51 -21s-36.833 7 -50.5 21s-20.5 31 -20.5 51zM247 392c-19.333 0 -35.333 -7.66699 -48 -23s-21 -32.833 -25 -52.5s-6 -41.5 -6 -65.5c0 -135.333 34.333 -203 103 -203c28 0 48.5 13.667 61.5 41s19.5 59.333 19.5 96c0 138 -35 207 -105 207z
M261 447c65.333 0 120.833 -22 166.5 -66s68.5 -97.667 68.5 -161s-22.667 -117 -68 -161s-101 -66 -167 -66c-65.333 0 -120.833 22 -166.5 66s-68.5 97.667 -68.5 161s22.833 117 68.5 161s101.167 66 166.5 66z" />
    <glyph glyph-name="divide" unicode="&#xf7;" horiz-adv-x="522" 
d="M259 378c-16.667 0 -30.5 5.16797 -41.5 15.501s-17.5 23.833 -19.5 40.5v4c0 15.333 6.16699 29.166 18.5 41.499s26.5 18.5 42.5 18.5c16.667 0 30.5 -5 41.5 -15s17.5 -23.333 19.5 -40v-6c0 -15.333 -6.16699 -29 -18.5 -41s-26.5 -18 -42.5 -18zM259 -5.99902
c-16 0 -29.667 5.50098 -41 16.501s-18 24.833 -20 41.5v5c0 15.333 6.16699 29.333 18.5 42s26.5 19 42.5 19s29.667 -5.83301 41 -17.5s18 -25.834 20 -42.501v-2c0 -15.333 -6.16699 -29.5 -18.5 -42.5s-26.5 -19.5 -42.5 -19.5zM25 220.002
c0 7.33301 1.16602 19.666 3.49902 36.999s5.83301 26 10.5 26h449c4.66699 -0.666992 7 -4 7 -10c0 -15.333 -2.66699 -33.666 -8 -54.999c-0.666992 -2 -1.66699 -3.5 -3 -4.5s-2.66602 -1.5 -3.99902 -1.5l-1 -1h-448l-4 2c-1.33301 2 -2 4.33301 -2 7z" />
    <glyph glyph-name="oslash" unicode="&#xf8;" 
d="M373 455c24.667 -9.33301 36 -16.3311 34 -20.998l-253 -452c-4 1.33301 -8.5 3.16602 -13.5 5.49902s-9.83301 5.16602 -14.5 8.49902s-6.66699 6 -6 8zM247 392.002c-19.333 0 -35.333 -7.66699 -48 -23s-21 -32.833 -25 -52.5s-6 -41.5 -6 -65.5
c0 -135.333 34.333 -203 103 -203c28 0 48.5 13.667 61.5 41s19.5 59.333 19.5 96c0 138 -35 207 -105 207zM261 447.002c65.333 0 120.833 -22 166.5 -66s68.5 -97.667 68.5 -161s-22.667 -117 -68 -161s-101 -66 -167 -66c-65.333 0 -120.833 22 -166.5 66
s-68.5 97.667 -68.5 161s22.833 117 68.5 161s101.167 66 166.5 66z" />
    <glyph glyph-name="ugrave" unicode="&#xf9;" horiz-adv-x="599" 
d="M158 646c0 6 3.83496 12.332 11.502 18.999s19.167 10 34.5 10c16.667 0 28 -3 34 -9c11.333 -13.333 24.666 -31 39.999 -53s28 -41.167 38 -57.5s15 -25.5 15 -27.5c0 -3.33301 -2 -7.16602 -6 -11.499s-7.66699 -6.5 -11 -6.5c-8.66699 0 -36.834 18.5 -84.501 55.5
s-71.5 63.833 -71.5 80.5zM512.002 326.999l0.00390625 -196c0 -34.667 3.33301 -55.667 10 -63c3.33301 -3.33301 8.66602 -5.83301 15.999 -7.5s14.666 -2.5 21.999 -2.5h10c2.66699 -1.33301 4 -4 4 -8c0 -19.333 -2 -29 -6 -29c-10 -0.666992 -23 -2 -39 -4
s-32 -4.16699 -48 -6.5s-31.167 -4.66602 -45.5 -6.99902s-26.166 -4.16602 -35.499 -5.49902l-14 -3c-4 0 -6 6 -6 18v37c0 2.66699 -0.333008 4.33398 -1 5.00098s-1.66699 0.333984 -3 -0.999023c-14 -14.667 -34.5 -28 -61.5 -40s-56.167 -18 -87.5 -18
c-39.333 0 -70.833 17.333 -94.5 52s-35.5 76.667 -35.5 126v97c0 37.333 -6 62.333 -18 75c-4.66699 5.33301 -11.667 9.66602 -21 12.999s-17.333 5.66602 -24 6.99902s-10 2.33301 -10 3c0 23.333 1.66699 35 5 35c12.667 0 41.667 4.5 87 13.5s77.333 16.5 96 22.5l5 2
c3.33301 0.666992 5.33301 1 6 1c3.33301 0 6.66602 -2.16699 9.99902 -6.5s5 -7.83301 5 -10.5c-7.33301 -58.667 -11 -92 -11 -100v-107c0 -52 6.66699 -88.5 20 -109.5s35.666 -31.5 66.999 -31.5c22.667 0 39.667 5.16699 51 15.5s17 21.833 17 34.5v143
c0 37.333 -6 62.333 -18 75c-4.66699 5.33301 -11.667 9.66602 -21 12.999s-17.333 5.66602 -24 6.99902s-10 2.33301 -10 3c0 23.333 1.66699 35 5 35c12.667 0 41.667 4.5 87 13.5s77.333 16.5 96 22.5c0.666992 0 2.66699 0.666992 6 2l5 1
c3.33301 0 6.66602 -2.16699 9.99902 -6.5s5 -7.83301 5 -10.5c-7.33301 -58.667 -11 -91.667 -11 -99z" />
    <glyph glyph-name="uacute" unicode="&#xfa;" horiz-adv-x="599" 
d="M400 675c15.333 0 26.835 -3.33203 34.502 -9.99902s11.5 -13 11.5 -19c0 -16.667 -23.833 -43.5 -71.5 -80.5s-75.834 -55.5 -84.501 -55.5c-3.33301 0 -7 2.16699 -11 6.5s-6 8.16602 -6 11.499c0 2 5 11.167 15 27.5s22.667 35.5 38 57.5s28.666 39.667 39.999 53
c6 6 17.333 9 34 9zM512.002 327.001l0.00390625 -196c0 -34.667 3.33301 -55.667 10 -63c3.33301 -3.33301 8.66602 -5.83301 15.999 -7.5s14.666 -2.5 21.999 -2.5h10c2.66699 -1.33301 4 -4 4 -8c0 -19.333 -2 -29 -6 -29c-10 -0.666992 -23 -2 -39 -4
s-32 -4.16699 -48 -6.5s-31.167 -4.66602 -45.5 -6.99902s-26.166 -4.16602 -35.499 -5.49902l-14 -3c-4 0 -6 6 -6 18v37c0 2.66699 -0.333008 4.33398 -1 5.00098s-1.66699 0.333984 -3 -0.999023c-14 -14.667 -34.5 -28 -61.5 -40s-56.167 -18 -87.5 -18
c-39.333 0 -70.833 17.333 -94.5 52s-35.5 76.667 -35.5 126v97c0 37.333 -6 62.333 -18 75c-4.66699 5.33301 -11.667 9.66602 -21 12.999s-17.333 5.66602 -24 6.99902s-10 2.33301 -10 3c0 23.333 1.66699 35 5 35c12.667 0 41.667 4.5 87 13.5s77.333 16.5 96 22.5l5 2
c3.33301 0.666992 5.33301 1 6 1c3.33301 0 6.66602 -2.16699 9.99902 -6.5s5 -7.83301 5 -10.5c-7.33301 -58.667 -11 -92 -11 -100v-107c0 -52 6.66699 -88.5 20 -109.5s35.666 -31.5 66.999 -31.5c22.667 0 39.667 5.16699 51 15.5s17 21.833 17 34.5v143
c0 37.333 -6 62.333 -18 75c-4.66699 5.33301 -11.667 9.66602 -21 12.999s-17.333 5.66602 -24 6.99902s-10 2.33301 -10 3c0 23.333 1.66699 35 5 35c12.667 0 41.667 4.5 87 13.5s77.333 16.5 96 22.5c0.666992 0 2.66699 0.666992 6 2l5 1
c3.33301 0 6.66602 -2.16699 9.99902 -6.5s5 -7.83301 5 -10.5c-7.33301 -58.667 -11 -91.667 -11 -99z" />
    <glyph glyph-name="ucircumflex" unicode="&#xfb;" horiz-adv-x="599" 
d="M405 510c-5.33301 0 -21 9.00293 -47 27.0029s-46.667 33.667 -62 47c-15.333 -13.333 -36 -29 -62 -47s-41.667 -27 -47 -27c-6 0 -9 7.66699 -9 23c16 16 38 42 66 78c14 18 27 37 39 57c4 6.66699 8.33301 10 13 10c2.66699 0 6.66699 -3.33301 12 -10
c2 -2.66699 6.83301 -9.83398 14.5 -21.501s15.167 -21.834 22.5 -30.501c29.333 -38.667 52.333 -66.334 69 -83.001c0 -15.333 -3 -23 -9 -23zM512 327.003l0.00390625 -196c0 -34.667 3.33301 -55.667 10 -63c3.33301 -3.33301 8.66602 -5.83301 15.999 -7.5
s14.666 -2.5 21.999 -2.5h10c2.66699 -1.33301 4 -4 4 -8c0 -19.333 -2 -29 -6 -29c-10 -0.666992 -23 -2 -39 -4s-32 -4.16699 -48 -6.5s-31.167 -4.66602 -45.5 -6.99902s-26.166 -4.16602 -35.499 -5.49902l-14 -3c-4 0 -6 6 -6 18v37
c0 2.66699 -0.333008 4.33398 -1 5.00098s-1.66699 0.333984 -3 -0.999023c-14 -14.667 -34.5 -28 -61.5 -40s-56.167 -18 -87.5 -18c-39.333 0 -70.833 17.333 -94.5 52s-35.5 76.667 -35.5 126v97c0 37.333 -6 62.333 -18 75c-4.66699 5.33301 -11.667 9.66602 -21 12.999
s-17.333 5.66602 -24 6.99902s-10 2.33301 -10 3c0 23.333 1.66699 35 5 35c12.667 0 41.667 4.5 87 13.5s77.333 16.5 96 22.5l5 2c3.33301 0.666992 5.33301 1 6 1c3.33301 0 6.66602 -2.16699 9.99902 -6.5s5 -7.83301 5 -10.5c-7.33301 -58.667 -11 -92 -11 -100v-107
c0 -52 6.66699 -88.5 20 -109.5s35.666 -31.5 66.999 -31.5c22.667 0 39.667 5.16699 51 15.5s17 21.833 17 34.5v143c0 37.333 -6 62.333 -18 75c-4.66699 5.33301 -11.667 9.66602 -21 12.999s-17.333 5.66602 -24 6.99902s-10 2.33301 -10 3c0 23.333 1.66699 35 5 35
c12.667 0 41.667 4.5 87 13.5s77.333 16.5 96 22.5c0.666992 0 2.66699 0.666992 6 2l5 1c3.33301 0 6.66602 -2.16699 9.99902 -6.5s5 -7.83301 5 -10.5c-7.33301 -58.667 -11 -91.667 -11 -99z" />
    <glyph glyph-name="udieresis" unicode="&#xfc;" horiz-adv-x="599" 
d="M335 582c0 20 7 36.833 21 50.5s31 20.5 51 20.5s37 -6.83301 51 -20.5s21 -30.5 21 -50.5s-7 -37 -21 -51s-31 -21 -51 -21s-37 7 -51 21s-21 31 -21 51zM113 582c0 20 6.83301 36.833 20.5 50.5s30.5 20.5 50.5 20.5s37 -6.83301 51 -20.5s21 -30.5 21 -50.5
s-7 -37 -21 -51s-31 -21 -51 -21s-36.833 7 -50.5 21s-20.5 31 -20.5 51zM512 327l0.00390625 -196c0 -34.667 3.33301 -55.667 10 -63c3.33301 -3.33301 8.66602 -5.83301 15.999 -7.5s14.666 -2.5 21.999 -2.5h10c2.66699 -1.33301 4 -4 4 -8c0 -19.333 -2 -29 -6 -29
c-10 -0.666992 -23 -2 -39 -4s-32 -4.16699 -48 -6.5s-31.167 -4.66602 -45.5 -6.99902s-26.166 -4.16602 -35.499 -5.49902l-14 -3c-4 0 -6 6 -6 18v37c0 2.66699 -0.333008 4.33398 -1 5.00098s-1.66699 0.333984 -3 -0.999023c-14 -14.667 -34.5 -28 -61.5 -40
s-56.167 -18 -87.5 -18c-39.333 0 -70.833 17.333 -94.5 52s-35.5 76.667 -35.5 126v97c0 37.333 -6 62.333 -18 75c-4.66699 5.33301 -11.667 9.66602 -21 12.999s-17.333 5.66602 -24 6.99902s-10 2.33301 -10 3c0 23.333 1.66699 35 5 35c12.667 0 41.667 4.5 87 13.5
s77.333 16.5 96 22.5l5 2c3.33301 0.666992 5.33301 1 6 1c3.33301 0 6.66602 -2.16699 9.99902 -6.5s5 -7.83301 5 -10.5c-7.33301 -58.667 -11 -92 -11 -100v-107c0 -52 6.66699 -88.5 20 -109.5s35.666 -31.5 66.999 -31.5c22.667 0 39.667 5.16699 51 15.5
s17 21.833 17 34.5v143c0 37.333 -6 62.333 -18 75c-4.66699 5.33301 -11.667 9.66602 -21 12.999s-17.333 5.66602 -24 6.99902s-10 2.33301 -10 3c0 23.333 1.66699 35 5 35c12.667 0 41.667 4.5 87 13.5s77.333 16.5 96 22.5c0.666992 0 2.66699 0.666992 6 2l5 1
c3.33301 0 6.66602 -2.16699 9.99902 -6.5s5 -7.83301 5 -10.5c-7.33301 -58.667 -11 -91.667 -11 -99z" />
    <glyph glyph-name="yacute" unicode="&#xfd;" horiz-adv-x="544" 
d="M391 675c15.333 0 26.835 -3.33203 34.502 -9.99902s11.5 -13 11.5 -19c0 -16.667 -23.833 -43.5 -71.5 -80.5s-75.834 -55.5 -84.501 -55.5c-3.33301 0 -7 2.16699 -11 6.5s-6 8.16602 -6 11.499c0 2 5 11.167 15 27.5s22.667 35.5 38 57.5s28.666 39.667 39.999 53
c6 6 17.333 9 34 9zM148.002 435.001c14.667 0 38.334 1.16797 71.001 3.50098s52.667 3.83301 60 4.5c2 -6 3 -13 3 -21c0 -10.667 -1.33301 -16 -4 -16c-8.66699 0 -21.167 -2.66699 -37.5 -8s-24.5 -11.333 -24.5 -18l1 -9c1.33301 -10.667 27.333 -75.667 78 -195
c45.333 98 70 152 74 162c4 9.33301 6 19.333 6 30c0 4 -1.83301 8.66699 -5.5 14s-11.167 10.666 -22.5 15.999s-25.666 8 -42.999 8c-2.66699 0 -4 6 -4 18c0 8.66699 0.666992 15 2 19c8 -0.666992 27.833 -2.16699 59.5 -4.5s55.5 -3.5 71.5 -3.5
c14 0 32.667 1.16699 56 3.5s40.333 3.83301 51 4.5c2.66699 -5.33301 4 -11 4 -17c0 -13.333 -1.33301 -20 -4 -20c-10 0 -24.833 -3.33301 -44.5 -10s-32.834 -16.667 -39.501 -30l-186 -403c-55.333 -120.667 -120 -181 -194 -181c-20 0 -36.167 5.33301 -48.5 16
s-18.5 23 -18.5 37c0 20.667 7.66699 36.334 23 47.001c84.667 0 139.667 26 165 78l31 66l-149 330l-5 12c-6.66699 14 -16.834 23.833 -30.501 29.5s-25.5 8.5 -35.5 8.5c-2.66699 0 -4 5 -4 15c0 13.333 0.666992 20.666 2 21.999c5.33301 0 26.333 -1.33301 63 -4
s63 -4 79 -4z" />
    </font>
</defs>
</svg>
